<?xml version="1.0" standalone="no"?>
<!DOCTYPE svg PUBLIC "-//W3C//DTD SVG 20010904//EN"
 "http://www.w3.org/TR/2001/REC-SVG-20010904/DTD/svg10.dtd">
<svg version="1.0" xmlns="http://www.w3.org/2000/svg"
 width="300.000000pt" height="144.000000pt" viewBox="0 0 300.000000 144.000000"
 preserveAspectRatio="xMidYMid meet">

<g transform="translate(0.000000,144.000000) scale(0.100000,-0.100000)"
fill="#000000" stroke="none">
<path d="M490 1179 c-271 -52 -322 -363 -78 -475 54 -24 75 -28 153 -29 63 0
106 6 144 19 54 19 135 81 126 96 -3 5 -20 -5 -37 -21 -43 -39 -88 -52 -159
-47 -74 5 -132 43 -167 108 -34 64 -29 160 12 218 35 51 112 92 173 92 41 0
113 -22 113 -34 0 -3 -19 -36 -43 -73 -24 -38 -47 -74 -52 -82 -4 -8 21 3 56
23 35 20 79 44 97 53 17 9 32 22 32 29 0 6 -16 26 -35 43 -86 76 -208 105
-335 80z"/>
<path d="M1035 1065 l-90 -34 82 0 82 -1 16 -52 c22 -75 21 -79 -22 -57 -99
51 -227 -2 -240 -99 -18 -134 194 -201 291 -93 26 29 34 26 42 -14 l6 -35 74
0 c41 0 74 2 74 5 0 22 -94 345 -106 363 -16 25 -71 52 -101 51 -10 0 -58 -15
-108 -34z m108 -204 c43 -42 6 -131 -53 -131 -41 0 -80 35 -80 71 0 79 78 114
133 60z"/>
<path d="M1395 1065 l-70 -34 43 -1 42 0 0 -175 0 -175 75 0 75 0 0 165 c0
154 1 165 20 175 14 8 26 8 40 0 19 -10 20 -21 20 -175 l0 -165 75 0 75 0 0
185 c0 184 0 186 -25 210 -31 32 -48 31 -129 -5 l-67 -31 -29 31 c-35 38 -57
37 -145 -5z"/>
<path d="M2002 1087 c-153 -56 -191 -256 -69 -364 121 -106 311 -42 346 117
16 72 -2 133 -58 190 -63 66 -139 85 -219 57z m67 -31 c7 -8 30 -81 52 -162
46 -166 44 -194 -10 -194 -16 0 -33 6 -39 13 -5 6 -28 79 -50 162 -38 137 -40
152 -26 172 16 26 55 30 73 9z"/>
<path d="M2355 1065 l-70 -34 43 0 42 -1 0 -175 0 -175 75 0 75 0 0 165 c0
154 1 165 20 175 14 8 26 8 40 0 19 -10 20 -21 20 -175 l0 -165 75 0 75 0 0
185 c0 184 0 186 -25 210 -31 32 -48 31 -129 -5 l-67 -31 -29 31 c-35 38 -57
37 -145 -5z"/>
<path d="M584 340 c0 -52 1 -74 3 -47 2 26 2 68 0 95 -2 26 -3 4 -3 -48z"/>
<path d="M625 420 c-3 -5 1 -10 10 -10 9 0 13 5 10 10 -3 6 -8 10 -10 10 -2 0
-7 -4 -10 -10z"/>
<path d="M843 340 c0 -52 2 -75 4 -50 5 51 28 82 57 78 18 -3 21 -11 24 -55 4
-61 22 -72 22 -14 0 23 -8 48 -19 62 -17 21 -22 23 -50 13 -30 -12 -30 -11
-34 25 -2 20 -4 -7 -4 -59z"/>
<path d="M1001 408 c0 -14 -7 -29 -13 -31 -10 -4 -10 -6 0 -6 8 -1 13 -22 14
-63 l2 -63 3 55 c3 36 9 59 20 68 15 11 15 12 1 12 -10 0 -18 10 -21 28 l-4
27 -2 -27z"/>
<path d="M1060 420 c0 -5 5 -10 10 -10 6 0 10 5 10 10 0 6 -4 10 -10 10 -5 0
-10 -4 -10 -10z"/>
<path d="M2154 340 c0 -52 1 -74 3 -47 2 26 2 68 0 95 -2 26 -3 4 -3 -48z"/>
<path d="M250 334 l0 -87 53 6 c63 8 87 32 87 87 0 51 -35 80 -96 80 l-44 0 0
-86z m105 51 c49 -48 22 -115 -46 -115 l-39 0 0 70 0 70 30 0 c19 0 40 -9 55
-25z"/>
<path d="M1505 377 c15 -27 26 -61 26 -88 l2 -44 6 45 c4 25 17 63 29 84 13
21 21 41 18 43 -2 2 -12 -9 -22 -26 -23 -38 -28 -39 -51 -1 -9 17 -21 30 -26
30 -4 0 4 -20 18 -43z"/>
<path d="M2006 346 c-20 -44 -35 -84 -33 -90 2 -5 9 5 16 22 12 28 18 32 52
32 33 0 41 -4 54 -31 9 -17 18 -29 21 -26 2 2 -13 42 -34 88 l-39 84 -37 -79z
m54 8 c13 -34 13 -34 -15 -34 -27 0 -28 3 -19 38 8 29 22 28 34 -4z"/>
<path d="M440 360 c-54 -54 12 -136 81 -100 10 6 19 15 19 21 0 5 -11 2 -25
-7 -32 -21 -75 -6 -75 26 0 18 6 20 55 20 30 0 55 5 55 10 0 19 -40 50 -65 50
-14 0 -34 -9 -45 -20z m71 0 c32 -18 21 -30 -26 -30 -47 0 -58 12 -27 29 22
13 29 13 53 1z"/>
<path d="M633 315 c0 -38 2 -53 4 -32 2 20 2 52 0 70 -2 17 -4 1 -4 -38z"/>
<path d="M690 360 c-27 -27 -25 -56 5 -85 27 -28 37 -30 67 -14 25 14 33 6 18
-20 -12 -24 -68 -29 -88 -9 -7 7 -12 8 -12 2 0 -17 49 -35 76 -28 13 4 29 14
34 24 12 22 13 161 2 143 -5 -8 -13 -9 -22 -3 -25 16 -59 11 -80 -10z m81 -9
c20 -16 22 -23 14 -47 -8 -22 -18 -30 -42 -32 -53 -5 -77 52 -35 86 22 17 36
15 63 -7z"/>
<path d="M1060 320 c0 -33 4 -60 10 -60 6 0 10 27 10 60 0 33 -4 60 -10 60 -6
0 -10 -27 -10 -60z"/>
<path d="M1110 320 c0 -33 4 -60 10 -60 6 0 10 20 10 45 0 39 4 47 25 57 36
16 53 -3 58 -65 l3 -52 2 56 c2 59 -9 79 -43 79 -12 0 -26 -5 -33 -12 -9 -9
-12 -9 -12 0 0 7 -4 12 -10 12 -6 0 -10 -27 -10 -60z"/>
<path d="M1276 365 c-24 -25 -29 -54 -12 -80 20 -30 49 -39 76 -25 26 14 38 5
24 -18 -14 -21 -70 -28 -92 -11 -16 12 -16 11 0 -6 20 -21 70 -24 92 -5 12 9
16 32 16 89 0 42 -4 71 -8 64 -5 -8 -13 -9 -22 -3 -22 14 -57 12 -74 -5z m76
-12 c36 -32 17 -83 -32 -83 -33 0 -50 17 -50 52 0 44 48 62 82 31z"/>
<path d="M1620 360 c-40 -40 -11 -110 45 -110 32 0 65 33 65 65 0 14 -9 34
-20 45 -11 11 -31 20 -45 20 -14 0 -34 -9 -45 -20z m74 -3 c36 -27 14 -97 -31
-97 -18 0 -53 37 -53 55 0 18 35 55 53 55 7 0 21 -6 31 -13z"/>
<path d="M1761 334 c-1 -38 4 -55 17 -67 46 -42 93 -4 91 73 l-1 45 -8 -48
c-9 -50 -24 -77 -44 -77 -27 1 -41 22 -47 72 l-6 53 -2 -51z"/>
<path d="M2205 324 c14 -31 25 -59 25 -63 1 -3 12 14 25 39 l23 45 21 -45 20
-45 26 58 c15 32 25 61 22 64 -6 5 -37 -61 -37 -78 0 -22 -17 -5 -34 34 l-18
42 -21 -45 -20 -45 -21 47 c-12 26 -24 48 -28 48 -4 0 3 -25 17 -56z"/>
<path d="M2410 360 c-27 -27 -25 -62 3 -88 26 -25 57 -28 75 -10 10 10 15 10
22 -2 7 -10 10 7 10 55 0 48 -3 65 -10 55 -7 -12 -12 -12 -22 -2 -18 18 -55
15 -78 -8z m80 -10 c11 -11 20 -27 20 -35 0 -18 -35 -55 -53 -55 -25 0 -49 27
-49 55 0 28 24 55 49 55 7 0 22 -9 33 -20z"/>
<path d="M2550 376 c0 -2 11 -29 25 -60 19 -43 23 -62 15 -76 -12 -23 -13 -37
-1 -24 13 13 72 156 67 161 -2 3 -13 -16 -25 -41 -11 -25 -23 -46 -26 -46 -3
0 -14 20 -25 45 -16 38 -30 57 -30 41z"/>
<path d="M2690 365 c-13 -16 -6 -32 27 -59 19 -14 21 -21 12 -32 -7 -9 -20
-12 -33 -8 -16 5 -18 3 -10 -6 16 -16 44 -9 58 13 9 16 6 23 -23 47 -37 31
-34 55 6 45 16 -4 22 -2 18 5 -9 15 -41 12 -55 -5z"/>
</g>
</svg>
