<?xml version="1.0" standalone="no"?>
<!DOCTYPE svg PUBLIC "-//W3C//DTD SVG 20010904//EN"
 "http://www.w3.org/TR/2001/REC-SVG-20010904/DTD/svg10.dtd">
<svg version="1.0" xmlns="http://www.w3.org/2000/svg"
 width="660.000000pt" height="591.000000pt" viewBox="0 0 660.000000 591.000000"
 preserveAspectRatio="xMidYMid meet">

<g transform="translate(0.000000,591.000000) scale(0.100000,-0.100000)"
fill="#000000" stroke="none">
<path d="M592 5278 l3 -213 265 -5 c243 -5 270 -8 321 -28 51 -20 1542 -1004
1546 -1020 2 -10 -1604 -1078 -1658 -1101 -98 -43 -154 -51 -366 -51 l-203 0
0 -236 0 -235 513 4 c570 4 554 2 712 76 44 21 397 249 785 508 826 550 897
596 907 591 5 -1 360 -238 790 -525 430 -287 813 -537 850 -556 85 -42 178
-73 263 -87 36 -5 224 -10 418 -10 l352 0 0 235 0 235 -353 0 c-387 0 -441 6
-556 64 -53 27 -1371 904 -1371 912 0 7 1665 1111 1711 1134 80 41 143 50 361
50 l208 0 0 236 0 235 -492 -3 -493 -4 -97 -26 c-53 -15 -127 -42 -165 -60
-37 -19 -437 -278 -887 -576 -450 -299 -824 -542 -830 -540 -6 2 -370 243
-808 535 -489 326 -834 550 -890 577 -174 84 -202 89 -541 94 l-297 4 2 -214z"/>
<path d="M544 1316 c-17 -8 -34 -21 -38 -31 -3 -9 -6 -205 -6 -436 l0 -419
108 0 c71 0 112 4 120 12 9 9 12 68 12 205 l0 193 175 0 175 0 0 50 0 50 -175
0 -175 0 0 128 c0 171 -12 162 203 162 l167 0 0 50 0 50 -267 0 c-202 -1 -276
-4 -299 -14z"/>
<path d="M1245 1314 c-15 -15 -16 -51 -13 -368 3 -347 3 -352 27 -399 27 -56
79 -98 154 -124 42 -14 83 -18 207 -18 95 0 171 5 197 13 66 20 134 72 160
122 22 44 22 50 23 418 l0 372 -99 0 c-77 0 -103 -4 -115 -16 -14 -13 -16 -61
-16 -372 0 -389 -1 -392 -58 -425 -62 -37 -205 -17 -229 31 -4 9 -10 188 -13
397 l-5 380 -101 3 c-84 2 -105 0 -119 -14z"/>
<path d="M2442 1317 c-7 -8 -12 -134 -14 -369 -3 -342 -4 -358 -24 -385 -34
-46 -79 -62 -197 -70 l-107 -6 0 -45 0 -44 158 4 c131 4 166 8 213 26 72 29
131 80 161 140 23 46 23 53 26 405 l3 357 -104 0 c-73 0 -108 -4 -115 -13z"/>
<path d="M2887 1317 c-16 -11 -17 -34 -15 -239 l3 -227 90 70 c151 118 135 87
135 259 l0 150 -98 0 c-63 0 -104 -5 -115 -13z"/>
<path d="M3380 1312 c-20 -10 -37 -27 -41 -42 -4 -14 -7 -89 -8 -166 l-1 -142
-77 -58 -76 -59 77 -5 78 -5 -2 -202 -1 -203 116 0 c115 0 116 0 125 26 6 14
10 106 10 205 l0 179 170 0 170 0 0 50 0 50 -170 0 -170 0 0 135 c0 123 2 135
19 145 11 6 89 10 180 10 l161 0 0 50 0 50 -262 0 c-230 0 -267 -2 -298 -18z"/>
<path d="M4098 1319 c-17 -9 -18 -41 -18 -449 l0 -440 109 0 c90 0 110 3 115
16 3 9 6 211 6 450 l0 434 -97 0 c-54 0 -106 -5 -115 -11z"/>
<path d="M4542 1318 c-15 -15 -17 -793 -2 -832 19 -50 48 -56 300 -56 l231 0
-3 47 -3 48 -135 3 c-107 2 -138 6 -152 19 -17 15 -18 43 -18 400 l0 383 -103
0 c-67 0 -107 -4 -115 -12z"/>
<path d="M5198 1319 c-17 -9 -18 -41 -18 -450 l0 -440 53 3 52 3 5 365 c4 280
7 357 16 330 6 -19 48 -185 95 -367 l84 -333 81 0 c64 0 84 4 97 18 8 9 55
173 103 364 49 190 92 344 96 342 5 -3 8 -167 8 -365 l0 -359 100 0 c88 0 100
2 110 19 6 13 10 173 10 450 l0 431 -150 0 c-191 0 -184 6 -228 -180 -17 -74
-51 -218 -75 -320 -27 -112 -46 -177 -50 -165 -3 11 -36 155 -72 320 -36 165
-68 310 -72 323 -5 21 -9 22 -117 22 -61 0 -119 -5 -128 -11z"/>
<path d="M2870 635 l0 -205 103 0 c67 0 107 4 115 12 9 9 12 68 12 205 l0 193
-115 0 -115 0 0 -205z"/>
</g>
</svg>
