<?xml version="1.0" standalone="no"?>
<!DOCTYPE svg PUBLIC "-//W3C//DTD SVG 20010904//EN"
 "http://www.w3.org/TR/2001/REC-SVG-20010904/DTD/svg10.dtd">
<svg version="1.0" xmlns="http://www.w3.org/2000/svg"
 width="920.000000pt" height="239.000000pt" viewBox="0 0 920.000000 239.000000"
 preserveAspectRatio="xMidYMid meet">

<g transform="translate(0.000000,239.000000) scale(0.100000,-0.100000)"
fill="#000000" stroke="none">
<path d="M4165 2378 c-11 -6 -23 -16 -27 -22 -4 -6 -8 -271 -8 -588 0 -688
-15 -622 142 -616 142 4 138 -3 138 244 l0 194 524 0 c291 0 570 5 627 10 206
21 345 69 421 145 66 67 73 91 73 265 0 144 -2 158 -23 192 -43 69 -147 122
-317 161 -86 20 -124 21 -810 24 -536 2 -725 0 -740 -9z m1380 -179 c104 -8
176 -28 207 -56 15 -14 18 -33 18 -138 0 -120 0 -121 -28 -148 -16 -15 -53
-38 -83 -50 -53 -22 -61 -22 -651 -25 l-598 -3 0 216 0 215 518 -1 c284 -1
562 -5 617 -10z"/>
<path d="M480 2369 c-226 -26 -400 -104 -452 -201 -22 -42 -23 -51 -26 -386
-3 -402 0 -423 72 -490 75 -70 183 -111 356 -137 140 -22 961 -21 1086 0 207
36 323 98 370 200 22 46 24 63 24 211 0 144 -2 164 -19 185 l-19 24 -323 3
c-339 3 -365 0 -394 -42 -26 -36 -19 -94 14 -127 l29 -29 216 0 216 0 0 -71
c0 -84 -8 -103 -60 -129 -92 -47 -155 -51 -657 -48 -417 3 -474 6 -522 22 -29
9 -64 28 -77 41 l-24 24 0 336 c0 196 4 344 10 354 13 25 93 58 176 72 38 6
161 13 274 14 113 1 211 3 218 4 27 3 52 41 52 80 0 95 -17 101 -267 100 -109
-1 -232 -5 -273 -10z"/>
<path d="M2615 2109 c-100 -12 -251 -64 -315 -107 -33 -22 -66 -56 -85 -86
l-30 -49 -3 -203 c-2 -126 1 -223 8 -257 29 -140 192 -227 479 -256 133 -14
588 -14 722 -1 226 23 365 84 426 188 28 47 28 48 31 259 2 135 -1 232 -8 268
-17 81 -60 132 -150 178 -127 64 -174 69 -615 72 -214 2 -421 -1 -460 -6z
m859 -192 c26 -9 59 -26 72 -38 24 -22 24 -24 24 -241 l0 -219 -25 -23 c-14
-13 -51 -32 -82 -42 -53 -17 -93 -19 -448 -19 -349 0 -396 2 -449 18 -34 11
-71 31 -88 48 l-29 29 3 204 c3 235 2 231 96 266 92 35 150 39 522 36 295 -2
363 -5 404 -19z"/>
<path d="M6710 2109 c-91 -10 -214 -40 -262 -65 -48 -25 -110 -86 -129 -129
-17 -36 -19 -73 -19 -382 0 -327 1 -344 19 -362 43 -43 189 -40 229 5 22 25
22 27 22 351 l0 325 30 28 c42 40 103 52 288 59 156 6 165 7 183 30 19 23 25
74 13 106 -13 34 -58 45 -176 44 -62 -1 -151 -6 -198 -10z"/>
<path d="M7705 2109 c-144 -18 -294 -79 -361 -145 -61 -62 -64 -77 -64 -341 0
-228 1 -240 23 -278 46 -82 149 -138 327 -176 81 -18 142 -22 405 -26 438 -7
584 8 738 79 80 37 138 97 156 161 9 29 11 114 9 267 -3 217 -4 227 -28 275
-48 96 -181 163 -370 185 -102 12 -736 11 -835 -1z m790 -180 c89 -12 149 -41
165 -78 7 -19 10 -92 8 -230 l-3 -203 -28 -24 c-15 -13 -53 -32 -85 -41 -50
-16 -102 -18 -447 -18 -345 0 -397 2 -447 18 -32 9 -69 27 -83 40 -25 22 -26
22 -26 197 -2 258 -2 248 27 275 28 26 97 52 172 65 69 11 665 11 747 -1z"/>
<path d="M9017 1216 c-102 -94 32 -240 135 -147 27 24 33 36 33 71 0 85 -106
133 -168 76z m106 2 c33 -17 46 -39 47 -79 1 -94 -122 -122 -163 -37 -16 33
-16 40 -3 71 22 54 70 72 119 45z"/>
<path d="M9040 1146 c0 -31 5 -56 10 -56 6 0 10 11 10 25 0 15 6 25 15 25 8 0
22 -11 31 -25 9 -14 20 -25 25 -25 5 0 2 12 -7 26 -14 20 -15 27 -5 34 7 4 11
16 9 26 -2 14 -13 20 -46 22 l-42 3 0 -55z m68 27 c-2 -10 -13 -19 -26 -21
-17 -3 -22 2 -22 17 0 16 6 21 26 21 19 0 25 -5 22 -17z"/>
<path d="M7810 430 l0 -420 545 0 545 0 0 420 0 420 -545 0 -545 0 0 -420z
m1070 0 l0 -400 -525 0 -525 0 0 400 0 400 525 0 525 0 0 -400z"/>
<path d="M6490 430 l0 -410 535 0 535 0 0 410 0 410 -535 0 -535 0 0 -410z"/>
<path d="M1565 648 c-2 -7 -29 -118 -58 -245 l-54 -233 63 0 c61 0 64 1 70 28
9 42 23 98 34 142 l11 40 89 0 c50 0 90 -3 90 -7 0 -5 -11 -52 -24 -106 l-23
-97 63 0 c51 0 64 3 68 18 3 9 26 107 51 217 25 110 47 210 50 223 5 21 3 22
-59 22 l-65 0 -11 -57 c-21 -107 -26 -118 -43 -117 -9 0 -50 1 -91 2 l-74 2
19 73 c27 105 28 102 -41 105 -43 2 -62 -1 -65 -10z"/>
<path d="M2491 568 c-12 -51 -36 -162 -55 -245 l-33 -153 62 0 62 0 19 87 19
88 38 3 37 3 43 -90 42 -90 74 -1 73 0 -14 23 c-28 43 -100 178 -97 181 2 1
26 15 52 30 54 31 77 71 77 133 0 21 -7 49 -16 61 -30 44 -68 54 -219 59
l-143 4 -21 -93z m247 -20 c18 -18 14 -62 -8 -86 -19 -20 -61 -27 -127 -21 -9
0 -6 29 8 82 10 37 10 37 62 37 29 0 58 -5 65 -12z"/>
<path d="M3082 634 c-150 -75 -222 -305 -129 -411 43 -49 82 -63 175 -63 64 0
87 5 130 26 187 93 231 381 68 455 -64 29 -178 26 -244 -7z m169 -74 c54 -30
63 -116 20 -207 -33 -70 -62 -93 -124 -100 -36 -4 -48 -1 -73 20 -27 23 -29
30 -29 94 1 91 45 174 105 196 26 9 80 8 101 -3z"/>
<path d="M2086 633 c-3 -10 -26 -110 -51 -223 -25 -113 -48 -213 -51 -222 -5
-17 8 -18 175 -18 181 0 181 0 181 23 0 12 3 32 6 45 6 22 6 22 -105 22 -63 0
-111 4 -111 10 0 5 5 32 11 60 l11 50 107 0 108 0 10 45 c6 24 8 47 5 50 -3 3
-50 5 -104 5 l-100 0 7 33 c4 17 9 35 12 40 2 4 53 7 113 7 60 0 111 3 113 8
2 4 7 24 11 45 l7 37 -175 0 c-158 0 -175 -2 -180 -17z"/>
<path d="M160 395 l0 -225 155 0 c151 0 157 1 180 24 47 47 45 148 -3 187 -18
14 -23 23 -14 26 19 7 42 58 42 93 0 17 -7 44 -15 60 -26 51 -59 60 -210 60
l-135 0 0 -225z m252 128 c22 -20 23 -56 2 -77 -11 -12 -36 -16 -90 -16 l-74
0 0 55 0 55 72 0 c52 0 76 -4 90 -17z m12 -179 c20 -20 20 -68 0 -88 -11 -12
-36 -16 -95 -16 l-79 0 0 60 0 60 79 0 c59 0 84 -4 95 -16z"/>
<path d="M602 475 c-43 -19 -62 -65 -62 -150 0 -120 41 -165 150 -165 67 0
114 23 134 65 22 45 21 45 -22 45 -29 0 -39 -5 -47 -22 -8 -18 -19 -24 -56
-26 -57 -4 -82 16 -77 62 3 31 3 31 66 32 167 4 152 0 152 40 0 52 -26 100
-65 118 -41 20 -129 20 -173 1z m140 -62 c10 -9 18 -24 18 -35 0 -16 -9 -18
-70 -18 -56 0 -70 3 -70 15 0 46 84 73 122 38z"/>
<path d="M1055 479 c-29 -17 -45 -40 -45 -66 0 -20 5 -23 38 -23 26 0 41 6 50
20 9 14 23 20 50 20 48 0 62 -14 62 -62 l0 -39 -30 16 c-37 19 -103 19 -140 0
-59 -31 -62 -124 -4 -161 38 -25 125 -25 153 0 19 17 21 17 21 3 0 -13 9 -17
40 -17 l40 0 0 126 c0 125 0 126 -29 155 -19 18 -40 29 -58 29 -15 0 -50 3
-78 5 -29 3 -58 1 -70 -6z m133 -185 c41 -29 24 -68 -36 -80 -38 -8 -82 17
-82 46 0 24 36 50 70 50 14 0 36 -7 48 -16z"/>
<path d="M3457 293 c-3 -5 -12 -34 -20 -65 l-15 -58 59 0 58 0 10 38 c27 101
30 92 -32 92 -31 0 -58 -3 -60 -7z"/>
</g>
</svg>
