<?xml version="1.0" standalone="no"?>
<!DOCTYPE svg PUBLIC "-//W3C//DTD SVG 20010904//EN"
 "http://www.w3.org/TR/2001/REC-SVG-20010904/DTD/svg10.dtd">
<svg version="1.0" xmlns="http://www.w3.org/2000/svg"
 width="1000.000000pt" height="400.000000pt" viewBox="0 0 1000.000000 400.000000"
 preserveAspectRatio="xMidYMid meet">

<g transform="translate(0.000000,400.000000) scale(0.100000,-0.100000)"
fill="#000000" stroke="none">
<path d="M2938 2676 c-53 -19 -82 -40 -115 -83 -24 -32 -28 -45 -28 -104 0
-60 3 -71 30 -105 18 -21 65 -56 110 -81 124 -67 149 -109 103 -168 -54 -69
-175 -72 -267 -6 l-28 20 -21 -29 -22 -29 34 -20 c129 -80 286 -65 377 36 46
51 63 100 57 171 -5 51 -9 60 -47 94 -24 20 -77 54 -118 75 -104 52 -128 93
-82 142 43 46 115 54 189 20 l44 -20 18 23 c16 22 16 24 0 36 -26 19 -111 42
-156 42 -23 -1 -58 -7 -78 -14z"/>
<path d="M3689 2675 c-59 -19 -123 -87 -139 -146 -25 -91 28 -165 170 -243 87
-48 109 -79 90 -127 -36 -86 -172 -103 -273 -35 l-36 25 -21 -26 c-11 -14 -17
-29 -14 -34 3 -5 29 -21 57 -36 61 -30 160 -41 224 -24 105 28 188 139 180
238 -5 74 -37 111 -144 166 -107 55 -126 74 -121 118 7 71 113 101 207 59 42
-19 44 -19 57 -3 22 29 16 40 -28 58 -59 24 -153 28 -209 10z"/>
<path d="M965 2668 c-3 -7 -25 -77 -50 -155 l-46 -142 -82 -3 c-81 -3 -82 -3
-85 -30 l-3 -28 75 0 c42 0 76 -1 76 -2 0 -2 -20 -65 -44 -141 -33 -103 -41
-139 -32 -143 7 -3 42 -4 77 -2 l64 3 46 140 45 140 122 3 c67 1 122 1 122 0
0 -2 -20 -65 -44 -140 -24 -76 -41 -140 -38 -143 3 -3 36 -5 73 -5 55 0 70 3
77 18 11 20 202 621 202 634 0 5 -34 8 -76 6 l-77 -3 -47 -150 -48 -150 -121
-3 c-67 -1 -121 1 -121 5 0 4 21 71 45 148 25 76 45 143 45 147 0 14 -150 9
-155 -4z"/>
<path d="M2040 2495 l-105 -185 -87 0 -86 0 -11 -30 -10 -30 79 0 79 0 -64
-110 c-68 -116 -69 -125 -9 -118 23 3 37 20 92 116 l65 112 97 0 97 0 12 -62
c7 -35 16 -87 22 -115 l10 -53 75 0 c64 0 74 2 74 18 0 9 -25 158 -57 330
l-57 312 -56 0 -55 -1 -105 -184z m111 -95 l16 -90 -75 0 -74 0 22 38 c12 20
36 61 52 90 17 28 33 52 37 52 4 0 14 -40 22 -90z"/>
<path d="M4436 2530 l-48 -150 -48 0 c-44 0 -49 -2 -58 -30 l-11 -29 48 -3 48
-3 -43 -135 c-24 -74 -44 -141 -44 -147 0 -10 48 -13 210 -13 197 0 210 1 220
19 25 47 18 50 -119 53 l-129 3 36 113 36 112 87 0 c70 0 88 3 93 16 15 40 9
44 -78 44 l-84 0 41 125 41 124 135 3 c128 3 134 4 142 26 l8 22 -218 0 -218
0 -47 -150z"/>
<path d="M5344 2666 c-26 -68 -200 -633 -197 -638 2 -5 87 -8 189 -8 l184 0
10 26 c6 14 10 27 10 30 0 2 -49 4 -110 4 -60 0 -110 3 -110 6 0 7 181 577
187 587 2 4 -32 7 -77 7 -61 0 -82 -4 -86 -14z"/>
<path d="M6102 2628 c-11 -29 -34 -97 -51 -150 l-33 -98 -54 0 c-30 0 -54 -3
-54 -7 0 -5 -3 -18 -6 -30 -6 -22 -3 -23 44 -23 l51 0 -49 -144 c-26 -80 -46
-147 -42 -150 9 -10 262 -6 337 4 128 19 220 82 246 171 11 37 11 46 -7 78
-12 22 -35 44 -61 57 l-43 22 31 12 c48 20 107 67 124 99 38 74 10 150 -68
187 -48 22 -65 24 -199 24 l-147 0 -19 -52z m282 -40 c24 -26 28 -37 23 -74
-5 -52 -36 -96 -81 -118 -37 -17 -136 -22 -136 -6 0 14 60 201 72 224 15 29
85 14 122 -26z m-60 -289 c36 -28 34 -72 -4 -133 -38 -59 -91 -85 -172 -86
-40 0 -58 4 -58 12 0 7 16 61 36 120 l36 108 67 0 c54 0 74 -4 95 -21z"/>
<path d="M7006 2368 c-55 -172 -101 -321 -104 -330 -4 -16 11 -17 186 -18
l190 0 11 30 10 30 -110 0 c-61 0 -109 4 -109 9 0 6 41 137 90 293 50 155 90
286 90 290 0 5 -35 8 -78 8 l-78 0 -98 -312z"/>
<path d="M7920 2495 l-105 -184 -86 -1 c-82 0 -86 -1 -97 -25 -7 -14 -12 -28
-12 -30 0 -3 36 -5 79 -5 l79 0 -64 -111 c-35 -60 -64 -112 -64 -115 0 -3 19
-4 41 -2 l41 3 66 113 65 112 97 0 97 0 12 -62 c7 -35 16 -87 22 -115 l10 -53
75 0 c52 0 74 4 74 13 1 6 -25 155 -57 330 l-58 317 -55 0 -55 -1 -105 -184z
m113 -102 l14 -83 -74 0 c-41 0 -72 3 -70 8 75 132 101 172 107 165 4 -4 14
-45 23 -90z"/>
<path d="M8815 2668 c-39 -111 -205 -629 -205 -638 0 -22 308 -7 391 19 130
41 221 119 277 238 22 48 27 72 27 138 0 89 -19 138 -72 186 -61 57 -86 64
-255 67 -125 3 -159 1 -163 -10z m265 -61 c14 -6 35 -32 48 -57 50 -95 9 -269
-88 -374 -60 -64 -113 -88 -193 -84 l-64 3 90 263 90 262 46 0 c25 0 57 -6 71
-13z"/>
<path d="M1827 1650 c-40 -12 -58 -29 -78 -75 -24 -52 -24 -129 1 -182 47
-105 175 -110 227 -9 12 24 13 30 1 37 -20 13 -26 11 -34 -13 -11 -40 -35 -58
-74 -58 -70 0 -110 82 -88 182 20 98 123 122 158 38 13 -32 17 -34 38 -21 12
7 11 14 -2 40 -28 54 -91 80 -149 61z"/>
<path d="M5047 1650 c-61 -19 -97 -80 -97 -165 0 -100 45 -164 122 -172 86 -8
148 64 148 174 0 117 -79 191 -173 163z m90 -50 c68 -63 46 -234 -32 -254 -60
-15 -115 49 -115 132 0 49 22 109 48 128 25 20 75 17 99 -6z"/>
<path d="M6533 1649 c-40 -12 -63 -43 -63 -87 0 -45 34 -76 101 -92 70 -16 99
-35 99 -64 0 -36 -30 -56 -84 -56 -40 0 -52 5 -76 30 -26 28 -60 40 -60 21 0
-16 42 -61 70 -76 36 -19 91 -19 135 -1 39 17 55 42 55 89 0 45 -33 74 -106
94 -79 20 -94 29 -94 57 0 56 91 78 134 31 23 -24 56 -34 56 -16 0 21 -44 61
-78 71 -43 11 -46 11 -89 -1z"/>
<path d="M2200 1479 c0 -157 1 -170 18 -167 14 3 18 16 20 76 l3 72 45 0 45 0
34 -75 c21 -47 40 -75 49 -75 23 0 20 19 -13 92 l-28 63 28 27 c23 20 29 34
29 64 -1 72 -36 94 -149 94 l-81 0 0 -171z m160 128 c17 -8 26 -22 28 -43 5
-47 -18 -64 -89 -64 l-59 0 0 60 0 60 48 0 c26 0 58 -6 72 -13z"/>
<path d="M2650 1480 l0 -170 105 0 c98 0 105 1 105 20 0 18 -7 20 -85 20 l-85
0 0 60 0 60 65 0 c58 0 65 2 65 20 0 18 -7 20 -65 20 l-65 0 0 55 0 55 85 0
c69 0 85 3 85 15 0 12 -18 15 -105 15 l-105 0 0 -170z"/>
<path d="M3101 1492 c-28 -88 -51 -165 -51 -171 0 -27 26 -2 41 40 l17 44 64
3 64 3 15 -48 c11 -37 20 -49 38 -51 20 -3 22 -1 15 20 -101 320 -98 313 -126
316 -26 3 -28 0 -77 -156z m114 -20 l7 -32 -45 0 c-24 0 -46 3 -49 6 -4 3 5
40 20 82 l25 76 18 -50 c9 -28 20 -65 24 -82z"/>
<path d="M3440 1630 c0 -17 7 -20 45 -20 l44 0 3 -147 c3 -131 5 -148 21 -151
16 -3 17 9 17 147 l0 151 50 0 c43 0 50 3 50 20 0 19 -7 20 -115 20 -108 0
-115 -1 -115 -20z"/>
<path d="M3862 1483 l3 -168 108 -3 c102 -3 107 -2 107 18 0 19 -6 20 -85 20
l-85 0 0 60 0 60 65 0 c58 0 65 2 65 20 0 18 -7 20 -65 20 l-65 0 0 55 0 55
85 0 c69 0 85 3 85 15 0 12 -19 15 -110 15 l-110 0 2 -167z"/>
<path d="M4550 1630 c0 -17 7 -20 45 -20 l44 0 3 -147 c3 -140 4 -148 23 -148
19 0 20 8 23 148 l3 147 44 0 c38 0 45 3 45 20 0 19 -7 20 -115 20 -108 0
-115 -1 -115 -20z"/>
<path d="M5732 1483 c3 -160 4 -168 23 -168 19 0 20 8 23 168 l2 167 -25 0
-25 0 2 -167z"/>
<path d="M6000 1479 c0 -157 1 -170 18 -167 15 3 18 20 22 142 l5 140 81 -140
c113 -193 118 -191 122 29 2 162 2 167 -18 167 -19 0 -20 -6 -20 -132 l0 -133
-78 132 c-69 119 -80 133 -104 133 l-28 0 0 -171z"/>
<path d="M6912 1483 c3 -160 4 -168 23 -168 18 0 20 8 23 68 l3 67 50 0 c87 0
129 34 129 105 0 27 -8 44 -29 66 -28 28 -34 29 -115 29 l-86 0 2 -167z m151
126 c28 -15 37 -28 37 -58 0 -42 -27 -61 -87 -61 l-53 0 0 65 0 65 41 0 c22 0
50 -5 62 -11z"/>
<path d="M7342 1483 c3 -151 5 -168 21 -171 16 -3 17 10 17 167 0 165 -1 171
-20 171 -20 0 -20 -5 -18 -167z"/>
<path d="M7610 1480 c0 -163 1 -170 20 -170 18 0 20 7 20 75 l0 75 48 0 48 0
30 -72 c23 -56 35 -74 52 -76 12 -2 22 -1 22 1 0 3 -14 37 -30 77 l-31 71 31
35 c34 39 37 61 15 105 -21 39 -50 49 -146 49 l-79 0 0 -170z m182 110 c18
-23 17 -51 -4 -77 -7 -8 -35 -13 -74 -13 l-64 0 0 53 c0 30 3 57 8 61 4 4 31
6 61 4 41 -4 59 -10 73 -28z"/>
<path d="M8060 1480 l0 -171 107 3 c93 3 108 5 111 21 3 15 -6 17 -87 17 l-91
0 0 60 0 59 67 3 c55 2 68 6 71 21 3 15 -5 17 -68 17 l-71 0 3 53 3 52 83 3
c64 2 82 6 82 17 0 12 -20 15 -105 15 l-105 0 0 -170z"/>
</g>
</svg>
