<?xml version="1.0" encoding="UTF-8"?>
<!DOCTYPE svg PUBLIC "-//W3C//DTD SVG 1.1//EN" "http://www.w3.org/Graphics/SVG/1.1/DTD/svg11.dtd">
<svg xmlns="http://www.w3.org/2000/svg" version="1.1" width="380px" height="230px" style="shape-rendering:geometricPrecision; text-rendering:geometricPrecision; image-rendering:optimizeQuality; fill-rule:evenodd; clip-rule:evenodd" xmlns:xlink="http://www.w3.org/1999/xlink">
<g><path style="opacity:1" fill="#fdfdfd" d="M -0.5,-0.5 C 126.167,-0.5 252.833,-0.5 379.5,-0.5C 379.5,76.1667 379.5,152.833 379.5,229.5C 252.833,229.5 126.167,229.5 -0.5,229.5C -0.5,152.833 -0.5,76.1667 -0.5,-0.5 Z"/></g>
<g><path style="opacity:1" fill="#0d0d0d" d="M 60.5,86.5 C 71.5432,84.9631 81.0432,87.9631 89,95.5C 93.7401,105.276 91.5734,113.109 82.5,119C 74.4202,122.775 66.0869,123.441 57.5,121C 44.9796,115.603 41.6462,106.77 47.5,94.5C 51.1389,90.5228 55.4722,87.8561 60.5,86.5 Z"/></g>
<g><path style="opacity:1" fill="#696969" d="M 128.5,88.5 C 123.968,88.1818 119.634,88.5151 115.5,89.5C 114.957,89.44 114.624,89.1067 114.5,88.5C 119.318,87.1876 123.985,87.1876 128.5,88.5 Z"/></g>
<g><path style="opacity:1" fill="#0f0f0f" d="M 291.5,113.5 C 291.5,112.833 291.5,112.167 291.5,111.5C 298.066,110.665 304.066,111.832 309.5,115C 312.23,115.728 314.897,115.562 317.5,114.5C 319.05,111.871 318.384,110.037 315.5,109C 308.577,108.303 301.911,106.636 295.5,104C 290.856,97.8848 291.856,92.8848 298.5,89C 308.308,85.4144 317.974,85.7478 327.5,90C 329.414,91.4133 330.747,93.2466 331.5,95.5C 327.205,96.6609 322.871,96.8275 318.5,96C 315.104,93.5452 311.437,93.0452 307.5,94.5C 306.167,95.8333 306.167,97.1667 307.5,98.5C 313.787,100.155 320.12,101.655 326.5,103C 334.21,106.24 335.543,111.24 330.5,118C 319.019,123.529 307.352,123.862 295.5,119C 294.335,117.008 293.002,115.175 291.5,113.5 Z"/></g>
<g><path style="opacity:1" fill="#010101" d="M 94.5,88.5 C 98.8333,88.5 103.167,88.5 107.5,88.5C 107.174,97.0168 107.507,105.35 108.5,113.5C 114.167,113.5 119.833,113.5 125.5,113.5C 125.5,115.833 125.5,118.167 125.5,120.5C 115.167,120.5 104.833,120.5 94.5,120.5C 94.5,109.833 94.5,99.1667 94.5,88.5 Z"/></g>
<g><path style="opacity:1" fill="#090909" d="M 142.5,109.5 C 141.518,112.962 141.185,116.629 141.5,120.5C 137.5,120.5 133.5,120.5 129.5,120.5C 129.815,116.629 129.482,112.962 128.5,109.5C 124.167,102.833 119.833,96.1667 115.5,89.5C 119.634,88.5151 123.968,88.1818 128.5,88.5C 130.587,92.3441 132.92,96.0107 135.5,99.5C 137.708,95.5834 140.041,91.75 142.5,88C 146.871,87.1725 151.205,87.3391 155.5,88.5C 150.894,95.3884 146.561,102.388 142.5,109.5 Z"/></g>
<g><path style="opacity:1" fill="#060606" d="M 171.5,88.5 C 174.188,94.8796 177.188,101.213 180.5,107.5C 183.351,101.094 186.351,94.7611 189.5,88.5C 193.833,88.5 198.167,88.5 202.5,88.5C 202.5,99.1667 202.5,109.833 202.5,120.5C 199.167,120.5 195.833,120.5 192.5,120.5C 192.829,114.794 192.495,109.128 191.5,103.5C 190.614,104.325 190.281,105.325 190.5,106.5C 189.869,108.934 188.869,111.268 187.5,113.5C 185.707,115.426 184.707,117.759 184.5,120.5C 181.721,120.721 179.054,120.388 176.5,119.5C 174.694,114.746 172.694,110.08 170.5,105.5C 170.217,104.711 169.717,104.044 169,103.5C 168.501,109.157 168.334,114.824 168.5,120.5C 165.167,120.5 161.833,120.5 158.5,120.5C 158.5,109.833 158.5,99.1667 158.5,88.5C 162.833,88.5 167.167,88.5 171.5,88.5 Z"/></g>
<g><path style="opacity:1" fill="#0b0b0b" d="M 221.5,108.5 C 220.517,112.298 220.183,116.298 220.5,120.5C 216.5,120.5 212.5,120.5 208.5,120.5C 208.5,109.5 208.5,98.5 208.5,87.5C 218.506,87.3335 228.506,87.5002 238.5,88C 248.846,92.4055 250.179,98.7389 242.5,107C 235.615,108.425 228.615,108.925 221.5,108.5 Z"/></g>
<g><path style="opacity:1" fill="#060606" d="M 263.5,88.5 C 263.062,96.9433 263.562,105.277 265,113.5C 267.153,115.444 269.653,115.944 272.5,115C 274.426,114.578 275.426,113.411 275.5,111.5C 276.167,111.5 276.5,111.167 276.5,110.5C 277.492,103.352 277.825,96.0191 277.5,88.5C 281.5,88.5 285.5,88.5 289.5,88.5C 289.5,96.8333 289.5,105.167 289.5,113.5C 288.019,116.478 285.686,118.644 282.5,120C 273.809,123.226 265.143,123.226 256.5,120C 253.614,118.615 251.614,116.449 250.5,113.5C 250.5,105.167 250.5,96.8333 250.5,88.5C 254.833,88.5 259.167,88.5 263.5,88.5 Z"/></g>
<g><path style="opacity:1" fill="#c9c9c9" d="M 291.5,111.5 C 291.5,112.167 291.5,112.833 291.5,113.5C 290.833,113.5 290.167,113.5 289.5,113.5C 289.5,105.167 289.5,96.8333 289.5,88.5C 285.366,87.5151 281.032,87.1818 276.5,87.5C 276.5,95.1667 276.5,102.833 276.5,110.5C 276.5,111.167 276.167,111.5 275.5,111.5C 275.5,103.167 275.5,94.8333 275.5,86.5C 280.5,86.5 285.5,86.5 290.5,86.5C 290.174,95.0168 290.507,103.35 291.5,111.5 Z"/></g>
<g><path style="opacity:1" fill="#f6f6f6" d="M 73.5,95.5 C 76.4982,100.493 77.1649,105.826 75.5,111.5C 70.4064,116.803 65.2397,116.803 60,111.5C 59.5172,110.552 59.3505,109.552 59.5,108.5C 59.3227,104.766 59.6561,101.099 60.5,97.5C 64.1572,92.9993 68.4905,92.3326 73.5,95.5 Z"/></g>
<g><path style="opacity:1" fill="#3e3e3e" d="M 189.5,88.5 C 193.97,87.5139 198.637,87.1805 203.5,87.5C 203.5,98.5 203.5,109.5 203.5,120.5C 203.167,120.5 202.833,120.5 202.5,120.5C 202.5,109.833 202.5,99.1667 202.5,88.5C 198.167,88.5 193.833,88.5 189.5,88.5 Z"/></g>
<g><path style="opacity:1" fill="#7c7c7c" d="M 263.5,88.5 C 259.167,88.5 254.833,88.5 250.5,88.5C 250.5,96.8333 250.5,105.167 250.5,113.5C 249.507,105.016 249.174,96.3494 249.5,87.5C 254.363,87.1805 259.03,87.5139 263.5,88.5 Z"/></g>
<g><path style="opacity:1" fill="#6b6b6b" d="M 94.5,88.5 C 98.97,87.5139 103.637,87.1805 108.5,87.5C 108.5,96.1667 108.5,104.833 108.5,113.5C 107.507,105.35 107.174,97.0168 107.5,88.5C 103.167,88.5 98.8333,88.5 94.5,88.5 Z"/></g>
<g><path style="opacity:1" fill="#505050" d="M 171.5,88.5 C 167.167,88.5 162.833,88.5 158.5,88.5C 158.5,99.1667 158.5,109.833 158.5,120.5C 161.833,120.5 165.167,120.5 168.5,120.5C 165.038,121.482 161.371,121.815 157.5,121.5C 157.5,110.167 157.5,98.8333 157.5,87.5C 162.363,87.1805 167.03,87.5139 171.5,88.5 Z"/></g>
<g><path style="opacity:1" fill="#f1f1f1" d="M 221.5,95.5 C 225.514,95.3345 229.514,95.5012 233.5,96C 234.86,97.9376 234.527,99.6043 232.5,101C 228.848,101.499 225.182,101.665 221.5,101.5C 221.5,99.5 221.5,97.5 221.5,95.5 Z"/></g>
<g><path style="opacity:1" fill="#353535" d="M 289.5,88.5 C 285.5,88.5 281.5,88.5 277.5,88.5C 277.825,96.0191 277.492,103.352 276.5,110.5C 276.5,102.833 276.5,95.1667 276.5,87.5C 281.032,87.1818 285.366,87.5151 289.5,88.5 Z"/></g>
<g><path style="opacity:1" fill="#929292" d="M 73.5,95.5 C 75.1733,96.343 76.34,97.6763 77,99.5C 77.6667,102.833 77.6667,106.167 77,109.5C 76.7216,110.416 76.2216,111.082 75.5,111.5C 77.1649,105.826 76.4982,100.493 73.5,95.5 Z"/></g>
<g><path style="opacity:1" fill="#969696" d="M 60.5,97.5 C 59.6561,101.099 59.3227,104.766 59.5,108.5C 58.3592,105.36 58.1925,102.027 59,98.5C 59.3826,97.944 59.8826,97.6107 60.5,97.5 Z"/></g>
<g><path style="opacity:1" fill="#969696" d="M 202.5,120.5 C 202.833,120.5 203.167,120.5 203.5,120.5C 199.702,121.483 195.702,121.817 191.5,121.5C 191.821,116.305 191.487,111.305 190.5,106.5C 190.281,105.325 190.614,104.325 191.5,103.5C 192.495,109.128 192.829,114.794 192.5,120.5C 195.833,120.5 199.167,120.5 202.5,120.5 Z"/></g>
<g><path style="opacity:1" fill="#7e7e7e" d="M 170.5,105.5 C 169.833,110.5 169.167,115.5 168.5,120.5C 168.334,114.824 168.501,109.157 169,103.5C 169.717,104.044 170.217,104.711 170.5,105.5 Z"/></g>
<g><path style="opacity:1" fill="#767676" d="M 128.5,109.5 C 129.482,112.962 129.815,116.629 129.5,120.5C 133.5,120.5 137.5,120.5 141.5,120.5C 141.185,116.629 141.518,112.962 142.5,109.5C 142.5,113.5 142.5,117.5 142.5,121.5C 137.833,121.5 133.167,121.5 128.5,121.5C 128.5,117.5 128.5,113.5 128.5,109.5 Z"/></g>
<g><path style="opacity:1" fill="#929292" d="M 187.5,113.5 C 187.895,118.423 185.728,121.09 181,121.5C 179.014,121.431 177.514,120.765 176.5,119.5C 179.054,120.388 181.721,120.721 184.5,120.5C 184.707,117.759 185.707,115.426 187.5,113.5 Z"/></g>
<g><path style="opacity:1" fill="#656565" d="M 221.5,108.5 C 221.5,112.833 221.5,117.167 221.5,121.5C 216.968,121.818 212.634,121.485 208.5,120.5C 212.5,120.5 216.5,120.5 220.5,120.5C 220.183,116.298 220.517,112.298 221.5,108.5 Z"/></g>
<g><path style="opacity:1" fill="#121212" d="M 334.5,137.5 C 310.659,137.654 286.992,138.321 263.5,139.5C 234.171,140.119 204.837,140.452 175.5,140.5C 131.503,139.633 87.5032,138.967 43.5,138.5C 43.5,137.5 43.5,136.5 43.5,135.5C 90.1705,134.728 136.837,133.728 183.5,132.5C 227.338,133.292 271.171,134.292 315,135.5C 321.869,135.503 328.369,136.17 334.5,137.5 Z"/></g>
<g><path style="opacity:1" fill="#acacac" d="M 334.5,137.5 C 331.359,138.321 328.025,138.821 324.5,139C 304.169,139.5 283.836,139.667 263.5,139.5C 286.992,138.321 310.659,137.654 334.5,137.5 Z"/></g>
<g><path style="opacity:1" fill="#bababa" d="M 263.5,139.5 C 234.18,141.488 204.847,141.822 175.5,140.5C 204.837,140.452 234.171,140.119 263.5,139.5 Z"/></g>
</svg>
