<?xml version="1.0" standalone="no"?>
<!DOCTYPE svg PUBLIC "-//W3C//DTD SVG 20010904//EN"
 "http://www.w3.org/TR/2001/REC-SVG-20010904/DTD/svg10.dtd">
<svg version="1.0" xmlns="http://www.w3.org/2000/svg"
 width="900.000000pt" height="184.000000pt" viewBox="0 0 900.000000 184.000000"
 preserveAspectRatio="xMidYMid meet">

<g transform="translate(0.000000,184.000000) scale(0.100000,-0.100000)"
fill="#000000" stroke="none">
<path d="M7390 1465 l0 -125 175 0 175 0 0 125 0 125 -175 0 -175 0 0 -125z"/>
<path d="M250 931 l0 -651 194 0 194 0 -2 194 -1 193 180 6 c197 6 263 18 344
62 89 49 163 154 191 274 16 68 8 230 -14 291 -42 116 -143 211 -265 252 -62
21 -88 22 -443 26 l-378 3 0 -650z m660 307 c61 -26 85 -62 85 -123 0 -46 -4
-58 -29 -84 -41 -43 -79 -52 -208 -54 l-113 -1 -3 144 -3 143 118 -5 c72 -3
132 -11 153 -20z"/>
<path d="M1780 1253 c-73 -5 -158 -23 -205 -43 -84 -36 -158 -125 -179 -215
-4 -16 -9 -38 -12 -47 -5 -17 7 -18 158 -18 l164 0 13 35 c16 45 55 65 123 65
98 0 141 -49 105 -119 -15 -30 -36 -36 -200 -61 -70 -10 -156 -28 -192 -40
-81 -27 -154 -90 -191 -166 -23 -46 -26 -64 -21 -113 9 -103 66 -199 142 -238
134 -70 325 -52 452 43 17 13 34 24 36 24 2 0 7 -18 11 -40 l6 -40 170 0 c94
0 170 3 170 8 0 4 -8 30 -17 57 -14 41 -17 101 -19 343 -1 161 -5 309 -9 329
-10 56 -39 105 -85 147 -88 79 -207 104 -420 89z m180 -631 c0 -63 -3 -72 -32
-106 -60 -68 -188 -74 -217 -10 -15 33 -13 75 3 97 13 17 192 85 229 86 15 1
17 -9 17 -67z"/>
<path d="M3772 1249 c-196 -25 -304 -113 -341 -278 l-9 -41 164 0 164 0 6 25
c3 14 20 37 37 51 28 23 38 26 94 22 72 -5 113 -33 113 -79 0 -60 -42 -80
-217 -105 -204 -28 -291 -67 -358 -163 -29 -41 -30 -47 -30 -144 0 -112 15
-155 72 -209 57 -55 117 -73 238 -72 122 0 173 14 258 73 l46 31 7 -45 6 -45
179 0 c99 0 179 2 179 4 0 2 -7 23 -17 47 -13 36 -17 103 -23 369 -8 356 -11
381 -71 453 -17 20 -50 48 -74 62 -80 48 -256 66 -423 44z m228 -621 c0 -103
-57 -168 -148 -168 -37 0 -50 6 -78 34 -69 69 -36 120 106 164 52 17 101 31
108 31 8 1 12 -18 12 -61z"/>
<path d="M5745 1250 c-130 -18 -262 -93 -323 -185 -135 -203 -113 -509 49
-680 94 -99 214 -141 379 -132 295 17 460 195 460 497 0 161 -44 283 -135 375
-101 100 -262 147 -430 125z m165 -279 c14 -10 35 -42 48 -72 19 -47 22 -68
19 -159 -2 -85 -7 -113 -25 -148 -40 -75 -114 -101 -188 -66 -98 47 -127 312
-45 416 46 58 133 71 191 29z"/>
<path d="M2903 1240 c-55 -12 -96 -33 -144 -77 l-39 -35 0 51 0 51 -170 0
-170 0 0 -473 c0 -261 2 -476 4 -478 2 -2 83 -3 180 -1 l176 3 1 287 c0 195 4
298 12 322 22 62 114 92 184 58 45 -21 51 -69 52 -385 l1 -283 176 0 176 0 -4
368 c-4 345 -6 370 -25 420 -31 77 -66 117 -128 148 -46 22 -72 27 -148 30
-51 2 -111 -1 -134 -6z"/>
<path d="M4658 1234 c-160 -38 -258 -146 -258 -283 0 -71 18 -119 62 -167 51
-56 121 -88 255 -119 176 -41 224 -57 240 -82 36 -55 -15 -108 -107 -108 -70
0 -107 22 -128 76 l-15 39 -164 0 -163 0 0 -30 c0 -40 33 -123 65 -166 33 -43
109 -88 200 -117 58 -18 93 -22 200 -22 139 0 210 13 286 51 112 56 160 130
167 261 4 74 2 88 -22 137 -46 95 -103 125 -347 187 -200 50 -233 76 -174 134
35 36 121 36 164 0 16 -14 33 -35 36 -45 6 -19 16 -20 166 -20 180 0 173 -4
143 83 -17 52 -87 123 -152 156 -23 12 -70 28 -104 36 -79 19 -273 18 -350 -1z"/>
<path d="M6868 1236 c-52 -14 -124 -59 -139 -88 -9 -18 -30 -26 -28 -10 1 4 1
26 0 50 l-1 42 -165 0 -165 0 0 -475 0 -475 173 0 174 0 2 273 c2 283 8 337
44 375 54 58 173 46 196 -20 7 -20 11 -142 11 -329 l0 -299 176 0 175 0 -3
373 -3 372 -33 68 c-39 78 -86 118 -165 142 -61 18 -184 18 -249 1z"/>
<path d="M8195 1244 c-111 -17 -198 -57 -267 -122 -57 -53 -88 -103 -120 -188
-30 -81 -32 -282 -4 -364 37 -110 106 -194 206 -253 129 -75 370 -78 512 -6
54 28 134 103 165 157 23 38 63 149 63 173 0 5 -74 9 -170 9 -170 0 -170 0
-170 -22 0 -62 -69 -118 -146 -118 -48 0 -107 57 -125 120 -20 72 -17 228 7
275 29 60 77 88 142 83 60 -5 95 -31 114 -85 l12 -33 163 0 c186 0 176 -7 142
92 -50 149 -121 218 -269 262 -56 17 -201 28 -255 20z"/>
<path d="M7563 1233 l-173 -3 0 -480 0 -480 175 0 175 0 0 485 c0 267 -1 484
-2 483 -2 -1 -81 -4 -175 -5z"/>
</g>
</svg>
