<?xml version="1.0" encoding="UTF-8"?>
<svg version="1.1" xmlns="http://www.w3.org/2000/svg" width="866" height="650">
<path d="M0 0 C285.78 0 571.56 0 866 0 C866 214.5 866 429 866 650 C580.22 650 294.44 650 0 650 C0 435.5 0 221 0 0 Z " fill="#FEFEFE" transform="translate(0,0)"/>
<path d="M0 0 C13.055625 -0.103125 26.11125 -0.20625 39.5625 -0.3125 C45.70081421 -0.38078003 45.70081421 -0.38078003 51.96313477 -0.45043945 C57.0369873 -0.47302246 57.0369873 -0.47302246 59.42710876 -0.47721863 C61.06401914 -0.48479764 62.70090515 -0.50217256 64.33763123 -0.52787781 C80.74803488 -0.77227782 96.49935804 1.85084396 108.8671875 13.8046875 C120.15482788 27.33862448 119.03755843 48.47357067 118 65 C116.52906666 76.6516988 112.42155785 88.57844215 104 97 C95.68068824 103.39947059 87.06857848 105.47226859 76.71484375 105.29296875 C75.77314835 105.28872391 74.83145294 105.28447906 73.86122131 105.28010559 C70.88634282 105.26346216 67.91216986 105.22583772 64.9375 105.1875 C62.9069109 105.1724346 60.87631107 105.15874946 58.84570312 105.14648438 C53.8966523 105.11617169 48.94910543 105.05742409 44 105 C44 116.22 44 127.44 44 139 C29.48 139 14.96 139 0 139 C0 93.13 0 47.26 0 0 Z " fill="#EE1109" transform="translate(67,255)"/>
<path d="M0 0 C13.2 0 26.4 0 40 0 C44.39524647 8.79049295 48.57371687 17.39217076 52.3125 26.4375 C53.25943059 28.70223547 54.20736854 30.96654997 55.15625 33.23046875 C55.62804687 34.35759277 56.09984375 35.4847168 56.5859375 36.64599609 C59.16267625 42.7577428 61.8197188 48.83430359 64.47583008 54.91186523 C67.68597387 62.26026265 70.84081726 69.6285736 74 77 C74 51.59 74 26.18 74 0 C86.54 0 99.08 0 112 0 C112 45.87 112 91.74 112 139 C98.8 139 85.6 139 72 139 C65.24716553 125.49433107 65.24716553 125.49433107 62.58984375 119.62890625 C62.29622452 118.98219467 62.00260529 118.33548309 61.7000885 117.66917419 C60.7770789 115.63458085 59.85727158 113.59855878 58.9375 111.5625 C58.35240975 110.27269743 57.7671233 108.98298385 57.18164062 107.69335938 C50.74210711 93.48268149 44.38198148 79.23672791 38 65 C38 89.42 38 113.84 38 139 C25.46 139 12.92 139 0 139 C0 93.13 0 47.26 0 0 Z " fill="#EC130B" transform="translate(309,255)"/>
<path d="M0 0 C15.18 0 30.36 0 46 0 C56.29452055 19.44520548 56.29452055 19.44520548 59.5 26.5 C61.29659429 31.061268 61.29659429 31.061268 64 35 C64.33733154 34.29504395 64.67466309 33.59008789 65.0222168 32.86376953 C66.57642311 29.61708704 68.13195357 26.37104061 69.6875 23.125 C70.21794922 22.01640625 70.74839844 20.9078125 71.29492188 19.765625 C71.82021484 18.66992188 72.34550781 17.57421875 72.88671875 16.4453125 C73.60154419 14.95281982 73.60154419 14.95281982 74.33081055 13.43017578 C76.51788114 8.9357569 78.76468889 4.47062222 81 0 C96.18 0 111.36 0 127 0 C123.24509943 7.50980113 119.54826328 14.69460897 115.1875 21.8125 C114.13277869 23.55206283 113.07809147 25.29164634 112.0234375 27.03125 C111.51006836 27.87429688 110.99669922 28.71734375 110.46777344 29.5859375 C108.40070867 32.98566079 106.35601015 36.39858767 104.3125 39.8125 C103.59907824 41.00137405 102.88553738 42.19017663 102.171875 43.37890625 C100.61776909 45.96884513 99.0661778 48.56027622 97.515625 51.15234375 C96.90013794 52.18041138 96.90013794 52.18041138 96.2722168 53.22924805 C95.48661372 54.54154607 94.70158676 55.85418922 93.91723633 57.16723633 C92.32916091 59.8188619 90.71495194 62.42757209 89 65 C89.33997248 68.56953151 90.43744588 71.13183522 92.30078125 74.16015625 C92.77676758 74.94269775 93.25275391 75.72523926 93.74316406 76.53149414 C94.26104492 77.36672607 94.77892578 78.20195801 95.3125 79.0625 C96.41812713 80.87490339 97.52359161 82.68740602 98.62890625 84.5 C99.19367676 85.42039062 99.75844727 86.34078125 100.34033203 87.2890625 C102.83566408 91.36499176 105.29415426 95.46269657 107.75 99.5625 C108.2251001 100.35519287 108.7002002 101.14788574 109.18969727 101.96459961 C110.21287687 103.67256738 111.2355597 105.38083283 112.2578125 107.08935547 C113.53269925 109.21928818 114.80880206 111.3484675 116.0859375 113.47705078 C117.94444736 116.5756371 119.79792369 119.67719221 121.64855957 122.78048706 C122.38034027 124.00595413 123.11364791 125.23051075 123.84851074 126.45413208 C124.8770763 128.1674811 125.89961226 129.88444548 126.921875 131.6015625 C127.81277832 133.09163818 127.81277832 133.09163818 128.72167969 134.61181641 C130 137 130 137 130 139 C114.82 139 99.64 139 84 139 C77.33333333 125.66666667 70.66666667 112.33333333 64 99 C60.88901519 102.73490293 58.9057793 106.9345763 56.76953125 111.265625 C56.41870483 111.96929199 56.06787842 112.67295898 55.7064209 113.39794922 C54.40404876 116.0131136 53.10868501 118.6317635 51.8125 121.25 C48.904375 127.1075 45.99625 132.965 43 139 C27.82 139 12.64 139 -3 139 C-1.71356646 135.78391616 -0.65215196 133.21020276 1.06640625 130.3203125 C1.46456543 129.64701904 1.86272461 128.97372559 2.27294922 128.2800293 C2.69850098 127.56886963 3.12405273 126.85770996 3.5625 126.125 C4.00867676 125.37323486 4.45485352 124.62146973 4.91455078 123.84692383 C6.27228388 121.56215192 7.63526876 119.28059738 9 117 C9.3810791 116.3620752 9.7621582 115.72415039 10.15478516 115.06689453 C12.34435714 111.40313573 14.54323416 107.74504258 16.74462891 104.08837891 C18.14904894 101.75204889 19.5493757 99.41329389 20.94921875 97.07421875 C21.460896 96.22013428 21.97257324 95.3660498 22.49975586 94.48608398 C23.5350505 92.75627986 24.5684422 91.02533528 25.59985352 89.29321289 C27.86462403 85.50101345 30.14625949 81.73463349 32.578125 78.046875 C32.95960693 77.4605127 33.34108887 76.87415039 33.73413086 76.27001953 C34.73267933 74.74676403 35.75031183 73.23606511 36.76953125 71.7265625 C38.39412354 68.12667229 38.20962404 66.76931536 37 63 C35.34410916 59.68044235 33.43765799 56.53650224 31.5 53.375 C30.93265137 52.43221191 30.36530273 51.48942383 29.78076172 50.51806641 C27.8639457 47.33914507 25.93259785 44.16934913 24 41 C22.53267177 38.58405034 21.06717983 36.16698786 19.6015625 33.75 C17.40578282 30.12949186 15.20852906 26.50993693 13.00195312 22.89599609 C0 1.57489205 0 1.57489205 0 0 Z " fill="#ED120A" transform="translate(668,255)"/>
<path d="M0 0 C12.21 0 24.42 0 37 0 C38.81012945 4.82701186 40.55340692 9.55588491 42.12109375 14.44921875 C42.68860352 16.21749023 42.68860352 16.21749023 43.26757812 18.02148438 C43.84668945 19.83616211 43.84668945 19.83616211 44.4375 21.6875 C44.81970703 22.87794922 45.20191406 24.06839844 45.59570312 25.29492188 C47.81487102 32.22369906 49.98680982 39.1654814 52.11791992 46.12182617 C53.21133886 49.68958589 54.32249501 53.25142871 55.4375 56.8125 C55.80746094 57.99457031 56.17742187 59.17664063 56.55859375 60.39453125 C56.77314209 61.07942627 56.98769043 61.76432129 57.20874023 62.4699707 C57.82144169 64.42906517 58.43263717 66.38863066 59.04321289 68.34838867 C62.79114362 80.37325173 66.60319379 92.37754122 70.41870117 104.38110352 C72.04544186 109.4997714 73.66774606 114.61980231 75.28448486 119.74163818 C75.94832239 121.8368913 76.61945002 123.92965854 77.29248047 126.02197266 C77.84186279 127.75326416 77.84186279 127.75326416 78.40234375 129.51953125 C78.71550537 130.49639893 79.02866699 131.4732666 79.35131836 132.47973633 C80 135 80 135 80 139 C68.78 139 57.56 139 46 139 C41 123 41 123 41 120 C26.15 120 11.3 120 -4 120 C-4.33 122.31 -4.66 124.62 -5 127 C-5.99 130.96 -6.98 134.92 -8 139 C-19.55 139 -31.1 139 -43 139 C-38.77863128 122.11452514 -38.77863128 122.11452514 -36.125 115.2109375 C-34.59350742 110.83980242 -33.37001443 106.39737226 -32.125 101.9375 C-30.29994947 95.41921742 -28.38438662 88.96517883 -26.1875 82.5625 C-23.40494277 74.44031463 -20.94262735 66.22927371 -18.5 58 C-15.87912299 49.17908544 -13.21740724 40.38442325 -10.25146484 31.67236328 C-6.67654017 21.1668181 -3.36933473 10.57274001 0 0 Z " fill="#ED120A" transform="translate(581,255)"/>
<path d="M0 0 C32.01 0 64.02 0 97 0 C97 8.91 97 17.82 97 27 C78.52 27 60.04 27 41 27 C41 35.91 41 44.82 41 54 C55.85 54 70.7 54 86 54 C86 63.57 86 73.14 86 83 C71.48 83 56.96 83 42 83 C42 92.24 42 101.48 42 111 C61.14 111 80.28 111 100 111 C100 120.24 100 129.48 100 139 C67 139 34 139 0 139 C0 93.13 0 47.26 0 0 Z " fill="#EC140C" transform="translate(196,255)"/>
<path d="M0 0 C40.92 0 81.84 0 124 0 C124 9.24 124 18.48 124 28 C110.47 28 96.94 28 83 28 C83 64.63 83 101.26 83 139 C69.14 139 55.28 139 41 139 C41 102.37 41 65.74 41 28 C27.47 28 13.94 28 0 28 C0 18.76 0 9.52 0 0 Z " fill="#ED120A" transform="translate(430,255)"/>
<path d="M0 0 C7.92 0 15.84 0 24 0 C31.46627811 7.46627811 32.26962281 13.8399493 32.3125 24.0625 C32.20814816 33.24452207 31.89272103 42.10727897 25 49 C23.14630389 49.08737645 21.28932459 49.10698153 19.43359375 49.09765625 C18.42095459 49.09515869 17.40831543 49.09266113 16.36499023 49.09008789 C15.06891846 49.08098389 13.77284668 49.07187988 12.4375 49.0625 C8.333125 49.041875 4.22875 49.02125 0 49 C0 32.83 0 16.66 0 0 Z " fill="#FDFBFA" transform="translate(111,283)"/>
<path d="M0 0 C2.86567267 2.86567267 3.30963385 6.29714476 4.27734375 10.12109375 C4.48935928 10.93562515 4.70137482 11.75015656 4.91981506 12.58937073 C5.59886691 15.20378353 6.26839928 17.82052463 6.9375 20.4375 C7.60361766 23.01577853 8.27165205 25.59355507 8.93984985 28.17129517 C9.37106464 29.83798819 9.80058635 31.50512022 10.22836304 33.17269897 C11.5726881 38.40580102 12.98816484 43.61179542 14.52172852 48.79321289 C15 51 15 51 15 56 C5.43 56 -4.14 56 -14 56 C-12.87462262 46.996981 -12.87462262 46.996981 -11.765625 42.8203125 C-11.52360352 41.89992188 -11.28158203 40.97953125 -11.03222656 40.03125 C-10.7740918 39.0721875 -10.51595703 38.113125 -10.25 37.125 C-9.98413086 36.12210937 -9.71826172 35.11921875 -9.44433594 34.0859375 C-6.41141463 22.69169679 -3.246987 11.33493644 0 0 Z " fill="#FDFBFA" transform="translate(599,293)"/>
<path d="M0 0 C40.92 0 81.84 0 124 0 C124 9.24 124 18.48 124 28 C110.47 28 96.94 28 83 28 C83 64.63 83 101.26 83 139 C69.14 139 55.28 139 41 139 C41 103.03 41 67.06 41 30 C41.33 30 41.66 30 42 30 C42 65.64 42 101.28 42 138 C55.2 138 68.4 138 82 138 C81.96447021 134.64271729 81.92894043 131.28543457 81.89233398 127.82641602 C81.77597531 116.76232319 81.66513085 105.69818014 81.5570364 94.63400364 C81.49136366 87.92255655 81.42379472 81.21113843 81.35180664 74.49975586 C81.28240384 68.02890552 81.21822591 61.55801584 81.15730476 55.08708 C81.13313704 52.61219449 81.10718675 50.13732576 81.07946587 47.66247749 C81.04108479 44.20933789 81.00891164 40.75619422 80.97827148 37.30297852 C80.96532547 36.26864182 80.95237946 35.23430511 80.93904114 34.16862488 C80.9284819 32.76560623 80.9284819 32.76560623 80.91770935 31.33424377 C80.90941321 30.5166134 80.90111708 29.69898302 80.89256954 28.85657597 C81 27 81 27 82 26 C85.02977804 25.91128727 88.03667022 25.8848065 91.06640625 25.90234375 C91.97502914 25.9037587 92.88365204 25.90517365 93.81980896 25.90663147 C96.73407221 25.91224807 99.64825981 25.92480335 102.5625 25.9375 C104.53320202 25.94251286 106.50390524 25.94707614 108.47460938 25.95117188 C113.31645914 25.96137383 118.15814447 25.98094591 123 26 C123 17.75 123 9.5 123 1 C82.74 1 42.48 1 1 1 C1 9.25 1 17.5 1 26 C14.53 26 28.06 26 42 26 C41.67 26.66 41.34 27.32 41 28 C27.47 28 13.94 28 0 28 C0 18.76 0 9.52 0 0 Z " fill="#C42C2A" transform="translate(430,255)"/>
<path d="M0 0 C19.8309375 -0.061875 19.8309375 -0.061875 40.0625 -0.125 C44.2275415 -0.14320801 48.39258301 -0.16141602 52.68383789 -0.18017578 C57.79382324 -0.18920898 57.79382324 -0.18920898 60.19065857 -0.19088745 C61.85452852 -0.19394633 63.5183942 -0.2009549 65.18223572 -0.21115112 C67.71149323 -0.22586773 70.24048124 -0.22780941 72.76977539 -0.22705078 C73.50342599 -0.234247 74.23707659 -0.24144321 74.99295902 -0.2488575 C79.73010209 -0.22993676 83.54957603 0.53052876 88 2 C88 2.33 88 2.66 88 3 C59.62 2.67 31.24 2.34 2 2 C2 46.88 2 91.76 2 138 C15.2 138 28.4 138 42 138 C41.96042883 127.55881204 41.96042883 127.55881204 41.90991211 117.11767578 C41.90741455 115.8232959 41.90491699 114.52891602 41.90234375 113.1953125 C41.89722778 112.51460693 41.89211182 111.83390137 41.88684082 111.13256836 C41.8859282 106.2281436 41.8859282 106.2281436 43 104 C56.86 104 70.72 104 85 104 C85 103.34 85 102.68 85 102 C87.64 102 90.28 102 93 102 C89.39251508 104.40498994 86.94781515 105.12594667 82.7121582 105.11352539 C81.85149246 105.11344986 80.99082672 105.11337433 80.1040802 105.11329651 C79.17899155 105.10813522 78.25390289 105.10297394 77.30078125 105.09765625 C76.35059616 105.0962413 75.40041107 105.09482635 74.4214325 105.09336853 C71.38508971 105.08776875 68.34882052 105.07521632 65.3125 105.0625 C63.25455836 105.05748497 61.19661556 105.05292207 59.13867188 105.04882812 C54.09239671 105.03865008 49.0462808 105.01907456 44 105 C44 116.22 44 127.44 44 139 C29.48 139 14.96 139 0 139 C0 93.13 0 47.26 0 0 Z " fill="#CE2C2B" transform="translate(67,255)"/>
<path d="M0 0 C3.875 0.875 3.875 0.875 5 2 C7.92117732 2.12529188 10.81985241 2.18610672 13.74243164 2.20532227 C14.6594133 2.21522186 15.57639496 2.22512146 16.52116394 2.23532104 C19.56746799 2.26703649 22.61378767 2.29173299 25.66015625 2.31640625 C27.76623451 2.33696712 29.87230856 2.35796334 31.9783783 2.37937927 C37.53338218 2.43468957 43.08842385 2.4840592 48.64349365 2.53222656 C54.30728536 2.58237635 59.97102191 2.63809638 65.63476562 2.69335938 C76.75646513 2.80105047 87.87821126 2.90195651 99 3 C99 12.9 99 22.8 99 33 C80.52 33 62.04 33 43 33 C43 41.25 43 49.5 43 58 C57.52 58 72.04 58 87 58 C87 58.33 87 58.66 87 59 C72.15 59 57.3 59 42 59 C42 50.09 42 41.18 42 32 C60.48 32 78.96 32 98 32 C98 23.09 98 14.18 98 5 C65.99 5 33.98 5 1 5 C1 50.87 1 96.74 1 144 C0.67 144 0.34 144 0 144 C-0.00423194 143.29062853 -0.00846388 142.58125706 -0.01282406 141.85038948 C-0.11602344 124.60846361 -0.22464499 107.3665805 -0.33933926 90.12472725 C-0.39467254 81.78677916 -0.4481547 73.4488268 -0.49731445 65.11083984 C-0.54015501 57.84544143 -0.58643267 50.58007454 -0.63687855 43.3147248 C-0.66348053 39.46599241 -0.68833363 35.61726628 -0.70907402 31.76849747 C-0.72863404 28.14883199 -0.75277588 24.52922651 -0.78049088 20.90961456 C-0.79434739 18.94193034 -0.80329294 16.97421347 -0.81211853 15.00650024 C-0.82190735 13.84259766 -0.83169617 12.67869507 -0.84178162 11.47952271 C-0.84823417 10.46370684 -0.85468672 9.44789097 -0.8613348 8.4012928 C-0.84220493 5.98650175 -0.84220493 5.98650175 -2 4 C-1.34 4 -0.68 4 0 4 C0 2.68 0 1.36 0 0 Z " fill="#FBBFB9" transform="translate(195,250)"/>
<path d="M0 0 C6.49863416 0.73316409 12.94894147 0.62985973 19.48046875 0.55859375 C21.86193306 0.53302784 24.24345168 0.51201496 26.625 0.49609375 C27.6663208 0.48449219 28.7076416 0.47289062 29.78051758 0.4609375 C32.52751307 0.55384341 34.99658364 0.93415402 37.66796875 1.55859375 C37.95671875 2.65171875 38.24546875 3.74484375 38.54296875 4.87109375 C39.48690079 8.5987322 39.48690079 8.5987322 41.66796875 11.55859375 C41.00796875 12.87859375 40.34796875 14.19859375 39.66796875 15.55859375 C38.01796875 11.92859375 36.36796875 8.29859375 34.66796875 4.55859375 C14.86796875 4.06359375 14.86796875 4.06359375 -5.33203125 3.55859375 C-5.33203125 49.42859375 -5.33203125 95.29859375 -5.33203125 142.55859375 C-5.99203125 142.55859375 -6.65203125 142.55859375 -7.33203125 142.55859375 C-7.33837916 141.49591923 -7.33837916 141.49591923 -7.34485531 140.41177654 C-7.44808899 123.18619051 -7.55671579 105.96064698 -7.67137051 88.73513317 C-7.72668577 80.40506078 -7.78016499 72.0749841 -7.8293457 63.74487305 C-7.87220831 56.48569114 -7.91849158 49.22654056 -7.9689098 41.96740705 C-7.99549399 38.12255515 -8.02034666 34.2777094 -8.04110527 30.43282127 C-8.06068861 26.81561527 -8.08483749 23.19846879 -8.11252213 19.58131599 C-8.12635495 17.61740247 -8.13531635 15.65345654 -8.14414978 13.68951416 C-8.1539386 12.52423691 -8.16372742 11.35895966 -8.17381287 10.15837097 C-8.18026542 9.1434769 -8.18671797 8.12858282 -8.19336605 7.08293438 C-8.22769397 4.43207587 -8.22769397 4.43207587 -9.33203125 1.55859375 C-6.01549337 -0.32077772 -3.66422115 -0.49520662 0 0 Z " fill="#FEECEC" transform="translate(314.33203125,251.44140625)"/>
<path d="M0 0 C13.53 0 27.06 0 41 0 C41 0.99 41 1.98 41 3 C22.19 2.505 22.19 2.505 3 2 C3 38.63 3 75.26 3 113 C1.02 113.495 1.02 113.495 -1 114 C-1 113.34 -1 112.68 -1 112 C-14.53 112 -28.06 112 -42 112 C-42 111.67 -42 111.34 -42 111 C-28.14 111 -14.28 111 0 111 C0 74.37 0 37.74 0 0 Z " fill="#FEEDEA" transform="translate(513,283)"/>
<path d="M0 0 C0.33 0.66 0.66 1.32 1 2 C1.99 2 2.98 2 4 2 C4.33 1.34 4.66 0.68 5 0 C5.92876701 0.10277504 5.92876701 0.10277504 6.876297 0.20762634 C14.94153622 1.0275098 22.9729396 1.21613526 31.07421875 1.31640625 C32.49339829 1.33703236 33.91257248 1.35803006 35.33174133 1.37937927 C39.02887575 1.43401697 42.72606009 1.48367794 46.42327881 1.53222656 C50.21126638 1.58287329 53.99918336 1.63833169 57.78710938 1.69335938 C65.19134611 1.80022539 72.59564241 1.90182263 80 2 C80.495 2.99 80.495 2.99 81 4 C55.26 4 29.52 4 3 4 C3 49.87 3 95.74 3 143 C2.67 143 2.34 143 2 143 C1.98969254 141.75418655 1.97938507 140.50837311 1.96876526 139.22480774 C1.86965921 127.30150567 1.76683682 115.37824023 1.66066074 103.45499897 C1.60622776 97.3297947 1.55296481 91.20458559 1.50268555 85.0793457 C1.26892233 56.70970608 0.93297095 28.35623551 0 0 Z " fill="#FEEBE7" transform="translate(64,251)"/>
<path d="M0 0 C0.33 0 0.66 0 1 0 C1.20054314 18.20176621 1.38386292 36.40362006 1.54658794 54.60576344 C1.62254435 63.05702349 1.70417087 71.50815822 1.79907227 79.95922852 C1.88175827 87.32377913 1.95388063 94.68834378 2.01323253 102.05312079 C2.04504055 105.95400696 2.08219555 109.8546792 2.13199425 113.75538063 C2.17867674 117.42505119 2.21125915 121.09457393 2.2329216 124.76447487 C2.24838568 126.75714035 2.27889626 128.74967113 2.30979919 130.74215698 C2.31408936 131.92426254 2.31837952 133.1063681 2.32279968 134.32429504 C2.33293941 135.35393781 2.34307913 136.38358057 2.35352612 137.44442463 C2 140 2 140 0.59728241 141.83455658 C-1.43037917 143.31402248 -2.5201928 143.33526145 -5.01245117 143.2487793 C-5.81305466 143.22853195 -6.61365814 143.20828461 -7.43852234 143.18742371 C-8.29798965 143.15006607 -9.15745697 143.11270844 -10.04296875 143.07421875 C-10.9265657 143.04777786 -11.81016266 143.02133698 -12.72053528 142.99409485 C-15.54354198 142.90630236 -18.36526649 142.7971642 -21.1875 142.6875 C-23.10086547 142.62424424 -25.01427742 142.56237808 -26.92773438 142.50195312 C-31.61918118 142.35075675 -36.30958952 142.18041256 -41 142 C-41 141.67 -41 141.34 -41 141 C-27.8 141 -14.6 141 -1 141 C-1.00523682 136.79975098 -1.01047363 132.59950195 -1.01586914 128.27197266 C-1.03240649 114.42584273 -1.04352266 100.57971296 -1.05181217 86.73357582 C-1.05697364 78.33507408 -1.06401352 69.93658168 -1.07543945 61.53808594 C-1.08539083 54.21997648 -1.09185451 46.90187379 -1.09408849 39.58375776 C-1.09539483 35.70706112 -1.09847582 31.83038384 -1.10573006 27.95369339 C-1.11249741 24.30779369 -1.11461549 20.66192139 -1.11310768 17.01601601 C-1.11351568 15.03399431 -1.11890717 13.05197562 -1.12442017 11.06996155 C-1.1230455 9.89764481 -1.12167084 8.72532806 -1.12025452 7.51748657 C-1.12117631 6.49429636 -1.1220981 5.47110615 -1.12304783 4.41691017 C-1 2 -1 2 0 0 Z " fill="#FEDFD8" transform="translate(422,253)"/>
<path d="M0 0 C12.54 0 25.08 0 38 0 C38 45.87 38 91.74 38 139 C24.8 139 11.6 139 -2 139 C-8 127 -8 127 -8 124 C-7.01 124 -6.02 124 -5 124 C-4.71125 125.2375 -4.4225 126.475 -4.125 127.75 C-3.38067786 130.71156344 -2.66241951 133.40246951 -1 136 C10.34509194 141.67254597 24.32069237 137.64779701 37 138 C37 92.79 37 47.58 37 1 C25.12 1 13.24 1 1 1 C1 6.61 1 12.22 1 18 C0.67 18 0.34 18 0 18 C0 12.06 0 6.12 0 0 Z " fill="#C2342F" transform="translate(383,255)"/>
<path d="M0 0 C1.09911549 3.29734646 1.1139456 5.72958745 1.09765625 9.19921875 C1.09443359 10.40771484 1.09121094 11.61621094 1.08789062 12.86132812 C1.07951172 14.12396484 1.07113281 15.38660156 1.0625 16.6875 C1.05798828 17.96173828 1.05347656 19.23597656 1.04882812 20.54882812 C1.03702873 23.69926564 1.02056597 26.84960949 1 30 C0.01 30 -0.98 30 -2 30 C-2 20.76 -2 11.52 -2 2 C-42.92 2 -83.84 2 -126 2 C-126 11.24 -126 20.48 -126 30 C-126.66 30 -127.32 30 -128 30 C-131.0568684 20.82939479 -128.37152018 10.65952469 -128 1 C-85.76 0.67 -43.52 0.34 0 0 Z " fill="#FFBEB9" transform="translate(556,253)"/>
<path d="M0 0 C1.31097656 -0.01836914 1.31097656 -0.01836914 2.6484375 -0.03710938 C8.56487837 -0.05027653 13.76850085 0.71385235 19.5 2.1875 C19.5 2.8475 19.5 3.5075 19.5 4.1875 C20.49 4.5175 21.48 4.8475 22.5 5.1875 C25.35058429 9.62174223 25.8129725 12.9712917 25.5 18.1875 C25.17 18.1875 24.84 18.1875 24.5 18.1875 C24.29503906 17.50042969 24.09007812 16.81335938 23.87890625 16.10546875 C23.60949219 15.20441406 23.34007812 14.30335938 23.0625 13.375 C22.79566406 12.48167969 22.52882812 11.58835937 22.25390625 10.66796875 C21.69612127 8.83276945 21.10655425 7.00716274 20.5 5.1875 C11.93845808 2.33365269 2.51683386 3.56320141 -6.5 3.1875 C-6.5 19.3575 -6.5 35.5275 -6.5 52.1875 C-9.61888743 49.06861257 -8.83912278 45.24190221 -8.87890625 41.05078125 C-8.89590073 40.13797897 -8.9128952 39.2251767 -8.93040466 38.28471375 C-8.9836452 35.35654692 -9.02383263 32.42839268 -9.0625 29.5 C-9.10657966 26.58953777 -9.15350635 23.67917985 -9.20530701 20.7688446 C-9.23697615 18.95692245 -9.26395244 17.1449103 -9.28553772 15.33283997 C-9.34680051 11.54582059 -9.48433394 7.88178808 -10.07788086 4.13745117 C-10.21718018 3.16396729 -10.35647949 2.1904834 -10.5 1.1875 C-8.25086424 -1.06163576 -3.01673309 0.00214867 0 0 Z " fill="#CD2F2D" transform="translate(117.5,279.8125)"/>
<path d="M0 0 C18.48 0 36.96 0 56 0 C55.67 1.65 55.34 3.3 55 5 C54.505 4.01 54.505 4.01 54 3 C36.84 3 19.68 3 2 3 C2 9.6 2 16.2 2 23 C15.86 23.33 29.72 23.66 44 24 C44 24.33 44 24.66 44 25 C29.48 25 14.96 25 0 25 C0 16.75 0 8.5 0 0 Z " fill="#FEF4F0" transform="translate(238,283)"/>
<path d="M0 0 C15.18 0 30.36 0 46 0 C48.64 5.28 51.28 10.56 54 16 C53.01 16.495 53.01 16.495 52 17 C51.34 16.34 50.68 15.68 50 15 C49.01 15.33 48.02 15.66 47 16 C47.02320313 15.39671875 47.04640625 14.7934375 47.0703125 14.171875 C47.08835937 13.37265625 47.10640625 12.5734375 47.125 11.75 C47.14820313 10.96109375 47.17140625 10.1721875 47.1953125 9.359375 C47.11496763 6.61010274 47.11496763 6.61010274 45 3 C24.705 2.505 24.705 2.505 4 2 C4.66 3.65 5.32 5.3 6 7 C5.01 7.495 5.01 7.495 4 8 C2.68 5.36 1.36 2.72 0 0 Z " fill="#CF211D" transform="translate(668,255)"/>
<path d="M0 0 C0.99 0.33 1.98 0.66 3 1 C3.6875 3.0625 3.6875 3.0625 4 5 C4.33 4.01 4.66 3.02 5 2 C8.07435126 2.91399632 9.67929663 3.57239551 11.62890625 6.171875 C13.22236549 9.45866843 13.46485983 11.92563254 13.625 15.5625 C13.79501615 19.97488692 13.79501615 19.97488692 14.6484375 24.27734375 C14.76445313 24.84582031 14.88046875 25.41429687 15 26 C14.34 26.66 13.68 27.32 13 28 C11.1435021 24.33637915 9.29223121 20.6701704 7.44580078 17.00146484 C6.81670569 15.75334278 6.18617759 14.50594195 5.55419922 13.25927734 C4.64696403 11.46901889 3.74527404 9.67595372 2.84375 7.8828125 C2.29912109 6.80402832 1.75449219 5.72524414 1.19335938 4.61376953 C0 2 0 2 0 0 Z " fill="#E7180C" transform="translate(737,362)"/>
<path d="M0 0 C12.21 0 24.42 0 37 0 C38.79221762 4.77924698 40.4103873 9.13480876 41.6875 14 C41.93886719 14.94875 42.19023438 15.8975 42.44921875 16.875 C42.63097656 17.57625 42.81273437 18.2775 43 19 C42.01 19 41.02 19 40 19 C37.39981184 15.09971775 37.84914486 11.52565431 38 7 C36.68 6.67 35.36 6.34 34 6 C34.66 6 35.32 6 36 6 C36 4.68 36 3.36 36 2 C24.45 2 12.9 2 1 2 C0.34 4.97 -0.32 7.94 -1 11 C-1.66 11 -2.32 11 -3 11 C-2.69078116 9.54096742 -2.37751201 8.08279278 -2.0625 6.625 C-1.88847656 5.81289063 -1.71445312 5.00078125 -1.53515625 4.1640625 C-1 2 -1 2 0 0 Z " fill="#D02320" transform="translate(581,255)"/>
<path d="M0 0 C1.27652368 4.23089793 0.5011198 7.7577357 -0.375 12 C-0.51421875 12.7115625 -0.6534375 13.423125 -0.796875 14.15625 C-1.45087829 17.46328549 -2.18221985 20.7288794 -3 24 C4.92 24.33 12.84 24.66 21 25 C20.67 24.34 20.34 23.68 20 23 C19.93049459 21.45976004 19.91547643 19.91665012 19.9375 18.375 C19.94652344 17.55773437 19.95554687 16.74046875 19.96484375 15.8984375 C19.97644531 15.27195312 19.98804688 14.64546875 20 14 C22 18 22 18 23 27 C13.43 27 3.86 27 -6 27 C-4.875 18 -4.875 18 -3.80859375 14.0625 C-3.58623047 13.23105469 -3.36386719 12.39960938 -3.13476562 11.54296875 C-2.90466797 10.70378906 -2.67457031 9.86460937 -2.4375 9 C-2.20353516 8.12988281 -1.96957031 7.25976562 -1.72851562 6.36328125 C-1.15709256 4.24085272 -0.58085043 2.11986406 0 0 Z " fill="#FDD4CB" transform="translate(591,322)"/>
<path d="M0 0 C0.99 0.66 1.98 1.32 3 2 C3 2.66 3 3.32 3 4 C3.66 4 4.32 4 5 4 C4.67 4.99 4.34 5.98 4 7 C-19.265 6.505 -19.265 6.505 -43 6 C-42.34 5.01 -41.68 4.02 -41 3 C-38.51369039 2.74460984 -36.27909174 2.67546047 -33.796875 2.7421875 C-32.72376068 2.75211227 -32.72376068 2.75211227 -31.62896729 2.76223755 C-29.33554497 2.78567931 -27.04307868 2.82934029 -24.75 2.875 C-22.47131604 2.91019017 -20.19269475 2.94104508 -17.91387939 2.96633911 C-16.49577768 2.98315745 -15.07773133 3.00616501 -13.65985107 3.03634644 C-9.64791573 3.09623068 -5.93806932 2.74612219 -2 2 C-1.34 2 -0.68 2 0 2 C0 1.34 0 0.68 0 0 Z " fill="#FEE0D9" transform="translate(792,249)"/>
<path d="M0 0 C0.28875 1.093125 0.5775 2.18625 0.875 3.3125 C1.81893204 7.04013845 1.81893204 7.04013845 4 10 C3.34 11.32 2.68 12.64 2 14 C0.35 10.37 -1.3 6.74 -3 3 C-22.8 2.505 -22.8 2.505 -43 2 C-43 1.67 -43 1.34 -43 1 C-38.72969142 0.65971473 -34.45868661 0.32906591 -30.1875 0 C-28.99189453 -0.09539062 -27.79628906 -0.19078125 -26.56445312 -0.2890625 C-7.69826601 -1.72844462 -7.69826601 -1.72844462 0 0 Z " fill="#FEE9E5" transform="translate(352,253)"/>
<path d="M0 0 C7.92 0 15.84 0 24 0 C25.65 1.65 27.3 3.3 29 5 C28.67 5.66 28.34 6.32 28 7 C27.1028125 6.0409375 27.1028125 6.0409375 26.1875 5.0625 C19.48255961 -1.25930094 10.2287017 1.46143508 1 1 C1 16.51 1 32.02 1 48 C8.92 48 16.84 48 25 48 C25 48.33 25 48.66 25 49 C16.75 49 8.5 49 0 49 C0 32.83 0 16.66 0 0 Z " fill="#FEE9E4" transform="translate(111,283)"/>
<path d="M0 0 C1.32 0.33 2.64 0.66 4 1 C4 3.31 4 5.62 4 8 C3.34 7.34 2.68 6.68 2 6 C1.67 30.09 1.34 54.18 1 79 C0.67 79 0.34 79 0 79 C0 55.9 0 32.8 0 9 C-0.66 9 -1.32 9 -2 9 C-1.125 2.25 -1.125 2.25 0 0 Z " fill="#D31D1B" transform="translate(345,314)"/>
<path d="M0 0 C1.92028638 4.95673922 -0.52367216 9.01833166 -2.41796875 13.66796875 C-5.93232916 21.06981919 -11.06849719 27.99982285 -19 31 C-19.99 30.67 -20.98 30.34 -22 30 C-21.67 28.68 -21.34 27.36 -21 26 C-19.081875 25.6596875 -19.081875 25.6596875 -17.125 25.3125 C-13.60708422 24.4749849 -13.60708422 24.4749849 -11.4375 21.5625 C-10.77429012 18.89150086 -10.77429012 18.89150086 -12 16 C-10.25 14 -10.25 14 -8 12 C-6.68 12 -5.36 12 -4 12 C-3.71125 10.948125 -3.4225 9.89625 -3.125 8.8125 C-2.22774807 5.77181289 -1.23576581 2.91287656 0 0 Z " fill="#E6150A" transform="translate(182,326)"/>
<path d="M0 0 C12.21 0 24.42 0 37 0 C41 12 41 12 41 17 C39 15 39 15 36 4 C17.685 3.505 17.685 3.505 -1 3 C-0.67 2.01 -0.34 1.02 0 0 Z " fill="#FEDBD6" transform="translate(582,252)"/>
<path d="M0 0 C14.85 0 29.7 0 45 0 C45.495 3.465 45.495 3.465 46 7 C45.70504639 6.34805664 45.41009277 5.69611328 45.10620117 5.02441406 C42.17928612 2.21115573 40.05161202 2.54542824 36.1040802 2.54681396 C35.17899155 2.56745911 34.25390289 2.58810425 33.30078125 2.609375 C32.35059616 2.61503479 31.40041107 2.62069458 30.4214325 2.62652588 C27.38461056 2.64892852 24.34896569 2.6991323 21.3125 2.75 C19.25457432 2.77005996 17.19663017 2.78831161 15.13867188 2.8046875 C10.09199393 2.84880613 5.04619657 2.9178607 0 3 C0 2.01 0 1.02 0 0 Z " fill="#FEBEB8" transform="translate(577,375)"/>
<path d="M0 0 C0.66 0.33 1.32 0.66 2 1 C0.85707074 4.79254828 -0.2898336 8.5838828 -1.4375 12.375 C-1.76298828 13.45523437 -2.08847656 14.53546875 -2.42382812 15.6484375 C-2.89272461 17.1953125 -2.89272461 17.1953125 -3.37109375 18.7734375 C-3.65911865 19.72653809 -3.94714355 20.67963867 -4.24389648 21.66162109 C-5 24 -5 24 -6 26 C5.55 26 17.1 26 29 26 C29 26.33 29 26.66 29 27 C28.15816162 27.02505615 27.31632324 27.0501123 26.44897461 27.07592773 C23.29733856 27.17160279 20.14583774 27.27080076 16.99438477 27.37231445 C15.6357042 27.41537294 14.27697959 27.45706565 12.91821289 27.49731445 C10.95447697 27.55572893 8.99090636 27.61961803 7.02734375 27.68359375 C5.25991821 27.73858032 5.25991821 27.73858032 3.45678711 27.79467773 C-0.08147148 27.95301467 -0.08147148 27.95301467 -3.87670898 28.58227539 C-4.90739502 28.72012451 -5.93808105 28.85797363 -7 29 C-8.85392146 27.14607854 -8.23544204 24.57546963 -8.328125 22.10546875 C-8 20 -8 20 -6.65234375 18.25390625 C-4.28909559 15.03027933 -3.42543714 11.55617779 -2.3125 7.75 C-2.08755859 7.00492187 -1.86261719 6.25984375 -1.63085938 5.4921875 C-1.07995041 3.6636386 -0.53897854 1.83210095 0 0 Z " fill="#FDE7E2" transform="translate(544,368)"/>
<path d="M0 0 C0.33 0 0.66 0 1 0 C1.08131463 1.43655854 1.13933559 2.8744483 1.1875 4.3125 C1.23970703 5.51326172 1.23970703 5.51326172 1.29296875 6.73828125 C0.93030808 9.53802164 0.11572731 10.2097692 -2 12 C-3.34736973 13.65533995 -4.68334336 15.32012773 -6 17 C-6.79744629 16.84152588 -7.59489258 16.68305176 -8.41650391 16.51977539 C-12.73919691 15.8927817 -16.97396434 15.7699692 -21.3359375 15.68359375 C-22.21528961 15.66281265 -23.09464172 15.64203156 -24.00064087 15.62062073 C-26.79201931 15.55557037 -29.58348671 15.49644852 -32.375 15.4375 C-34.27474855 15.39427238 -36.17448831 15.35065677 -38.07421875 15.30664062 C-42.71605614 15.19993499 -47.35798246 15.09854385 -52 15 C-52 14.67 -52 14.34 -52 14 C-36.82 14 -21.64 14 -6 14 C-5.34 12.02 -4.68 10.04 -4 8 C-3.32466564 6.52609508 -2.61984233 5.06502851 -1.875 3.625 C-1.52179687 2.93664062 -1.16859375 2.24828125 -0.8046875 1.5390625 C-0.53914062 1.03117187 -0.27359375 0.52328125 0 0 Z " fill="#FEEFED" transform="translate(717,380)"/>
<path d="M0 0 C2.64 0 5.28 0 8 0 C4.39251508 2.40498994 1.94781515 3.12594667 -2.2878418 3.11352539 C-3.14850754 3.11344986 -4.00917328 3.11337433 -4.8959198 3.11329651 C-5.82100845 3.10813522 -6.74609711 3.10297394 -7.69921875 3.09765625 C-8.64940384 3.0962413 -9.59958893 3.09482635 -10.5785675 3.09336853 C-13.61491029 3.08776875 -16.65117948 3.07521632 -19.6875 3.0625 C-21.74544164 3.05748497 -23.80338444 3.05292207 -25.86132812 3.04882812 C-30.90760329 3.03865008 -35.9537192 3.01907456 -41 3 C-41 14.22 -41 25.44 -41 37 C-41.33 37 -41.66 37 -42 37 C-42 25.45 -42 13.9 -42 2 C-28.14 2 -14.28 2 0 2 C0 1.34 0 0.68 0 0 Z " fill="#CC302C" transform="translate(152,357)"/>
<path d="M0 0 C3 1 3 1 4 3 C5.32 3 6.64 3 8 3 C8.13277344 3.67546875 8.26554688 4.3509375 8.40234375 5.046875 C8.57894531 5.93890625 8.75554688 6.8309375 8.9375 7.75 C9.11152344 8.63171875 9.28554688 9.5134375 9.46484375 10.421875 C9.92368488 12.63235053 10.43336074 14.81512068 11 17 C12.32 16.67 13.64 16.34 15 16 C16.37432457 19.81756824 15.67975039 23.07255329 15 27 C13.68 27.33 12.36 27.66 11 28 C11.3256897 26.67415894 11.3256897 26.67415894 11.65795898 25.3215332 C12.05755797 21.44105908 11.45854095 20.14721832 9.47265625 16.85546875 C8.92802734 15.93185547 8.38339844 15.00824219 7.82226562 14.05664062 C7.24154297 13.10982422 6.66082031 12.16300781 6.0625 11.1875 C4.92712623 9.2859075 3.79294278 7.38360361 2.66015625 5.48046875 C2.15105713 4.64410889 1.64195801 3.80774902 1.11743164 2.94604492 C0 1 0 1 0 0 Z M8 0 C8.99 1.485 8.99 1.485 10 3 C9.34 3 8.68 3 8 3 C8 2.01 8 1.02 8 0 Z " fill="#D42822" transform="translate(694,298)"/>
<path d="M0 0 C2.63599067 2.63599067 3.61427761 3.91470326 5.04296875 7.16015625 C5.39423828 7.95357422 5.74550781 8.74699219 6.10742188 9.56445312 C6.46384766 10.38880859 6.82027344 11.21316406 7.1875 12.0625 C7.55552734 12.89072266 7.92355469 13.71894531 8.30273438 14.57226562 C11 20.72243159 11 20.72243159 11 23 C8 22 8 22 7.0859375 20.29296875 C6.85132813 19.59816406 6.61671875 18.90335937 6.375 18.1875 C6.01535156 17.15689453 6.01535156 17.15689453 5.6484375 16.10546875 C5.02561319 14.08316571 4.49024188 12.05809091 4 10 C3.34 10 2.68 10 2 10 C1.67 20.23 1.34 30.46 1 41 C0.67 41 0.34 41 0 41 C0 27.47 0 13.94 0 0 Z " fill="#FDD5CF" transform="translate(346,319)"/>
<path d="M0 0 C5.95271078 8.92906618 5.16326933 20.87391479 5.125 31.1875 C5.12886719 32.24130859 5.13273438 33.29511719 5.13671875 34.38085938 C5.13044275 39.36086407 5.06447095 44.10850253 4 49 C3.67 49 3.34 49 3 49 C2.67 36.46 2.34 23.92 2 11 C1.34 10.67 0.68 10.34 0 10 C0 6.7 0 3.4 0 0 Z " fill="#D53A3A" transform="translate(180,277)"/>
<path d="M0 0 C0 3 0 3 -1 6 C-7.27535839 9.53586883 -14.39218547 9.40077391 -21.37890625 9.29296875 C-22.43158188 9.28872391 -23.48425751 9.28447906 -24.5688324 9.28010559 C-27.90032542 9.26343768 -31.23119268 9.2258075 -34.5625 9.1875 C-36.83397558 9.17243781 -39.10546073 9.1587521 -41.37695312 9.14648438 C-46.9181789 9.11357326 -52.45904472 9.06349386 -58 9 C-58 8.67 -58 8.34 -58 8 C-56.76548096 7.99589111 -55.53096191 7.99178223 -54.2590332 7.98754883 C-49.61979049 7.96555568 -44.98137184 7.91106108 -40.3425293 7.84741211 C-38.34586567 7.82440648 -36.34908369 7.80987792 -34.35229492 7.80444336 C-15.85756173 8.25190146 -15.85756173 8.25190146 0 0 Z " fill="#FCBEB9" transform="translate(169,352)"/>
<path d="M0 0 C1 4 1 4 -1 16 C8.9 16.33 18.8 16.66 29 17 C29.33 14.36 29.66 11.72 30 9 C30.66 8.67 31.32 8.34 32 8 C31.34 11.3 30.68 14.6 30 18 C18.45 18 6.9 18 -5 18 C-1 2 -1 2 0 0 Z " fill="#D02829" transform="translate(543,376)"/>
<path d="M0 0 C1.22244667 0.00333092 1.22244667 0.00333092 2.46958923 0.00672913 C3.85090782 0.00684242 3.85090782 0.00684242 5.26013184 0.00695801 C6.2611644 0.01211929 7.26219696 0.01728058 8.29356384 0.02259827 C9.31316696 0.02401321 10.33277008 0.02542816 11.38327026 0.02688599 C14.65417867 0.03250355 17.92501972 0.04505902 21.19590759 0.05775452 C23.40749515 0.06276725 25.61908377 0.06733055 27.83067322 0.07142639 C33.26494413 0.08247869 38.69916443 0.09975508 44.13340759 0.12025452 C42.48340759 3.42025452 40.83340759 6.72025452 39.13340759 10.12025452 C38.13340759 6.12025452 38.13340759 6.12025452 39.13340759 2.12025452 C25.93340759 2.12025452 12.73340759 2.12025452 -0.86659241 2.12025452 C-1.85659241 4.76025452 -2.84659241 7.40025452 -3.86659241 10.12025452 C-4.52659241 10.12025452 -5.18659241 10.12025452 -5.86659241 10.12025452 C-5.3910868 8.63990687 -4.91108025 7.16100431 -4.42909241 5.68275452 C-4.16225647 4.85904358 -3.89542053 4.03533264 -3.62049866 3.18666077 C-2.51704166 0.16215947 -2.51704166 0.16215947 0 0 Z " fill="#C32D29" transform="translate(750.8665924072266,254.87974548339844)"/>
<path d="M0 0 C0.33 0.66 0.66 1.32 1 2 C0.06553465 4.03144641 -0.93224776 6.03533587 -2 8 C3.33852794 8.0494731 8.67692214 8.08575425 14.015625 8.10986328 C15.83140386 8.11991491 17.64716656 8.13355828 19.46289062 8.15087891 C22.07425935 8.17516406 24.68541387 8.18649148 27.296875 8.1953125 C28.51271271 8.21079636 28.51271271 8.21079636 29.75311279 8.22659302 C35.20599707 8.27993637 35.20599707 8.27993637 40 6 C41.26804566 3.9664052 41.26804566 3.9664052 42 2 C42.66 2 43.32 2 44 2 C42.125 7.75 42.125 7.75 41 10 C25.82 10 10.64 10 -5 10 C-3.51799926 6.29499816 -2.091496 3.32738 0 0 Z " fill="#CB2D29" transform="translate(670,384)"/>
<path d="M0 0 C0.66 1.32 1.32 2.64 2 4 C-10.54 4 -23.08 4 -36 4 C-35.67 3.34 -35.34 2.68 -35 2 C-34.08186523 1.97494385 -33.16373047 1.9498877 -32.21777344 1.92407227 C-28.80342975 1.8287973 -25.38924797 1.72957222 -21.97509766 1.62768555 C-20.4989061 1.58443965 -19.02266785 1.54275744 -17.54638672 1.50268555 C-15.42140652 1.44473154 -13.29665907 1.38111054 -11.171875 1.31640625 C-9.8940918 1.27974854 -8.61630859 1.24309082 -7.29980469 1.20532227 C-4.68090127 1.04236741 -2.48983284 0.77053197 0 0 Z " fill="#FEE7E4" transform="translate(419,251)"/>
<path d="M0 0 C0.66 0 1.32 0 2 0 C0.65150163 4.35970831 -1.04907846 8.31341438 -3.125 12.375 C-3.66382813 13.43460937 -4.20265625 14.49421875 -4.7578125 15.5859375 C-5.16773438 16.38257813 -5.57765625 17.17921875 -6 18 C-8.29648357 15.10414095 -10.04347557 12.1827969 -11.6875 8.875 C-12.34298828 7.57175781 -12.34298828 7.57175781 -13.01171875 6.2421875 C-14 4 -14 4 -14 2 C-13.34 2 -12.68 2 -12 2 C-11.01 3.98 -10.02 5.96 -9 8 C-6.08369887 8.05749557 -6.08369887 8.05749557 -3 7 C-1.5073959 4.72555566 -0.85757989 2.62038301 0 0 Z " fill="#FEE5E1" transform="translate(738,273)"/>
<path d="M0 0 C1.45839897 3.95705456 0.67906093 7.69831388 0.0625 11.75 C-0.03740234 12.44738281 -0.13730469 13.14476562 -0.24023438 13.86328125 C-0.48665873 15.57651726 -0.74240955 17.28840725 -1 19 C-1.99 19.33 -2.98 19.66 -4 20 C-4.33 22.97 -4.66 25.94 -5 29 C-5.66 29 -6.32 29 -7 29 C-7.33 29.99 -7.66 30.98 -8 32 C-9.20577247 28.522023 -8.78242827 26.46593659 -7.63671875 23.0078125 C-7.32669922 22.05519531 -7.01667969 21.10257812 -6.69726562 20.12109375 C-6.19743164 18.63802734 -6.19743164 18.63802734 -5.6875 17.125 C-5.36587891 16.14402344 -5.04425781 15.16304688 -4.71289062 14.15234375 C-3.81875544 11.43138206 -2.91192644 8.71504165 -2 6 C-1.59394531 4.78054688 -1.18789063 3.56109375 -0.76953125 2.3046875 C-0.51558594 1.54414063 -0.26164063 0.78359375 0 0 Z " fill="#D82824" transform="translate(553,344)"/>
<path d="M0 0 C3.51227152 3.51227152 5.72897522 6.67061173 8.0625 10.9375 C10.82697877 15.92171581 10.82697877 15.92171581 13.74609375 20.81640625 C15 23 15 23 15 25 C14.01 25.33 13.02 25.66 12 26 C11.67 25.34 11.34 24.68 11 24 C11.66 24 12.32 24 13 24 C12.34 22.68 11.68 21.36 11 20 C9.68 20.33 8.36 20.66 7 21 C7.33 19.02 7.66 17.04 8 15 C7.01 15 6.02 15 5 15 C5 13.68 5 12.36 5 11 C4.34 11 3.68 11 3 11 C2.01 7.37 1.02 3.74 0 0 Z " fill="#D92924" transform="translate(767,342)"/>
<path d="M0 0 C0.99 0.33 1.98 0.66 3 1 C1.53869493 10.90197767 -1.23373511 20.40253901 -4 30 C-4.33 30 -4.66 30 -5 30 C-4.9278125 29.07058594 -4.855625 28.14117187 -4.78125 27.18359375 C-4.6884375 25.94738281 -4.595625 24.71117187 -4.5 23.4375 C-4.4071875 22.21933594 -4.314375 21.00117188 -4.21875 19.74609375 C-4.00897272 16.15365784 -3.96295985 12.59752457 -4 9 C-3.34 9.33 -2.68 9.66 -2 10 C-1.34 6.7 -0.68 3.4 0 0 Z " fill="#DD2723" transform="translate(596,292)"/>
<path d="M0 0 C0.66 0 1.32 0 2 0 C2.16756928 4.4374664 2.33390157 8.87497832 2.5 13.3125 C2.54769531 14.57513672 2.59539062 15.83777344 2.64453125 17.13867188 C2.68964844 18.34716797 2.73476563 19.55566406 2.78125 20.80078125 C2.82314453 21.91622314 2.86503906 23.03166504 2.90820312 24.1809082 C2.97133905 26.11981914 3 28.0600614 3 30 C2.01 30 1.02 30 0 30 C0 20.1 0 10.2 0 0 Z " fill="#FEDCD9" transform="translate(282,308)"/>
<path d="M0 0 C0.99 0 1.98 0 3 0 C3.28875 1.2375 3.5775 2.475 3.875 3.75 C4.61932214 6.71156344 5.33758049 9.40246951 7 12 C9.94412027 13.47206013 12.96285915 13.23807192 16.1953125 13.31640625 C16.90275604 13.33718735 17.61019958 13.35796844 18.33908081 13.37937927 C20.60095425 13.44481078 22.86294462 13.50372974 25.125 13.5625 C26.65756422 13.60569133 28.19011657 13.64930582 29.72265625 13.69335938 C33.48165073 13.80048555 37.24076292 13.9017709 41 14 C41 14.33 41 14.66 41 15 C29.45 15 17.9 15 6 15 C0 3 0 3 0 0 Z " fill="#D01F1D" transform="translate(375,379)"/>
<path d="M0 0 C1.09911549 3.29734646 1.1139456 5.72958745 1.09765625 9.19921875 C1.09443359 10.40771484 1.09121094 11.61621094 1.08789062 12.86132812 C1.07951172 14.12396484 1.07113281 15.38660156 1.0625 16.6875 C1.05798828 17.96173828 1.05347656 19.23597656 1.04882812 20.54882812 C1.03702873 23.69926564 1.02056597 26.84960949 1 30 C0.01 30 -0.98 30 -2 30 C-2 20.43 -2 10.86 -2 1 C-1.34 0.67 -0.68 0.34 0 0 Z " fill="#FDD6D2" transform="translate(556,253)"/>
<path d="M0 0 C0.66 0 1.32 0 2 0 C3.80317221 3.96697886 4.49202991 7.6822542 5 12 C5.33 12 5.66 12 6 12 C6.33 13.65 6.66 15.3 7 17 C7.33 17 7.66 17 8 17 C8.33 20.96 8.66 24.92 9 29 C9.66 29 10.32 29 11 29 C11 31.31 11 33.62 11 36 C9.64610655 33.39764072 8.52783278 30.83966277 7.59765625 28.05859375 C7.34838379 27.31488525 7.09911133 26.57117676 6.84228516 25.80493164 C6.58495605 25.0236792 6.32762695 24.24242676 6.0625 23.4375 C5.66490479 22.23565063 5.66490479 22.23565063 5.25927734 21.00952148 C0 4.96500821 0 4.96500821 0 0 Z " fill="#FEDCD7" transform="translate(627,282)"/>
<path d="M0 0 C3.11223004 3.65806731 4.81550196 7.75570185 6.6875 12.125 C7.00783203 12.85332031 7.32816406 13.58164062 7.65820312 14.33203125 C10 19.73464152 10 19.73464152 10 22 C9.34 22 8.68 22 8 22 C7.34 21.34 6.68 20.68 6 20 C5.34 20.33 4.68 20.66 4 21 C4.33 18.69 4.66 16.38 5 14 C4.34 14 3.68 14 3 14 C0.88254802 11.80564299 0.05410335 10.47610949 -0.29296875 7.421875 C-0.25816406 6.54015625 -0.22335937 5.6584375 -0.1875 4.75 C-0.16042969 3.85796875 -0.13335937 2.9659375 -0.10546875 2.046875 C-0.07066406 1.37140625 -0.03585937 0.6959375 0 0 Z " fill="#DF2924" transform="translate(352,263)"/>
<path d="M0 0 C0.66 0 1.32 0 2 0 C2 9.57 2 19.14 2 29 C1.34 29 0.68 29 0 29 C-1.101173 25.69648101 -1.03109831 23.48612828 -0.87890625 20.01953125 C-0.83056641 18.85615234 -0.78222656 17.69277344 -0.73242188 16.49414062 C-0.67634766 15.27919922 -0.62027344 14.06425781 -0.5625 12.8125 C-0.51029297 11.58595703 -0.45808594 10.35941406 -0.40429688 9.09570312 C-0.27451599 6.06354982 -0.13954569 3.03171706 0 0 Z " fill="#FED4CD" transform="translate(428,254)"/>
<path d="M0 0 C1.98 0 3.96 0 6 0 C7.4606285 2.64738916 8 3.89448334 8 7 C6.68 6.67 5.36 6.34 4 6 C4.309375 6.721875 4.61875 7.44375 4.9375 8.1875 C5.92560539 10.80307309 6.5287754 13.25118982 7 16 C2.65774985 11.07878316 1.12589152 6.38005193 0 0 Z " fill="#EA1209" transform="translate(672,257)"/>
<path d="M0 0 C2 3 2 3 4 12 C15.22 12 26.44 12 38 12 C34.20647154 14.52901897 32.30004273 14.17027841 27.77734375 14.01171875 C26.72541588 13.97773735 26.72541588 13.97773735 25.65223694 13.94306946 C24.17187332 13.89317026 22.6916727 13.83821476 21.21166992 13.77856445 C18.94279978 13.68771222 16.67383456 13.61305273 14.40429688 13.54101562 C3.3026745 13.15133725 3.3026745 13.15133725 1 12 C0.5859375 9.27734375 0.5859375 9.27734375 0.375 5.9375 C0.30023437 4.83277344 0.22546875 3.72804688 0.1484375 2.58984375 C0.09945312 1.73519531 0.05046875 0.88054687 0 0 Z " fill="#FFEBEF" transform="translate(623,382)"/>
<path d="M0 0 C0.33 0 0.66 0 1 0 C1.02505615 0.67579102 1.0501123 1.35158203 1.07592773 2.04785156 C1.19210742 5.1154168 1.31473437 8.18269158 1.4375 11.25 C1.47681641 12.31347656 1.51613281 13.37695312 1.55664062 14.47265625 C1.61948242 16.00986328 1.61948242 16.00986328 1.68359375 17.578125 C1.72025146 18.52075195 1.75690918 19.46337891 1.79467773 20.43457031 C1.90706844 22.96487558 1.90706844 22.96487558 2.64868164 25.16699219 C2.7646167 25.77188477 2.88055176 26.37677734 3 27 C0.9375 29.75 0.9375 29.75 -2 32 C-5.3125 32.3125 -5.3125 32.3125 -8 32 C-8 31.01 -8 30.02 -8 29 C-4.535 28.505 -4.535 28.505 -1 28 C-0.67 18.76 -0.34 9.52 0 0 Z " fill="#FEF4EE" transform="translate(296,366)"/>
<path d="M0 0 C0.33 0 0.66 0 1 0 C1.21755666 5.4389165 1.10428384 9.87080814 -1 15 C-1.99 15 -2.98 15 -4 15 C-4 15.66 -4 16.32 -4 17 C-12.91 17 -21.82 17 -31 17 C-31 16.67 -31 16.34 -31 16 C-30.26362305 16.00112793 -29.52724609 16.00225586 -28.76855469 16.00341797 C-25.4281057 15.99130344 -22.08994226 15.9336598 -18.75 15.875 C-17.01169922 15.87886719 -17.01169922 15.87886719 -15.23828125 15.8828125 C-8.53646433 15.91837308 -8.53646433 15.91837308 -3.28125 12.25 C-2.199755 9.50669561 -1.27628466 7.01956561 -0.75 4.125 C-0.60046875 3.34382813 -0.4509375 2.56265625 -0.296875 1.7578125 C-0.19890625 1.17773438 -0.1009375 0.59765625 0 0 Z " fill="#E04543" transform="translate(142,316)"/>
<path d="M0 0 C2.22825644 2.22825644 2.69239369 3.65761628 3.625 6.625 C4.01558594 7.85089844 4.01558594 7.85089844 4.4140625 9.1015625 C4.60742188 9.72804688 4.80078125 10.35453125 5 11 C5.66 9.35 6.32 7.7 7 6 C7.99 6 8.98 6 10 6 C9.67 7.65 9.34 9.3 9 11 C8.34 11 7.68 11 7 11 C6.67 14.63 6.34 18.26 6 22 C3.6567955 18.48519325 2.84632099 15.04357331 1.875 11 C1.69324219 10.27554687 1.51148438 9.55109375 1.32421875 8.8046875 C0.58699203 5.80035004 0 3.10482716 0 0 Z " fill="#DC1C15" transform="translate(606,314)"/>
<path d="M0 0 C1.40632578 2.81265157 0.53440321 4.05287441 -0.43359375 7.0078125 C-0.75263672 7.99394531 -1.07167969 8.98007812 -1.40039062 9.99609375 C-1.74263672 11.02863281 -2.08488281 12.06117188 -2.4375 13.125 C-2.77587891 14.16527344 -3.11425781 15.20554687 -3.46289062 16.27734375 C-4.3020101 18.85379509 -5.14796906 21.42779536 -6 24 C-8 21 -8 21 -7.8125 18.75 C-6.81297658 15.36699765 -5.39597802 12.238669 -4 9 C-3.649375 7.741875 -3.29875 6.48375 -2.9375 5.1875 C-2 2 -2 2 0 0 Z " fill="#FCDCD3" transform="translate(558,326)"/>
<path d="M0 0 C0.625 1.8125 0.625 1.8125 1 4 C0.01 5.485 0.01 5.485 -1 7 C-1.144375 7.680625 -1.28875 8.36125 -1.4375 9.0625 C-2 11 -2 11 -5 13 C-4.67 15.64 -4.34 18.28 -4 21 C-4.433125 20.34 -4.86625 19.68 -5.3125 19 C-6.1478125 18.01 -6.1478125 18.01 -7 17 C-7.99 17 -8.98 17 -10 17 C-8.70966095 14.72840311 -7.41778598 12.45770375 -6.125 10.1875 C-5.76019531 9.54490234 -5.39539063 8.90230469 -5.01953125 8.24023438 C-3.41916099 5.43231202 -1.79357134 2.69035702 0 0 Z " fill="#DC2722" transform="translate(692,347)"/>
<path d="M0 0 C0.99 0.33 1.98 0.66 3 1 C3 5.29 3 9.58 3 14 C-11.85 13.505 -11.85 13.505 -27 13 C-27 12.67 -27 12.34 -27 12 C-17.43 12 -7.86 12 2 12 C1.34 8.04 0.68 4.08 0 0 Z " fill="#BF231F" transform="translate(612,337)"/>
<path d="M0 0 C1.32 0.33 2.64 0.66 4 1 C4 3.31 4 5.62 4 8 C3.34 7.34 2.68 6.68 2 6 C1.67 11.28 1.34 16.56 1 22 C0.67 22 0.34 22 0 22 C0 17.71 0 13.42 0 9 C-0.66 9 -1.32 9 -2 9 C-1.125 2.25 -1.125 2.25 0 0 Z " fill="#E12C22" transform="translate(345,314)"/>
<path d="M0 0 C1.32 0.33 2.64 0.66 4 1 C0.44290253 5.77984973 -3.41304402 9.65067332 -9 12 C-9.99 11.67 -10.98 11.34 -12 11 C-11.67 9.68 -11.34 8.36 -11 7 C-9.1128125 6.6596875 -9.1128125 6.6596875 -7.1875 6.3125 C-3.82648432 5.49752806 -3.19641677 5.257797 -1 2.375 C-0.67 1.59125 -0.34 0.8075 0 0 Z " fill="#E12223" transform="translate(172,345)"/>
<path d="M0 0 C1.10313617 3.3094085 0.89941114 4.19482294 0.00390625 7.44921875 C-0.33930664 8.72055664 -0.33930664 8.72055664 -0.68945312 10.01757812 C-0.93630859 10.89865234 -1.18316406 11.77972656 -1.4375 12.6875 C-1.68048828 13.58017578 -1.92347656 14.47285156 -2.17382812 15.39257812 C-2.77509306 17.59721622 -3.38406657 19.79942345 -4 22 C-5.94566951 18.52452927 -6.07637127 16.87493656 -5 13 C-5.66 12.67 -6.32 12.34 -7 12 C-6.67 11.01 -6.34 10.02 -6 9 C-5.34 8.67 -4.68 8.34 -4 8 C-2.87775145 6.11986894 -2.87775145 6.11986894 -1.875 3.9375 C-1.34519531 2.83728516 -1.34519531 2.83728516 -0.8046875 1.71484375 C-0.53914062 1.14894531 -0.27359375 0.58304687 0 0 Z " fill="#D8201E" transform="translate(589,327)"/>
<path d="M0 0 C0.33 0 0.66 0 1 0 C1.23074219 0.7528125 1.46148438 1.505625 1.69921875 2.28125 C2.02535156 3.3434375 2.35148438 4.405625 2.6875 5.5 C3.04585937 6.67175781 3.40421875 7.84351563 3.7734375 9.05078125 C4.62877886 11.82747014 5.51349865 14.59312697 6.4140625 17.35546875 C6.64649658 18.07605469 6.87893066 18.79664063 7.1184082 19.5390625 C7.57713473 20.95896875 8.04171944 22.3769972 8.51245117 23.79296875 C10.11217415 28.77565169 10.11217415 28.77565169 9 31 C6.28431493 25.36746801 4.17026403 19.7089941 2.3125 13.75 C1.99116089 12.72229492 1.99116089 12.72229492 1.66333008 11.67382812 C-0.48512672 4.65216781 -0.48512672 4.65216781 -1 1 C-0.67 0.67 -0.34 0.34 0 0 Z " fill="#D43432" transform="translate(639,323)"/>
<path d="M0 0 C0.66 0.66 1.32 1.32 2 2 C1.69925567 6.40320552 -0.31422532 9.59262735 -2.5625 13.3125 C-3.20316406 14.38113281 -3.84382812 15.44976562 -4.50390625 16.55078125 C-4.99761719 17.35902344 -5.49132812 18.16726563 -6 19 C-8.1519437 15.77208445 -8.20086443 14.71599191 -8 11 C-7.05125 10.855625 -6.1025 10.71125 -5.125 10.5625 C-1.87141432 9.37038249 -1.87141432 9.37038249 -1.15625 6.86328125 C-0.66828424 4.57773573 -0.27688708 2.3201228 0 0 Z " fill="#FDE5E0" transform="translate(705,318)"/>
<path d="M0 0 C2.99391446 4.49087169 3.11177109 6.70517963 3.0625 12.125 C3.05347656 13.40632813 3.04445313 14.68765625 3.03515625 16.0078125 C3.02355469 16.99523437 3.01195312 17.98265625 3 19 C2.01 19 1.02 19 0 19 C0 12.73 0 6.46 0 0 Z " fill="#E1170E" transform="translate(385,317)"/>
<path d="M0 0 C1.00054954 3.13685801 1.08787223 3.78910664 -0.25 7 C-2 10 -2 10 -3.75 11.9375 C-5.65033609 15.07305455 -4.73260848 17.53675993 -4 21 C-5.94595136 19.39247497 -6.92932137 18.18324089 -7.84375 15.8125 C-8.06546856 11.821566 -6.21095305 9.37289237 -4.0625 6.1875 C-3.67642578 5.59001953 -3.29035156 4.99253906 -2.89257812 4.37695312 C-1.94156662 2.90934278 -0.972514 1.4534509 0 0 Z " fill="#FED7D0" transform="translate(764,307)"/>
<path d="M0 0 C3.24992446 -0.05819424 6.49971435 -0.09366116 9.75 -0.125 C10.67039062 -0.14175781 11.59078125 -0.15851563 12.5390625 -0.17578125 C13.42851563 -0.18222656 14.31796875 -0.18867188 15.234375 -0.1953125 C16.05131836 -0.20578613 16.86826172 -0.21625977 17.70996094 -0.22705078 C20 0 20 0 24 2 C11.625 2.495 11.625 2.495 -1 3 C-0.67 2.01 -0.34 1.02 0 0 Z " fill="#DF160F" transform="translate(108,280)"/>
<path d="M0 0 C1.79092403 2.68638605 2.57445197 4.46526066 3.47265625 7.4921875 C3.73240234 8.36230469 3.99214844 9.23242188 4.25976562 10.12890625 C4.52466797 11.03511719 4.78957031 11.94132812 5.0625 12.875 C5.33126953 13.77347656 5.60003906 14.67195313 5.87695312 15.59765625 C7.09678786 19.71649971 8.20168477 23.77571849 9 28 C8.34 28 7.68 28 7 28 C6.32243118 26.44219668 5.65840543 24.87849904 5 23.3125 C4.62875 22.44238281 4.2575 21.57226562 3.875 20.67578125 C2.98129512 17.9427998 2.83550324 15.85299066 3 13 C2.34 12.67 1.68 12.34 1 12 C0.5859375 9.27734375 0.5859375 9.27734375 0.375 5.9375 C0.30023437 4.83277344 0.22546875 3.72804688 0.1484375 2.58984375 C0.09945312 1.73519531 0.05046875 0.88054687 0 0 Z " fill="#D93336" transform="translate(624,275)"/>
<path d="M0 0 C1.9375 0.375 1.9375 0.375 4 1 C4.33 1.66 4.66 2.32 5 3 C14.57 3.33 24.14 3.66 34 4 C34 4.33 34 4.66 34 5 C29.96203903 5.19313813 25.92371647 5.37171441 21.88452148 5.53710938 C20.51195227 5.59533076 19.1395426 5.65745491 17.76733398 5.72363281 C15.78936991 5.81833403 13.81068668 5.89761366 11.83203125 5.9765625 C10.64327393 6.02893066 9.4545166 6.08129883 8.22973633 6.13525391 C5.00380368 6.00015929 2.88593179 5.39419294 0 4 C0 2.68 0 1.36 0 0 Z " fill="#E2170F" transform="translate(580,346)"/>
<path d="M0 0 C1.65 0 3.3 0 5 0 C1.72591106 6.03523728 -1.56493514 12.05469543 -5 18 C-5.33 18 -5.66 18 -6 18 C-6.3636198 13.75776898 -5.5393228 11.41831915 -3 8 C-2.34 8 -1.68 8 -1 8 C-0.67 5.36 -0.34 2.72 0 0 Z " fill="#DD2321" transform="translate(770,289)"/>
<path d="M0 0 C2.27034075 2.94050157 4.30412051 5.96058433 6.25 9.125 C7.06210937 10.42824219 7.06210937 10.42824219 7.890625 11.7578125 C8.25671875 12.49773437 8.6228125 13.23765625 9 14 C8.67 14.66 8.34 15.32 8 16 C6.35 15.67 4.7 15.34 3 15 C2.67 11.7 2.34 8.4 2 5 C1.34 5 0.68 5 0 5 C0 3.35 0 1.7 0 0 Z " fill="#DD221F" transform="translate(755,321)"/>
<path d="M0 0 C0.33 0 0.66 0 1 0 C1.02949232 3.45831484 1.0469616 6.91659654 1.0625 10.375 C1.07087891 11.34050781 1.07925781 12.30601562 1.08789062 13.30078125 C1.14574632 30.54177741 1.14574632 30.54177741 -2.0625 34.625 C-3.0215625 35.305625 -3.0215625 35.305625 -4 36 C-3.79503906 35.16082031 -3.59007812 34.32164062 -3.37890625 33.45703125 C-0.88720407 22.33378657 -0.29749406 11.37544963 0 0 Z " fill="#FFE7E1" transform="translate(185,299)"/>
<path d="M0 0 C0.66 0 1.32 0 2 0 C2.18175781 0.64066406 2.36351562 1.28132813 2.55078125 1.94140625 C3.72835973 5.993484 4.90207881 9.78965077 6.6875 13.625 C8.29312033 17.75373799 8.2311653 20.60785929 8 25 C5.80353505 20.79001017 4.36794783 16.43420172 2.875 11.9375 C2.59785156 11.12216797 2.32070313 10.30683594 2.03515625 9.46679688 C1.77347656 8.68240234 1.51179687 7.89800781 1.2421875 7.08984375 C1.0035498 6.37691162 0.76491211 5.66397949 0.51904297 4.92944336 C0 3 0 3 0 0 Z " fill="#FEE6DB" transform="translate(646,343)"/>
<path d="M0 0 C1.98 0.99 1.98 0.99 4 2 C4 2.99 4 3.98 4 5 C4.99 5.33 5.98 5.66 7 6 C8.00926479 10.15626368 8.10239579 14.04365094 8.0625 18.3125 C8.05347656 19.56675781 8.04445312 20.82101562 8.03515625 22.11328125 C8.02355469 23.06589844 8.01195312 24.01851563 8 25 C7.67 25 7.34 25 7 25 C6.90203125 24.17757813 6.8040625 23.35515625 6.703125 22.5078125 C5.60966563 14.34457269 3.67932493 7.35864986 0 0 Z " fill="#FEE5DC" transform="translate(177,271)"/>
<path d="M0 0 C3.89543877 -0.14553599 7.79017651 -0.23415059 11.6875 -0.3125 C13.34168945 -0.3753418 13.34168945 -0.3753418 15.02929688 -0.43945312 C23.06855724 -0.5608921 23.06855724 -0.5608921 25.88525391 1.13525391 C27.26953125 2.51953125 27.26953125 2.51953125 29 5 C28.67 5.66 28.34 6.32 28 7 C27.1028125 6.0409375 27.1028125 6.0409375 26.1875 5.0625 C23.06929301 2.12247627 20.45202847 1.86728789 16.33203125 1.68359375 C15.43935547 1.64169922 14.54667969 1.59980469 13.62695312 1.55664062 C12.69818359 1.51732422 11.76941406 1.47800781 10.8125 1.4375 C9.87212891 1.39431641 8.93175781 1.35113281 7.96289062 1.30664062 C5.64207146 1.20061335 3.32114675 1.09854971 1 1 C0.67 1.99 0.34 2.98 0 4 C0 2.68 0 1.36 0 0 Z " fill="#FEDAD7" transform="translate(111,283)"/>
<path d="M0 0 C2.64179275 3.19184343 4.14549017 6.41581339 5.6875 10.25 C6.34298828 11.86648438 6.34298828 11.86648438 7.01171875 13.515625 C7.33785156 14.33546875 7.66398438 15.1553125 8 16 C7.34 16 6.68 16 6 16 C5.34 15.34 4.68 14.68 4 14 C3.01 14.33 2.02 14.66 1 15 C1.01160156 14.41992188 1.02320313 13.83984375 1.03515625 13.2421875 C1.08762174 8.7001754 0.91751063 4.47286431 0 0 Z " fill="#D92B27" transform="translate(714,256)"/>
<path d="M0 0 C0.33 0 0.66 0 1 0 C1.30008978 5.80173582 0.8169737 8.8167684 -2 14 C-2.70758326 17.2366963 -2.70758326 17.2366963 -3 20 C-3.66 20 -4.32 20 -5 20 C-5.33 20.66 -5.66 21.32 -6 22 C-5.40421223 16.73378394 -4.18691204 12.05591981 -2.4375 7.0625 C-2.20353516 6.37865234 -1.96957031 5.69480469 -1.72851562 4.99023438 C-1.15788171 3.32491499 -0.57972902 1.66217507 0 0 Z " fill="#D82524" transform="translate(560,322)"/>
<path d="M0 0 C0.60546875 1.82421875 0.60546875 1.82421875 1 4 C-0.6875 6.8125 -0.6875 6.8125 -3 10 C-3.69949425 11.26427109 -4.38718083 12.53515211 -5.0625 13.8125 C-7 17 -7 17 -10 18 C-8.47146065 13.72813475 -6.28490519 10.00673137 -3.875 6.1875 C-3.50246094 5.59001953 -3.12992188 4.99253906 -2.74609375 4.37695312 C-1.8342952 2.91573749 -0.91764024 1.45755415 0 0 Z " fill="#FEE3DE" transform="translate(778,284)"/>
<path d="M0 0 C2.23960447 2.87949147 4.29864224 5.76742026 6 9 C5.67 9.66 5.34 10.32 5 11 C4.01 10.67 3.02 10.34 2 10 C2 8.35 2 6.7 2 5 C1.34 5 0.68 5 0 5 C-0.66 7.31 -1.32 9.62 -2 12 C-2.99 12 -3.98 12 -5 12 C-3.68938409 7.76570244 -2.05643741 3.92592596 0 0 Z " fill="#FED6D1" transform="translate(731,352)"/>
<path d="M0 0 C2.40672398 2.40672398 2.79132175 4.11378549 3.6875 7.375 C3.95949219 8.33148438 4.23148438 9.28796875 4.51171875 10.2734375 C4.9947433 12.97064661 4.9004538 14.44972144 4 17 C4 16.01 4 15.02 4 14 C3.34 14 2.68 14 2 14 C2 12.02 2 10.04 2 8 C0.68 8.99 -0.64 9.98 -2 11 C-1.125 3.375 -1.125 3.375 0 0 Z " fill="#FDCDCA" transform="translate(599,293)"/>
<path d="M0 0 C0.99 0.33 1.98 0.66 3 1 C3 3.64 3 6.28 3 9 C3.99 9 4.98 9 6 9 C6 11.64 6 14.28 6 17 C5.34 17 4.68 17 4 17 C3.32844651 14.73050898 2.6626037 12.4596039 2 10.1875 C1.443125 8.29064453 1.443125 8.29064453 0.875 6.35546875 C0 3 0 3 0 0 Z " fill="#D81E1B" transform="translate(622,375)"/>
<path d="M0 0 C0.66 0 1.32 0 2 0 C2 3.3 2 6.6 2 10 C2.66 10 3.32 10 4 10 C4 11.98 4 13.96 4 16 C0.88653282 12.14523111 -2.20579492 8.31519285 -1.75 3.1875 C-1 1 -1 1 0 0 Z " fill="#DB211D" transform="translate(371,363)"/>
<path d="M0 0 C0.99 0.33 1.98 0.66 3 1 C1.43358249 5.30764815 -0.68336156 9.06171464 -3 13 C-3.33 13 -3.66 13 -4 13 C-4.33 10.69 -4.66 8.38 -5 6 C-4.01 6 -3.02 6 -2 6 C-1.855625 5.195625 -1.71125 4.39125 -1.5625 3.5625 C-1 1 -1 1 0 0 Z " fill="#DD2012" transform="translate(760,307)"/>
<path d="M0 0 C0.33 0 0.66 0 1 0 C1.08131463 1.43655854 1.13933559 2.8744483 1.1875 4.3125 C1.22230469 5.11300781 1.25710938 5.91351563 1.29296875 6.73828125 C0.93245143 9.52147497 0.17022786 10.28885881 -2 12 C-4.1875 13.1875 -4.1875 13.1875 -6 14 C-4.50829734 9.0276578 -2.39542583 4.58154261 0 0 Z " fill="#FCDED9" transform="translate(717,380)"/>
<path d="M0 0 C2.3432045 3.51480675 3.15367901 6.95642669 4.125 11 C4.30675781 11.72445313 4.48851562 12.44890625 4.67578125 13.1953125 C5.41300797 16.19964996 6 18.89517284 6 22 C5.34 22 4.68 22 4 22 C3.87882813 21.28972656 3.75765625 20.57945312 3.6328125 19.84765625 C3.46523438 18.92855469 3.29765625 18.00945312 3.125 17.0625 C2.96257813 16.14597656 2.80015625 15.22945313 2.6328125 14.28515625 C2.42398438 13.53105469 2.21515625 12.77695312 2 12 C1.34 11.67 0.68 11.34 0 11 C0 7.37 0 3.74 0 0 Z " fill="#FDD5D3" transform="translate(605,314)"/>
<path d="M0 0 C1.2114783 4.12086178 0.96477751 7.84147626 0 12 C-0.94726954 13.69719127 -1.94228261 15.36935236 -3 17 C-3.70670728 19.69254991 -3.70670728 19.69254991 -4 22 C-4.66 22 -5.32 22 -6 22 C-4.20645194 14.59684417 -2.26858827 7.27235389 0 0 Z " fill="#DB3D40" transform="translate(567,298)"/>
<path d="M0 0 C2.12075567 3.18113351 3.06017176 5.92004956 4.1875 9.5625 C4.55230469 10.71878906 4.91710937 11.87507813 5.29296875 13.06640625 C6 16 6 16 5 18 C4.01 18 3.02 18 2 18 C1.66317938 15.7505194 1.33066999 13.50039296 1 11.25 C0.814375 9.99703125 0.62875 8.7440625 0.4375 7.453125 C0 4 0 4 0 0 Z " fill="#DE2F2F" transform="translate(618,256)"/>
<path d="M0 0 C0.33 0 0.66 0 1 0 C1 3.3 1 6.6 1 10 C1.66 10 2.32 10 3 10 C3 10.99 3 11.98 3 13 C-0.3 13 -3.6 13 -7 13 C-7 12.67 -7 12.34 -7 12 C-5.35 11.67 -3.7 11.34 -2 11 C-1.34 7.37 -0.68 3.74 0 0 Z " fill="#E41708" transform="translate(569,380)"/>
<path d="M0 0 C0.33 0 0.66 0 1 0 C0.67 2.97 0.34 5.94 0 9 C-0.66 9 -1.32 9 -2 9 C-2.309375 9.78375 -2.61875 10.5675 -2.9375 11.375 C-4 14 -4 14 -5 16 C-5.66 16 -6.32 16 -7 16 C-5.35433477 10.31497465 -2.70967216 5.23318364 0 0 Z " fill="#FEDBD7" transform="translate(725,364)"/>
<path d="M0 0 C1.32229189 2.64458379 1.09677194 4.67761301 1.0625 7.625 C1.05347656 8.62789063 1.04445313 9.63078125 1.03515625 10.6640625 C1.02355469 11.43492187 1.01195312 12.20578125 1 13 C0.01 13.33 -0.98 13.66 -2 14 C-1.67 12.35 -1.34 10.7 -1 9 C-2.32 9.33 -3.64 9.66 -5 10 C-3.66511872 6.40608886 -2.03977277 3.24509304 0 0 Z " fill="#E51612" transform="translate(700,334)"/>
<path d="M0 0 C2.73034935 2.73034935 3.78663731 5.97312216 5.1875 9.5 C5.61579102 10.53447266 5.61579102 10.53447266 6.05273438 11.58984375 C6.76545405 13.36904176 7.3895311 15.18317788 8 17 C7.67 17.66 7.34 18.32 7 19 C3.6408458 16.05726988 2.3186175 13.8219641 1.25 9.5 C1.00765625 8.5615625 0.7653125 7.623125 0.515625 6.65625 C0 4 0 4 0 0 Z " fill="#D62D2B" transform="translate(366,295)"/>
<path d="M0 0 C1.57165757 4.06719492 0.54608494 7.92955435 -0.25 12.0625 C-0.37246094 12.78244141 -0.49492188 13.50238281 -0.62109375 14.24414062 C-1.83475061 20.71497445 -1.83475061 20.71497445 -5 23 C-4.354523 15.09290669 -2.13002861 7.60866033 0 0 Z " fill="#FBCBBE" transform="translate(591,322)"/>
<path d="M0 0 C7 8.44827586 7 8.44827586 7 12 C5.35 11.67 3.7 11.34 2 11 C0.57741188 7.17679443 -0.24042276 4.08718695 0 0 Z " fill="#FBE2DB" transform="translate(689,291)"/>
<path d="M0 0 C2.475 0.495 2.475 0.495 5 1 C5.38909985 2.45463481 5.76088029 3.91391207 6.125 5.375 C6.43824219 6.59316406 6.43824219 6.59316406 6.7578125 7.8359375 C6.83773437 8.55007813 6.91765625 9.26421875 7 10 C6.34 10.66 5.68 11.32 5 12 C4.16180842 10.37750059 3.3295884 8.75191503 2.5 7.125 C2.0359375 6.22007812 1.571875 5.31515625 1.09375 4.3828125 C0 2 0 2 0 0 Z " fill="#DD2726" transform="translate(745,378)"/>
<path d="M0 0 C1.32 0 2.64 0 4 0 C2.62859834 3.67694648 0.96304199 6.95318589 -1.0625 10.3125 C-1.58972656 11.19550781 -2.11695313 12.07851563 -2.66015625 12.98828125 C-3.10230469 13.65214844 -3.54445313 14.31601562 -4 15 C-4.33 15 -4.66 15 -5 15 C-5 13.35 -5 11.7 -5 10 C-4.34 10 -3.68 10 -3 10 C-2.01 6.7 -1.02 3.4 0 0 Z " fill="#FEDFDE" transform="translate(675,369)"/>
<path d="M0 0 C9.01223242 6.2293578 9.01223242 6.2293578 11 11 C10.67 11.66 10.34 12.32 10 13 C9.66226563 12.50628906 9.32453125 12.01257813 8.9765625 11.50390625 C8.53054687 10.86324219 8.08453125 10.22257812 7.625 9.5625 C7.18414062 8.92441406 6.74328125 8.28632813 6.2890625 7.62890625 C5.07839147 5.86259072 5.07839147 5.86259072 3 5 C2.67 5.66 2.34 6.32 2 7 C1.34 6.67 0.68 6.34 0 6 C0 4.02 0 2.04 0 0 Z " fill="#D52D2B" transform="translate(169,264)"/>
<path d="M0 0 C3 1 3 1 4 3 C5.32 3 6.64 3 8 3 C7.67 4.65 7.34 6.3 7 8 C5.1875 7.9375 5.1875 7.9375 3 7 C1.25 3.4375 1.25 3.4375 0 0 Z M8 0 C8.99 1.485 8.99 1.485 10 3 C9.34 3 8.68 3 8 3 C8 2.01 8 1.02 8 0 Z " fill="#DF1A17" transform="translate(694,298)"/>
<path d="M0 0 C2.96659857 3.55991828 5.381348 7.65222543 7 12 C6.67 12.66 6.34 13.32 6 14 C2.45287459 10.81668232 0.37229362 8.8398171 0 4 C0 2.68 0 1.36 0 0 Z " fill="#FEE6DF" transform="translate(745,380)"/>
<path d="M0 0 C0.99 0 1.98 0 3 0 C2.67 2.64 2.34 5.28 2 8 C0.02 8 -1.96 8 -4 8 C-4 7.34 -4 6.68 -4 6 C-2.68 6 -1.36 6 0 6 C0 4.02 0 2.04 0 0 Z " fill="#F60C0D" transform="translate(564,384)"/>
<path d="M0 0 C0.66 0 1.32 0 2 0 C0.56032356 5.23518706 -1.81696611 9.63026009 -5 14 C-5.33 14 -5.66 14 -6 14 C-6.25532751 10.93606987 -6.21861333 9.36766788 -4.625 6.6875 C-3.820625 5.8521875 -3.820625 5.8521875 -3 5 C-2.34 5 -1.68 5 -1 5 C-0.67 3.35 -0.34 1.7 0 0 Z " fill="#FEDFD7" transform="translate(685,355)"/>
<path d="M0 0 C1.02328619 3.19411474 0.96256253 5.4215884 0.25 8.6875 C0.09015625 9.47511719 -0.0696875 10.26273437 -0.234375 11.07421875 C-0.61335937 12.02748047 -0.61335937 12.02748047 -1 13 C-1.99 13.33 -2.98 13.66 -4 14 C-3.52372025 12.04096255 -3.04388577 10.08278903 -2.5625 8.125 C-2.29566406 7.03445313 -2.02882813 5.94390625 -1.75390625 4.8203125 C-1 2 -1 2 0 0 Z " fill="#DA2D29" transform="translate(572,284)"/>
<path d="M0 0 C1.09651823 3.41139003 0.94215473 6.20655581 0.5625 9.75 C0.40974609 11.22726562 0.40974609 11.22726562 0.25390625 12.734375 C0.12822266 13.85585938 0.12822266 13.85585938 0 15 C-0.99 15 -1.98 15 -3 15 C-2.44854729 9.76119922 -1.57077907 5.02649303 0 0 Z " fill="#FCD2CA" transform="translate(576,379)"/>
<path d="M0 0 C1.76141726 2.64212589 3.23818698 5.2427764 4.6875 8.0625 C5.14511719 8.94035156 5.60273438 9.81820313 6.07421875 10.72265625 C6.37972656 11.47417969 6.68523437 12.22570312 7 13 C6.67 13.66 6.34 14.32 6 15 C1.85722941 10.16676765 -0.36937261 6.46402065 0 0 Z " fill="#FCD2CB" transform="translate(374,379)"/>
<path d="M0 0 C2.11386464 2.11386464 2.97008322 3.79267603 4.1875 6.5 C4.55230469 7.2940625 4.91710937 8.088125 5.29296875 8.90625 C5.52628906 9.5971875 5.75960938 10.288125 6 11 C5.67 11.66 5.34 12.32 5 13 C4.01 12.34 3.02 11.68 2 11 C2 10.01 2 9.02 2 8 C1.34 7.67 0.68 7.34 0 7 C0 4.69 0 2.38 0 0 Z " fill="#FDDBD3" transform="translate(362,353)"/>
<path d="M0 0 C1.6852084 4.07679159 0.16939007 6.83075593 -1.4375 10.75 C-1.91058594 11.92046875 -2.38367188 13.0909375 -2.87109375 14.296875 C-3.24363281 15.18890625 -3.61617187 16.0809375 -4 17 C-5.05603065 13.81773316 -4.97463666 12.14308774 -3.6875 9.0625 C-3.40648437 8.37285156 -3.12546875 7.68320312 -2.8359375 6.97265625 C-2.56007812 6.32167969 -2.28421875 5.67070312 -2 5 C-1.4121875 3.515 -1.4121875 3.515 -0.8125 2 C-0.544375 1.34 -0.27625 0.68 0 0 Z " fill="#CF2B2B" transform="translate(182,326)"/>
<path d="M0 0 C1.98362069 2.91708924 1.9876191 4.12380904 1.625 7.75 C1.41875 8.8225 1.2125 9.895 1 11 C-0.32 11.33 -1.64 11.66 -3 12 C-2.649375 10.9275 -2.29875 9.855 -1.9375 8.75 C-0.93284239 4.74564889 -0.93284239 4.74564889 -2 1 C-1.34 0.67 -0.68 0.34 0 0 Z " fill="#E22222" transform="translate(708,314)"/>
<path d="M0 0 C0.33 0 0.66 0 1 0 C0.88529863 1.75070517 0.75780972 3.50057536 0.625 5.25 C0.55539062 6.22453125 0.48578125 7.1990625 0.4140625 8.203125 C0.01534751 10.89633189 -0.63507063 12.66963279 -2 15 C-2.66 15 -3.32 15 -4 15 C-3.52229477 13.06213915 -3.04278429 11.12472326 -2.5625 9.1875 C-2.29566406 8.10855469 -2.02882813 7.02960938 -1.75390625 5.91796875 C-1.23922588 3.9259157 -0.65062825 1.95188476 0 0 Z " fill="#D53331" transform="translate(577,267)"/>
<path d="M0 0 C1.875 0.3125 1.875 0.3125 4 1 C6.29013653 4.4352048 6.17842973 5.985331 6 10 C3.25722422 6.80009492 1.3697164 3.99500618 0 0 Z " fill="#FDE6DC" transform="translate(785,370)"/>
<path d="M0 0 C-1.31061591 4.23429756 -2.94356259 8.07407404 -5 12 C-6.10773342 8.67679974 -5.93312508 7.30835256 -5 4 C-4.34 3.34 -3.68 2.68 -3 2 C-3.66 1.67 -4.32 1.34 -5 1 C-3 0 -3 0 0 0 Z " fill="#D92320" transform="translate(726,362)"/>
<path d="M0 0 C1.99097846 2.98646769 2.94124926 5.59687262 4 9 C3.34 9 2.68 9 2 9 C2 8.34 2 7.68 2 7 C0.68 7.33 -0.64 7.66 -2 8 C-2.33 6.35 -2.66 4.7 -3 3 C-2.34 3.66 -1.68 4.32 -1 5 C-0.67 3.35 -0.34 1.7 0 0 Z " fill="#DF2220" transform="translate(379,325)"/>
<path d="M0 0 C0.33 0 0.66 0 1 0 C1.25 6.625 1.25 6.625 -1 10 C-1.99 10 -2.98 10 -4 10 C-2.8905928 6.51329166 -1.73662334 3.22515763 0 0 Z " fill="#DE312B" transform="translate(738,277)"/>
<path d="M0 0 C0.66 0 1.32 0 2 0 C2.27714844 0.69867188 2.55429687 1.39734375 2.83984375 2.1171875 C3.20207031 3.02726562 3.56429687 3.93734375 3.9375 4.875 C4.29714844 5.77992188 4.65679688 6.68484375 5.02734375 7.6171875 C5.94901262 9.96137667 5.94901262 9.96137667 7 12 C5.68 12 4.36 12 3 12 C2.01 8.04 1.02 4.08 0 0 Z " fill="#FDDFDB" transform="translate(658,382)"/>
<path d="M0 0 C3.28768825 1.09589608 3.64293383 1.47727309 5.3125 4.3125 C5.67988281 4.90675781 6.04726563 5.50101562 6.42578125 6.11328125 C7 8 7 8 5 12 C3.35 8.04 1.7 4.08 0 0 Z " fill="#FDE2DC" transform="translate(349,255)"/>
<path d="M0 0 C0.33 0 0.66 0 1 0 C1.21278058 4.46839215 0.59138085 7.82262526 -1 12 C-3 9 -3 9 -2.75 6.5625 C-2.05282249 4.18047686 -1.20252143 2.16453858 0 0 Z " fill="#FDECE0" transform="translate(553,338)"/>
<path d="M0 0 C2.74277578 3.19990508 4.6302836 6.00499382 6 10 C4.125 9.75 4.125 9.75 2 9 C-0.11103658 6.04454879 -0.19785783 3.56144099 0 0 Z " fill="#FDE4DC" transform="translate(674,266)"/>
<path d="M0 0 C0.33 0 0.66 0 1 0 C0.7357513 5.37305699 0.7357513 5.37305699 0 8 C-2.5625 10 -2.5625 10 -5 11 C-3.55049545 7.2089881 -1.84827434 3.6125362 0 0 Z " fill="#FBDDD9" transform="translate(794,256)"/>
<path d="M0 0 C0.99 0 1.98 0 3 0 C4 4 5 8 6 12 C5.34 12 4.68 12 4 12 C3.32645501 10.56570999 2.66140299 9.12742943 2 7.6875 C1.62875 6.88699219 1.2575 6.08648437 0.875 5.26171875 C0 3 0 3 0 0 Z " fill="#D3292A" transform="translate(375,379)"/>
<path d="M0 0 C3.3 0.33 6.6 0.66 10 1 C9.67 1.66 9.34 2.32 9 3 C2.25 3.125 2.25 3.125 0 2 C0 1.34 0 0.68 0 0 Z " fill="#F70D10" transform="translate(582,370)"/>
<path d="M0 0 C-1.14453125 1.48828125 -1.14453125 1.48828125 -3 3 C-5.69921875 3.29296875 -5.69921875 3.29296875 -8.6875 3.1875 C-9.68136719 3.16042969 -10.67523438 3.13335937 -11.69921875 3.10546875 C-12.45847656 3.07066406 -13.21773437 3.03585937 -14 3 C-14 2.67 -14 2.34 -14 2 C-12.04396149 1.47061343 -10.08507711 0.95173199 -8.125 0.4375 C-7.03445312 0.14746094 -5.94390625 -0.14257812 -4.8203125 -0.44140625 C-2 -1 -2 -1 0 0 Z " fill="#FDDCD1" transform="translate(162,358)"/>
<path d="M0 0 C2.22825644 2.22825644 2.69239369 3.65761628 3.625 6.625 C4.01558594 7.85089844 4.01558594 7.85089844 4.4140625 9.1015625 C4.60742188 9.72804688 4.80078125 10.35453125 5 11 C2 10 2 10 0 7 C-0.07905064 4.66800612 -0.08798769 2.33167378 0 0 Z " fill="#FCDDD6" transform="translate(357,342)"/>
<path d="M0 0 C0.99 0 1.98 0 3 0 C3.66 3.63 4.32 7.26 5 11 C2.09591658 7.12788877 1.14920536 4.59682146 0 0 Z " fill="#D62624" transform="translate(353,331)"/>
<path d="M0 0 C2.96052484 3.36423277 3.92289822 6.69159287 5 11 C4.01 11.495 4.01 11.495 3 12 C2.34 9.03 1.68 6.06 1 3 C0.01 3 -0.98 3 -2 3 C-1 1 -1 1 0 0 Z " fill="#DA292A" transform="translate(374,314)"/>
<path d="M0 0 C2.61500768 2.36595933 4.38999603 4.86049226 6 8 C5.67 8.66 5.34 9.32 5 10 C3.0625 8.9375 3.0625 8.9375 1 7 C0.25 3.3125 0.25 3.3125 0 0 Z " fill="#DC2628" transform="translate(782,367)"/>
<path d="M0 0 C2.09749995 2.35968744 2.96905704 3.54616994 3.1875 6.75 C3.125625 7.4925 3.06375 8.235 3 9 C2.34 9 1.68 9 1 9 C-0.61949011 6.42786866 -1.04408751 5.32330841 -0.625 2.25 C-0.41875 1.5075 -0.2125 0.765 0 0 Z " fill="#F90C09" transform="translate(713,371)"/>
<path d="M0 0 C0.99 0.33 1.98 0.66 3 1 C3 5.29 3 9.58 3 14 C2.67 14 2.34 14 2 14 C1.34 9.38 0.68 4.76 0 0 Z " fill="#D62625" transform="translate(612,337)"/>
<path d="M0 0 C0.66 0 1.32 0 2 0 C1.49701212 4.40114397 -0.08772731 6.71195019 -3 10 C-3.3636198 5.75776898 -2.5393228 3.41831915 0 0 Z " fill="#D42925" transform="translate(767,297)"/>
<path d="M0 0 C2.50298434 2.93828597 3.46930939 5.17902761 4 9 C2.68 9 1.36 9 0 9 C0 6.03 0 3.06 0 0 Z " fill="#DE2A27" transform="translate(362,286)"/>
<path d="M0 0 C2.64 0.66 5.28 1.32 8 2 C8 2.99 8 3.98 8 5 C5.36 4.34 2.72 3.68 0 3 C0 2.01 0 1.02 0 0 Z " fill="#F8FBF3" transform="translate(792,395)"/>
<path d="M0 0 C4.62 0 9.24 0 14 0 C14.33 0.66 14.66 1.32 15 2 C14.01 2.33 13.02 2.66 12 3 C11.67 2.67 11.34 2.34 11 2 C9.15108054 1.76636119 7.29511969 1.58696365 5.4375 1.4375 C4.42558594 1.35371094 3.41367188 1.26992188 2.37109375 1.18359375 C1.19740234 1.09271484 1.19740234 1.09271484 0 1 C0 0.67 0 0.34 0 0 Z M10 3 C12 4 12 4 12 4 Z " fill="#FEF4F5" transform="translate(94,395)"/>
<path d="M0 0 C2.64465038 3.1254959 3.84414715 6.08788267 5 10 C4.01 9.67 3.02 9.34 2 9 C2 8.01 2 7.02 2 6 C1.34 6 0.68 6 0 6 C0 4.02 0 2.04 0 0 Z " fill="#D62C28" transform="translate(725,279)"/>
<path d="M0 0 C4.42857143 5.14285714 4.42857143 5.14285714 5 9 C3.125 8.875 3.125 8.875 1 8 C-0.3125 5.0625 -0.3125 5.0625 -1 2 C-0.67 1.34 -0.34 0.68 0 0 Z " fill="#FCE3D8" transform="translate(680,276)"/>
<path d="M0 0 C0.88336837 2.4667645 1.1312406 3.63859372 0.22265625 6.140625 C-0.16019531 6.83671875 -0.54304687 7.5328125 -0.9375 8.25 C-1.31777344 8.95640625 -1.69804688 9.6628125 -2.08984375 10.390625 C-2.39019531 10.92171875 -2.69054687 11.4528125 -3 12 C-3.66 12 -4.32 12 -5 12 C-3.68938409 7.76570244 -2.05643741 3.92592596 0 0 Z " fill="#D53631" transform="translate(744,265)"/>
<path d="M0 0 C0.66 0 1.32 0 2 0 C0.125 5.875 0.125 5.875 -1 7 C-2.66617115 7.04063832 -4.33388095 7.042721 -6 7 C-5 5 -5 5 -2 4 C-0.79117904 1.99983534 -0.79117904 1.99983534 0 0 Z " fill="#D61F23" transform="translate(712,386)"/>
<path d="M0 0 C1.90318884 2.85478326 2.4619099 4.41941308 3.125 7.6875 C3.29257812 8.49574219 3.46015625 9.30398438 3.6328125 10.13671875 C3.75398437 10.75160156 3.87515625 11.36648438 4 12 C3.01 12 2.02 12 1 12 C0.67 8.04 0.34 4.08 0 0 Z " fill="#FAC6BA" transform="translate(623,382)"/>
<path d="M0 0 C0.33 0 0.66 0 1 0 C1 2.64 1 5.28 1 8 C0.34 8 -0.32 8 -1 8 C-1 8.66 -1 9.32 -1 10 C-1.66 10 -2.32 10 -3 10 C-2.01 6.7 -1.02 3.4 0 0 Z " fill="#D6312E" transform="translate(550,354)"/>
<path d="M0 0 C0.6875 1.625 0.6875 1.625 1 4 C-1.33333333 9.66666667 -1.33333333 9.66666667 -4 11 C-3.5247412 9.35303396 -3.04468109 7.70745272 -2.5625 6.0625 C-2.29566406 5.14597656 -2.02882813 4.22945313 -1.75390625 3.28515625 C-1 1 -1 1 0 0 Z " fill="#FDE3DF" transform="translate(764,307)"/>
<path d="M0 0 C1 3 1 3 -0.25 6.125 C-2 9 -2 9 -5 10 C-3.66511872 6.40608886 -2.03977277 3.24509304 0 0 Z " fill="#FCD5D0" transform="translate(773,292)"/>
<path d="M0 0 C0.6875 1.6875 0.6875 1.6875 1 4 C-0.4375 6.75 -0.4375 6.75 -2 9 C-2.97110486 5.97878489 -3.13617383 3.99536737 -2 1 C-1.34 0.67 -0.68 0.34 0 0 Z " fill="#DC2624" transform="translate(792,256)"/>
<path d="M0 0 C1.32 0.33 2.64 0.66 4 1 C2.35 2.98 0.7 4.96 -1 7 C-1.66 6.34 -2.32 5.68 -3 5 C-2.01 3.35 -1.02 1.7 0 0 Z " fill="#DA2C2A" transform="translate(172,345)"/>
<path d="M0 0 C0.33 0 0.66 0 1 0 C1.25 3.25 1.25 3.25 1 7 C-0.32 8.32 -1.64 9.64 -3 11 C-2.01 7.37 -1.02 3.74 0 0 Z " fill="#FDD8D3" transform="translate(184,324)"/>
<path d="M0 0 C0.99 0.33 1.98 0.66 3 1 C3 3.97 3 6.94 3 10 C0.70366176 6.55549263 0.45983515 4.06187717 0 0 Z " fill="#DA2326" transform="translate(622,375)"/>
<path d="M0 0 C2.64 0 5.28 0 8 0 C5.09907498 1.93395001 4.10325263 2.30131941 0.8125 2.625 C-0.445625 2.74875 -1.70375 2.8725 -3 3 C-2.01 2.67 -1.02 2.34 0 2 C0 1.34 0 0.68 0 0 Z " fill="#D62B2C" transform="translate(152,357)"/>
<path d="M0 0 C0.33 0.66 0.66 1.32 1 2 C0.67 2.66 0.34 3.32 0 4 C0.66 4.33 1.32 4.66 2 5 C0.1875 6.0625 0.1875 6.0625 -2 7 C-2.99 6.67 -3.98 6.34 -5 6 C-3.35 4.02 -1.7 2.04 0 0 Z " fill="#FAD4D0" transform="translate(177,343)"/>
<path d="M0 0 C1.485 0.99 1.485 0.99 3 2 C3.40843923 4.71203652 3.13336867 7.2437142 3 10 C0.70366176 6.55549263 0.45983515 4.06187717 0 0 Z " fill="#D12E31" transform="translate(609,326)"/>
<path d="M0 0 C1.32 0 2.64 0 4 0 C3.625 2.9375 3.625 2.9375 3 6 C2.01 6.495 2.01 6.495 1 7 C0.67 4.69 0.34 2.38 0 0 Z " fill="#DF2321" transform="translate(755,313)"/>
<path d="M0 0 C0.66 0 1.32 0 2 0 C0.8141763 3.37503669 -0.27573689 5.64722731 -3 8 C-3 6.35 -3 4.7 -3 3 C-2.01 2.67 -1.02 2.34 0 2 C0 1.34 0 0.68 0 0 Z " fill="#D82726" transform="translate(787,265)"/>
<path d="M0 0 C0.99 0.33 1.98 0.66 3 1 C3.33 3.64 3.66 6.28 4 9 C1.49701566 6.06171403 0.53069061 3.82097239 0 0 Z " fill="#FDDADB" transform="translate(720,266)"/>
<path d="M0 0 C1.32 0.33 2.64 0.66 4 1 C4 2.98 4 4.96 4 7 C0 2.25 0 2.25 0 0 Z " fill="#FEE4D8" transform="translate(793,383)"/>
<path d="M0 0 C0.99 0.33 1.98 0.66 3 1 C3.5625 2.9375 3.5625 2.9375 4 5 C4.66 5.66 5.32 6.32 6 7 C5.01 7.33 4.02 7.66 3 8 C0 2.25 0 2.25 0 0 Z " fill="#D92D2D" transform="translate(737,362)"/>
<path d="M0 0 C1.32 0.33 2.64 0.66 4 1 C5.25 4.0625 5.25 4.0625 6 7 C5.01 7.495 5.01 7.495 4 8 C2.68 5.36 1.36 2.72 0 0 Z " fill="#FEE4DB" transform="translate(768,342)"/>
<path d="M0 0 C0.33 0.66 0.66 1.32 1 2 C0.22265625 3.9453125 0.22265625 3.9453125 -0.9375 6.125 C-1.31777344 6.84945313 -1.69804688 7.57390625 -2.08984375 8.3203125 C-2.39019531 8.87460937 -2.69054687 9.42890625 -3 10 C-3.66 10 -4.32 10 -5 10 C-3.66511872 6.40608886 -2.03977277 3.24509304 0 0 Z " fill="#D52F2A" transform="translate(700,334)"/>
<path d="M0 0 C0.33 0 0.66 0 1 0 C1 2.64 1 5.28 1 8 C0.34 8 -0.32 8 -1 8 C-1.33 8.66 -1.66 9.32 -2 10 C-1.54177532 6.53058454 -1.10868317 3.32604951 0 0 Z " fill="#D83136" transform="translate(556,334)"/>
<path d="M0 0 C2.72426311 2.35277269 3.8141763 4.62496331 5 8 C3.68 7.67 2.36 7.34 1 7 C0.67 4.69 0.34 2.38 0 0 Z " fill="#FCD9CF" transform="translate(700,310)"/>
<path d="M0 0 C1.65 0 3.3 0 5 0 C4.01 0.33 3.02 0.66 2 1 C2 1.99 2 2.98 2 4 C0.68 4.33 -0.64 4.66 -2 5 C-2 4.01 -2 3.02 -2 2 C-1.34 2 -0.68 2 0 2 C0 1.34 0 0.68 0 0 Z " fill="#E1150E" transform="translate(276,310)"/>
<path d="M0 0 C1.98 0.99 1.98 0.99 4 2 C4 3.32 4 4.64 4 6 C4.66 6.33 5.32 6.66 6 7 C5.01 7 4.02 7 3 7 C0 2.77777778 0 2.77777778 0 0 Z " fill="#DB2C2C" transform="translate(679,273)"/>
<path d="M0 0 C0.66 0 1.32 0 2 0 C4.1875 2.75 4.1875 2.75 6 6 C5.67 7.32 5.34 8.64 5 10 C3.35 6.7 1.7 3.4 0 0 Z " fill="#D0302E" transform="translate(673,263)"/>
<path d="M0 0 C0.12375 0.5775 0.2475 1.155 0.375 1.75 C1.00648824 4.02335767 1.88858191 5.9253529 3 8 C2.01 8.495 2.01 8.495 1 9 C-2 3.25 -2 3.25 -2 1 C-1.34 0.67 -0.68 0.34 0 0 Z " fill="#FEE6E2" transform="translate(716,253)"/>
</svg>
