<?xml version="1.0" encoding="UTF-8"?>
<!DOCTYPE svg PUBLIC "-//W3C//DTD SVG 1.1//EN" "http://www.w3.org/Graphics/SVG/1.1/DTD/svg11.dtd">
<svg xmlns="http://www.w3.org/2000/svg" version="1.1" width="1900px" height="1000px" style="shape-rendering:geometricPrecision; text-rendering:geometricPrecision; image-rendering:optimizeQuality; fill-rule:evenodd; clip-rule:evenodd" xmlns:xlink="http://www.w3.org/1999/xlink">
<g><path style="opacity:1" fill="#fefefe" d="M -0.5,-0.5 C 632.833,-0.5 1266.17,-0.5 1899.5,-0.5C 1899.5,332.833 1899.5,666.167 1899.5,999.5C 1266.17,999.5 632.833,999.5 -0.5,999.5C -0.5,666.167 -0.5,332.833 -0.5,-0.5 Z"/></g>
<g><path style="opacity:1" fill="#111111" d="M 522.5,324.5 C 522.5,352.167 522.5,379.833 522.5,407.5C 477.997,407.168 433.664,407.501 389.5,408.5C 389.5,497.167 389.5,585.833 389.5,674.5C 361.5,674.5 333.5,674.5 305.5,674.5C 305.5,557.833 305.5,441.167 305.5,324.5C 377.833,324.5 450.167,324.5 522.5,324.5 Z"/></g>
<g><path style="opacity:1" fill="#111111" d="M 579.5,325.5 C 610.997,324.336 642.664,324.169 674.5,325C 701.056,367.287 727.722,409.454 754.5,451.5C 780.833,409.5 807.167,367.5 833.5,325.5C 865.167,324.167 896.833,324.167 928.5,325.5C 884.333,395.833 840.167,466.167 796,536.5C 795.5,582.499 795.333,628.499 795.5,674.5C 767.5,674.5 739.5,674.5 711.5,674.5C 711.667,627.499 711.5,580.499 711,533.5C 667.392,463.933 623.559,394.6 579.5,325.5 Z"/></g>
<g><path style="opacity:1" fill="#111111" d="M 985.5,324.5 C 1013.5,324.5 1041.5,324.5 1069.5,324.5C 1069.5,413.167 1069.5,501.833 1069.5,590.5C 1113.83,590.5 1158.17,590.5 1202.5,590.5C 1202.5,618.5 1202.5,646.5 1202.5,674.5C 1130.17,674.5 1057.83,674.5 985.5,674.5C 985.5,557.833 985.5,441.167 985.5,324.5 Z"/></g>
<g><path style="opacity:1" fill="#111111" d="M 1402.5,324.5 C 1475.88,320.934 1532.04,349.934 1571,411.5C 1599.79,464.698 1602.13,519.031 1578,574.5C 1550.04,629.582 1505.54,662.415 1444.5,673C 1380.6,679.819 1327.43,659.319 1285,611.5C 1247.52,563.08 1236.52,509.08 1252,449.5C 1266.59,404.253 1294.42,369.753 1335.5,346C 1356.65,334.671 1378.98,327.505 1402.5,324.5 Z"/></g>
<g><path style="opacity:1" fill="#fefefe" d="M 1405.5,405.5 C 1451.14,402.061 1483.98,420.728 1504,461.5C 1518.53,503.215 1509.36,538.715 1476.5,568C 1439.41,593.594 1402.08,593.927 1364.5,569C 1333.7,543.264 1322.87,510.764 1332,471.5C 1344.12,435.544 1368.62,413.544 1405.5,405.5 Z"/></g>
<g><path style="opacity:1" fill="#414141" d="M 522.5,324.5 C 523.498,352.328 523.831,380.328 523.5,408.5C 478.833,408.5 434.167,408.5 389.5,408.5C 433.664,407.501 477.997,407.168 522.5,407.5C 522.5,379.833 522.5,352.167 522.5,324.5 Z"/></g>
</svg>
