<?xml version="1.0" standalone="no"?>
<!DOCTYPE svg PUBLIC "-//W3C//DTD SVG 20010904//EN"
 "http://www.w3.org/TR/2001/REC-SVG-20010904/DTD/svg10.dtd">
<svg version="1.0" xmlns="http://www.w3.org/2000/svg"
 width="2560.000000pt" height="1800.000000pt" viewBox="0 0 2560.000000 1800.000000"
 preserveAspectRatio="xMidYMid meet">

<g transform="translate(0.000000,1800.000000) scale(0.100000,-0.100000)"
fill="#000000" stroke="none">
<path d="M2775 11533 c-657 -40 -1219 -258 -1570 -608 -198 -197 -319 -423
-377 -703 -28 -137 -31 -421 -5 -545 82 -393 292 -671 647 -860 285 -151 654
-227 1415 -292 699 -60 907 -101 1080 -210 145 -92 214 -244 185 -406 -38
-210 -250 -378 -586 -464 -189 -48 -306 -59 -604 -60 -155 0 -330 6 -400 13
-433 45 -856 146 -1236 297 -63 25 -119 45 -125 45 -6 0 -36 -55 -68 -122 -32
-68 -88 -185 -125 -261 -36 -77 -66 -140 -66 -142 0 -1 -36 -78 -81 -170 -44
-92 -79 -168 -77 -170 19 -18 318 -131 508 -193 512 -167 1141 -272 1632 -272
276 0 679 49 938 115 915 232 1428 814 1396 1585 -15 361 -128 634 -361 865
-113 113 -199 174 -364 257 -286 145 -601 204 -1336 253 -370 25 -545 47 -833
106 -355 72 -502 192 -502 407 0 308 329 526 878 583 168 17 591 6 757 -19
244 -38 454 -91 700 -176 127 -44 174 -62 324 -125 41 -17 75 -30 76 -29 1 2
49 82 107 178 252 420 388 652 388 663 0 7 -12 18 -27 24 -16 6 -71 30 -123
53 -502 221 -1100 351 -1760 380 -216 9 -296 10 -405 3z"/>
<path d="M10490 11504 c-25 -3 -110 -14 -190 -25 -597 -85 -1079 -303 -1452
-657 -304 -288 -511 -656 -624 -1106 -119 -473 -119 -1056 2 -1515 218 -832
822 -1417 1691 -1636 352 -89 726 -121 1118 -96 580 38 1022 164 1377 394 400
259 670 660 792 1177 62 261 71 358 71 820 0 234 -4 455 -8 493 l-9 67 -1334
0 -1334 0 2 -467 3 -468 815 -5 815 -5 -3 -90 c-15 -398 -237 -703 -638 -879
-233 -102 -469 -146 -781 -146 -862 0 -1409 442 -1540 1245 -25 154 -25 586 0
725 68 368 181 607 390 818 204 207 459 332 812 397 135 26 532 31 757 11 425
-38 758 -126 1168 -310 69 -31 128 -56 132 -56 7 0 25 29 297 469 99 161 181
297 181 301 0 5 -48 35 -106 66 -427 229 -960 385 -1574 460 -129 16 -712 28
-830 18z"/>
<path d="M6180 8990 l0 -2320 513 2 512 3 0 2315 0 2315 -512 3 -513 2 0
-2320z"/>
<path d="M14636 11283 c-3 -16 -20 -116 -36 -223 -17 -107 -37 -235 -45 -285
-8 -49 -28 -173 -44 -275 -17 -102 -51 -318 -76 -480 -25 -162 -54 -349 -65
-415 -82 -508 -104 -647 -125 -782 -8 -54 -20 -125 -25 -158 -5 -33 -41 -258
-80 -500 -157 -990 -230 -1458 -230 -1476 0 -18 14 -19 500 -19 392 0 502 3
505 13 4 10 77 537 150 1072 15 115 83 608 155 1125 27 195 72 522 100 725 28
204 53 376 55 383 11 31 25 2 59 -125 21 -76 69 -255 107 -398 39 -143 77
-285 85 -315 8 -30 50 -187 94 -350 44 -163 86 -320 94 -350 60 -224 165 -615
206 -765 27 -99 85 -315 130 -480 44 -165 94 -353 112 -417 l32 -118 425 0
426 0 43 158 c23 86 78 292 123 457 44 165 102 381 129 480 100 370 201 747
260 965 110 412 273 1016 319 1185 10 39 21 63 24 55 3 -8 17 -96 31 -195 24
-168 143 -990 236 -1630 22 -154 63 -435 90 -625 27 -190 65 -453 85 -585 19
-132 35 -246 35 -252 0 -10 111 -13 521 -13 491 0 520 1 516 18 -6 20 -13 64
-62 367 -20 121 -63 384 -96 585 -33 201 -98 599 -145 885 -46 286 -118 725
-159 975 -41 250 -97 592 -125 760 -27 168 -76 470 -110 672 -33 201 -60 369
-60 372 0 3 -305 6 -679 6 l-679 0 -11 -47 c-7 -27 -32 -118 -56 -203 -70
-250 -224 -804 -260 -940 -19 -69 -54 -197 -78 -285 -25 -88 -100 -358 -167
-600 -147 -533 -134 -489 -151 -493 -10 -2 -21 23 -38 85 -13 49 -41 147 -62
218 -45 152 -486 1695 -535 1870 -18 66 -51 181 -72 255 l-38 135 -666 3 -666
2 -6 -27z"/>
<path d="M21557 11303 c-3 -5 -64 -159 -137 -343 -73 -184 -201 -508 -285
-720 -84 -212 -187 -470 -228 -575 -41 -104 -146 -368 -232 -585 -86 -217
-185 -467 -220 -555 -35 -88 -120 -304 -190 -480 -288 -725 -361 -909 -430
-1085 -40 -102 -82 -209 -94 -238 l-21 -52 507 2 507 3 23 60 c13 33 53 134
88 225 71 185 230 593 245 628 l10 22 1136 -2 1137 -3 37 -90 c20 -49 62 -155
93 -235 31 -80 96 -248 146 -375 l90 -230 541 -3 c433 -2 541 0 537 10 -3 7
-23 58 -45 113 -23 55 -92 231 -155 390 -112 282 -230 581 -422 1065 -51 129
-141 357 -200 505 -58 149 -122 308 -141 355 -20 47 -53 130 -74 185 -21 55
-122 312 -225 570 -102 259 -232 585 -288 725 -55 140 -142 359 -192 485 l-92
230 -711 3 c-391 1 -713 -1 -715 -5z m756 -988 c31 -77 74 -189 97 -250 23
-60 75 -193 115 -295 235 -594 495 -1265 495 -1279 0 -8 -211 -11 -785 -11
-529 0 -785 3 -785 10 0 6 61 162 136 348 75 185 200 497 279 692 78 195 196
487 261 648 65 161 121 289 125 285 4 -5 32 -71 62 -148z"/>
</g>
</svg>
