<?xml version="1.0" standalone="no"?>
<!DOCTYPE svg PUBLIC "-//W3C//DTD SVG 20010904//EN"
 "http://www.w3.org/TR/2001/REC-SVG-20010904/DTD/svg10.dtd">
<svg version="1.0" xmlns="http://www.w3.org/2000/svg"
 width="530.000000pt" height="400.000000pt" viewBox="0 0 530.000000 400.000000"
 preserveAspectRatio="xMidYMid meet">

<g transform="translate(0.000000,400.000000) scale(0.100000,-0.100000)"
fill="#000000" stroke="none">
<path d="M0 2000 l0 -2000 2650 0 2650 0 0 2000 0 2000 -2650 0 -2650 0 0
-2000z m1155 324 c38 -14 77 -27 86 -30 12 -4 18 2 23 21 6 24 10 26 59 23
l52 -3 3 -122 3 -123 -54 0 c-50 0 -56 2 -66 28 -19 42 -97 98 -172 122 -129
42 -324 13 -344 -50 -16 -51 40 -76 243 -105 206 -30 253 -41 320 -72 156 -73
147 -249 -17 -333 -123 -62 -362 -65 -521 -5 -67 25 -94 25 -98 -2 -3 -21 -9
-23 -63 -23 l-59 0 0 130 0 130 54 0 c50 0 54 -2 66 -30 17 -41 89 -97 157
-122 71 -26 264 -31 326 -10 43 16 72 52 62 81 -9 30 -67 47 -269 81 -207 34
-288 56 -336 90 -62 44 -78 142 -37 215 25 44 105 98 171 116 130 35 300 32
411 -7z m1069 21 c148 -31 272 -116 317 -218 49 -108 24 -254 -59 -348 -34
-39 -123 -91 -199 -115 -76 -25 -322 -31 -417 -10 -146 33 -250 107 -299 214
-33 71 -31 189 4 262 73 153 228 227 479 229 58 0 136 -6 174 -14z m1946 -55
l0 -50 -36 0 c-26 0 -35 -4 -32 -14 5 -22 137 -166 152 -166 15 0 166 156 166
171 0 5 -16 9 -36 9 l-35 0 3 48 3 47 178 3 177 2 0 -50 0 -50 -49 0 -49 0
-146 -160 -146 -160 0 -80 c0 -92 7 -100 89 -100 l51 0 0 -45 0 -45 -250 0
-250 0 0 45 0 45 59 0 c81 0 91 12 91 105 l0 73 -102 114 c-188 207 -189 208
-242 208 l-46 0 0 50 0 50 225 0 225 0 0 -50z m-1005 -159 l210 -198 3 140 c2
94 -1 144 -9 153 -7 9 -32 14 -65 14 l-54 0 0 45 0 45 200 0 200 0 0 -45 0
-45 -44 0 c-82 0 -76 22 -76 -301 l0 -289 -82 0 -83 0 -243 230 c-134 127
-245 230 -247 230 -9 0 -5 -345 3 -357 5 -7 36 -16 70 -19 l62 -7 0 -38 0 -39
-210 0 -210 0 0 39 0 38 61 7 c33 3 65 8 70 12 15 9 12 469 -4 482 -7 6 -37
12 -67 14 -52 3 -55 5 -58 31 -7 57 -8 57 185 57 l178 -1 210 -198z m1539
-383 c9 -12 16 -31 16 -41 0 -24 -44 -67 -70 -67 -49 0 -80 79 -44 114 24 24
80 20 98 -6z"/>
<path d="M1957 2256 c-109 -30 -177 -127 -177 -251 0 -91 23 -158 69 -204 91
-91 299 -95 398 -8 128 112 99 368 -50 445 -59 30 -168 39 -240 18z"/>
<path d="M4616 1744 c-9 -8 -16 -22 -16 -30 0 -55 66 -75 96 -29 15 23 15 27
0 50 -19 29 -56 33 -80 9z m65 -10 c10 -12 10 -17 1 -23 -7 -4 -10 -16 -7 -27
6 -18 6 -18 -8 -1 -8 9 -17 17 -20 17 -3 0 -8 -8 -10 -17 -3 -10 -5 1 -6 25
-1 35 2 42 18 42 10 0 24 -7 32 -16z"/>
<path d="M4640 1730 c0 -5 7 -10 15 -10 8 0 15 5 15 10 0 6 -7 10 -15 10 -8 0
-15 -4 -15 -10z"/>
</g>
</svg>
