<?xml version="1.0" encoding="UTF-8"?>
<svg version="1.1" xmlns="http://www.w3.org/2000/svg" width="1000" height="316">
<path d="M0 0 C0.97700701 -0.00768229 1.95401403 -0.01536458 2.96062732 -0.02327967 C4.57455556 -0.02068022 4.57455556 -0.02068022 6.22108841 -0.01802826 C7.36210738 -0.0239705 8.50312636 -0.02991275 9.67872167 -0.03603506 C12.8509047 -0.05040896 16.0229559 -0.0557547 19.19516659 -0.05723 C22.61452733 -0.06092953 26.03384102 -0.07602346 29.45317459 -0.08950043 C36.9325607 -0.11667534 44.41192539 -0.12871793 51.89135265 -0.13752174 C56.56109637 -0.14304552 61.2308318 -0.15152006 65.90056992 -0.16053009 C78.82825959 -0.18491711 91.75594261 -0.20551501 104.68365479 -0.21228027 C105.51121964 -0.21271941 106.33878449 -0.21315854 107.19142707 -0.21361098 C108.02097999 -0.21404753 108.85053291 -0.21448409 109.7052238 -0.21493387 C111.38623222 -0.21582081 113.06724064 -0.21671393 114.74824905 -0.21761322 C115.58208851 -0.21805608 116.41592797 -0.21849894 117.27503529 -0.21895522 C130.78525562 -0.22685069 144.29526015 -0.26175628 157.80539712 -0.30833226 C171.67417671 -0.35575891 185.54284802 -0.38068397 199.41171002 -0.38301611 C207.19935049 -0.38484974 214.98670987 -0.39635682 222.77427292 -0.43265533 C229.40599109 -0.46345722 236.03734132 -0.47369892 242.66911742 -0.45717913 C246.05264543 -0.44936485 249.43483018 -0.45448862 252.818367 -0.47929382 C256.4882416 -0.50462253 260.15620877 -0.4930426 263.82606888 -0.47212982 C264.89309815 -0.48824263 265.96012743 -0.50435544 267.05949092 -0.52095652 C273.15944009 -0.43953831 276.60626605 0.3988195 281.05123067 4.68322611 C283.3329621 7.62234806 283.40367871 10.38868256 283.40897369 13.95966148 C283.41281484 14.93093511 283.41665598 15.90220873 283.42061353 16.90291488 C283.41974705 17.97244938 283.41888056 19.04198389 283.41798782 20.14392853 C283.42244451 21.84532303 283.42244451 21.84532303 283.42699122 23.58108914 C283.43569954 27.40193921 283.43718827 31.22275803 283.43867874 35.04361725 C283.44276644 37.77483048 283.44830901 40.5060404 283.45372391 43.23725128 C283.46731032 50.67105494 283.47333227 58.1048532 283.47773457 65.5386672 C283.48049617 70.17891015 283.48473334 74.81915101 283.48923874 79.45939255 C283.50143124 92.30302233 283.51173096 105.14665043 283.51511383 117.99028587 C283.5153334 118.81241863 283.51555296 119.63455138 283.51577918 120.48159725 C283.51599746 121.3057112 283.51621574 122.12982514 283.51644063 122.97891223 C283.5168841 124.64891807 283.51733066 126.31892391 283.5177803 127.98892975 C283.51800173 128.8173126 283.51822316 129.64569545 283.5184513 130.49918081 C283.52240063 143.92661277 283.53985885 157.3539905 283.56313983 170.7814015 C283.58684071 184.56202401 283.59931508 198.3426193 283.60048175 212.12326252 C283.60139916 219.86268321 283.60716818 227.60203323 283.62530136 235.34143448 C283.64068524 241.93067904 283.64583294 248.51983109 283.63756326 255.10909019 C283.63365074 258.47178485 283.63624016 261.83414126 283.64862061 265.19683838 C283.6612521 268.84065949 283.65551094 272.48399811 283.6450386 276.12781525 C283.65712321 277.72542484 283.65712321 277.72542484 283.66945195 279.35530937 C283.62704112 285.6397857 282.94022983 289.15639098 278.77754593 294.01285553 C275.93650489 296.38038973 273.11618962 296.39058519 269.5863266 296.40266323 C268.61628638 296.40835447 267.64624615 296.41404571 266.64681077 296.41990942 C265.04455537 296.42167923 265.04455537 296.42167923 263.40993118 296.4234848 C261.71065338 296.43111653 261.71065338 296.43111653 259.97704673 296.43890244 C256.16087324 296.45466515 252.34471873 296.46316202 248.52852249 296.47159576 C246.49529131 296.47831381 244.46206412 296.48581574 242.42883614 296.49343609 C233.5335548 296.52675799 224.63826192 296.54827991 215.74293864 296.56663594 C213.42697564 296.57143105 211.11101312 296.57641435 208.79505062 296.58144116 C194.41462307 296.61240979 180.03419149 296.63909616 165.65373993 296.65585995 C162.32293821 296.65980947 158.99213656 296.66381246 155.66133499 296.66788483 C154.83347676 296.66889319 154.00561853 296.66990155 153.15267369 296.67094047 C139.7394595 296.68795035 126.3264297 296.72906355 112.91330555 296.77990782 C99.14397622 296.83167328 85.37474175 296.86080067 71.60531592 296.86805683 C63.87355351 296.87272018 56.14209319 296.88748266 48.41042709 296.92780113 C41.8262986 296.96209385 35.2425267 296.97604368 28.65831402 296.96337699 C25.29907553 296.95754799 21.94120186 296.96469635 18.58197403 296.99154663 C14.93838668 297.01911554 11.29669653 297.00976688 7.65309525 296.99111176 C6.59384787 297.00790668 5.53460049 297.02470161 4.44325471 297.04200548 C-1.68478578 296.96348557 -5.07287112 296.09681767 -9.49346948 291.74506527 C-11.75979586 289.01177549 -11.84934587 287.12973289 -11.85667515 283.66065598 C-11.86113299 282.68502331 -11.86559084 281.70939065 -11.87018377 280.70419335 C-11.8699994 279.62464623 -11.86981504 278.54509911 -11.86962509 277.43283844 C-11.87330178 276.29196832 -11.87697847 275.15109821 -11.88076657 273.97565627 C-11.88990447 270.79931151 -11.89450552 267.62299711 -11.89715588 264.44664145 C-11.90105496 261.02457212 -11.91063358 257.60251782 -11.91936874 254.18045807 C-11.93914468 245.91126586 -11.94920092 237.64207241 -11.95809653 229.37286246 C-11.9624777 225.48049758 -11.96784496 221.58813406 -11.9730854 217.69577026 C-11.99009902 204.75953834 -12.00459363 191.82330728 -12.01183414 178.88706589 C-12.0137441 175.52893065 -12.01566442 172.17079543 -12.01762009 168.81266022 C-12.01810383 167.97799295 -12.01858757 167.14332568 -12.01908597 166.28336546 C-12.02738788 152.75953031 -12.0527269 139.23578358 -12.08520076 125.71198705 C-12.1182561 111.83308067 -12.13628153 97.95421924 -12.13947839 84.07527328 C-12.14164493 76.28044769 -12.15041459 68.48575101 -12.17593956 60.69096375 C-12.1976258 54.05303152 -12.2057073 47.41525949 -12.19597278 40.77729586 C-12.19142182 37.39009318 -12.19553233 34.00348975 -12.21273422 30.61628723 C-12.23034235 26.94417909 -12.22340058 23.27291488 -12.21020126 19.60080719 C-12.22117051 18.53018296 -12.23213976 17.45955872 -12.2434414 16.35649133 C-12.19115774 10.34837302 -11.7809686 6.80937081 -7.72245407 2.26285553 C-4.51305802 0.12325816 -3.68881116 0.01087483 0 0 Z " fill="#FE6B0A" transform="translate(23.722454071044922,8.737144470214844)"/>
<path d="M0 0 C2.65863463 1.49470119 2.65863463 1.49470119 6.5234375 1.20703125 C9.00231197 0.22522609 9.00231197 0.22522609 11.5859375 -1.10546875 C26.8624975 -8.29563633 43.36131158 -10.06796936 59.5234375 -4.79296875 C67.9376676 -0.97357957 74.0623783 4.16123727 77.66308594 12.75708008 C80.56207585 21.04609635 80.01916516 29.55342289 79.9140625 38.21875 C79.90658828 40.04148229 79.90090094 41.86422269 79.89691162 43.68696594 C79.88174818 48.44968435 79.84254819 53.2119032 79.7980957 57.97442627 C79.75694087 62.84811651 79.73885772 67.72188865 79.71875 72.59570312 C79.67604336 82.13306562 79.60577129 91.66992845 79.5234375 101.20703125 C71.2734375 101.20703125 63.0234375 101.20703125 54.5234375 101.20703125 C54.50885498 98.96647949 54.49427246 96.72592773 54.47924805 94.41748047 C54.42885632 87.00536455 54.36225315 79.5934577 54.28772259 72.18154716 C54.24304132 67.68875811 54.20378029 63.19605926 54.17700195 58.703125 C54.15094653 54.36521073 54.1105284 50.02764401 54.06025124 45.68994522 C54.04359764 44.03704281 54.03207397 42.3840803 54.02582359 40.7311058 C54.01616589 38.41135178 53.9880881 36.09248387 53.95581055 33.77294922 C53.94470749 32.45390594 53.93360443 31.13486267 53.92216492 29.77584839 C53.49003405 25.90805308 52.56969288 23.49939995 50.5234375 20.20703125 C45.56446392 16.38448912 41.78393546 15.02736209 35.5859375 14.83203125 C34.54566406 14.78304687 33.50539063 14.7340625 32.43359375 14.68359375 C26.98285585 15.24162323 26.98285585 15.24162323 16.5234375 20.20703125 C16.5234375 46.93703125 16.5234375 73.66703125 16.5234375 101.20703125 C8.2734375 101.20703125 0.0234375 101.20703125 -8.4765625 101.20703125 C-8.4859082 98.97171631 -8.49525391 96.73640137 -8.50488281 94.43334961 C-8.53870789 87.03318638 -8.59428748 79.6333004 -8.66046524 72.23335934 C-8.69991017 67.74841321 -8.7321132 63.26366254 -8.74755859 58.77856445 C-8.76274498 54.44705806 -8.79722528 50.11608913 -8.84487152 45.78482246 C-8.85966497 44.13554122 -8.86760235 42.48618323 -8.86844635 40.83683586 C-8.87082402 38.51947154 -8.8979648 36.20358299 -8.93066406 33.88647461 C-8.93954651 32.56965195 -8.94842896 31.25282928 -8.95758057 29.89610291 C-9.76160383 24.18087615 -11.87677553 20.47352927 -16.4765625 16.83203125 C-25.98252333 11.68296914 -35.29838473 14.858221 -45.4765625 17.20703125 C-45.8065625 44.92703125 -46.1365625 72.64703125 -46.4765625 101.20703125 C-54.7265625 101.20703125 -62.9765625 101.20703125 -71.4765625 101.20703125 C-71.4765625 68.53703125 -71.4765625 35.86703125 -71.4765625 2.20703125 C-47.2555107 -6.87586318 -23.75050147 -13.37185767 0 0 Z " fill="#4A4A4A" transform="translate(864.4765625,108.79296875)"/>
<path d="M0 0 C0.9106723 -0.0049649 1.8213446 -0.00992981 2.75961304 -0.01504517 C5.7903518 -0.02971817 8.8210381 -0.03648015 11.85180664 -0.04199219 C13.95634462 -0.04774299 16.06088259 -0.05350073 18.16542053 -0.05926514 C22.58993779 -0.06979215 27.01443681 -0.0756225 31.43896484 -0.07910156 C37.0912749 -0.08456527 42.74334148 -0.10854049 48.39557552 -0.13707352 C52.74950341 -0.15576634 57.10337372 -0.16090921 61.45733833 -0.16243744 C63.53961061 -0.1654536 65.62188213 -0.1734469 67.70411491 -0.18662262 C70.63105143 -0.20380874 73.55740755 -0.20177141 76.484375 -0.1953125 C77.76056953 -0.20913467 77.76056953 -0.20913467 79.06254578 -0.22323608 C89.54744276 -0.15129341 97.74988674 2.89069834 105.32446289 10.16113281 C111.57515759 17.09445156 113.63563206 23.25717133 113.56738281 32.62915039 C113.56928116 33.45747375 113.5711795 34.28579712 113.57313538 35.13922119 C113.57682327 37.86146682 113.56617101 40.58344239 113.55493164 43.30566406 C113.55373906 45.2004137 113.55328684 47.09516394 113.55354309 48.98991394 C113.5519819 52.9515658 113.54371699 56.91312683 113.53027344 60.87475586 C113.51322604 65.96386292 113.50946094 71.05287079 113.51021862 76.14200306 C113.50994743 80.04948379 113.50447549 83.95694265 113.49721718 87.86441612 C113.49402669 89.74198936 113.49206222 91.61956508 113.49132347 93.49714088 C113.4891672 96.11150007 113.48044027 98.72575164 113.46972656 101.34008789 C113.47017975 102.12187912 113.47063293 102.90367035 113.47109985 103.70915222 C113.43894257 109.04665313 113.43894257 109.04665313 112.32446289 110.16113281 C110.48287266 110.26072902 108.63749322 110.29193692 106.79321289 110.29394531 C105.67301758 110.29523438 104.55282227 110.29652344 103.39868164 110.29785156 C102.21918945 110.29398437 101.03969727 110.29011719 99.82446289 110.28613281 C98.05522461 110.29193359 98.05522461 110.29193359 96.25024414 110.29785156 C95.13004883 110.2965625 94.00985352 110.29527344 92.85571289 110.29394531 C91.81995117 110.29281738 90.78418945 110.29168945 89.71704102 110.29052734 C87.32446289 110.16113281 87.32446289 110.16113281 86.32446289 109.16113281 C86.22132942 106.86193362 86.18872061 104.55955967 86.18261719 102.25805664 C86.17914276 101.53603058 86.17566833 100.81400452 86.17208862 100.07009888 C86.16471808 98.49644051 86.15937965 96.92277166 86.15579796 95.34910011 C86.14864767 92.85631966 86.13299045 90.3637378 86.11445618 87.87101746 C86.0619307 80.78147166 86.01403749 73.69203093 85.99853516 66.60229492 C85.98843893 62.2696697 85.95906779 57.93753822 85.91721535 53.60510826 C85.90491801 51.95499092 85.89978178 50.30480376 85.90201378 48.65464211 C85.90437357 46.33962242 85.88214955 44.02601067 85.85449219 41.71118164 C85.84862595 40.39515457 85.8427597 39.0791275 85.8367157 37.72322083 C85.23874636 33.56507981 83.93738574 31.41190171 81.32446289 28.16113281 C76.59880887 24.73503365 72.56265229 24.04798448 66.8215332 23.95581055 C65.17027435 23.92589272 65.17027435 23.92589272 63.48565674 23.89537048 C62.30324402 23.87865799 61.1208313 23.8619455 59.90258789 23.84472656 C58.68746521 23.82394547 57.47234253 23.80316437 56.22039795 23.78175354 C52.33847716 23.71636453 48.45648869 23.6574223 44.57446289 23.59863281 C41.94294547 23.55543749 39.3114349 23.51182287 36.67993164 23.46777344 C30.22818029 23.36069398 23.7763616 23.25890767 17.32446289 23.16113281 C17.3266835 24.23632675 17.32890411 25.31152069 17.33119202 26.41929626 C17.35142279 36.52897482 17.36643472 46.6386493 17.37627506 56.74834347 C17.38150405 61.94641396 17.38860199 67.14446818 17.39990234 72.3425293 C17.41073065 77.3545555 17.4167396 82.36656599 17.41934013 87.37860298 C17.42119449 89.29525563 17.42481529 91.21190738 17.43019295 93.12855339 C17.43740264 95.80341354 17.43845386 98.47820795 17.43798828 101.15307617 C17.44158356 101.95364441 17.44517883 102.75421265 17.44888306 103.57904053 C17.43851505 109.04708065 17.43851505 109.04708065 16.32446289 110.16113281 C14.48287266 110.26072902 12.63749322 110.29193692 10.79321289 110.29394531 C9.67301758 110.29523438 8.55282227 110.29652344 7.39868164 110.29785156 C6.21918945 110.29398437 5.03969727 110.29011719 3.82446289 110.28613281 C2.05522461 110.29193359 2.05522461 110.29193359 0.25024414 110.29785156 C-0.86995117 110.2965625 -1.99014648 110.29527344 -3.14428711 110.29394531 C-4.18004883 110.29281738 -5.21581055 110.29168945 -6.28295898 110.29052734 C-8.67553711 110.16113281 -8.67553711 110.16113281 -9.67553711 109.16113281 C-9.77316234 107.75934951 -9.80185369 106.35268828 -9.80252075 104.94750977 C-9.80534058 104.03885162 -9.8081604 103.13019348 -9.81106567 102.19400024 C-9.80904144 101.1892868 -9.80701721 100.18457336 -9.80493164 99.14941406 C-9.80668396 98.09748871 -9.80843628 97.04556335 -9.8102417 95.96176147 C-9.81466254 92.46570207 -9.8117214 88.96969278 -9.80834961 85.47363281 C-9.80902258 83.05607086 -9.80999255 80.63850898 -9.81124878 78.22094727 C-9.81272607 73.1466406 -9.8105702 68.0723515 -9.8059082 62.99804688 C-9.80021091 56.47728579 -9.80348974 49.95656585 -9.80948067 43.43580627 C-9.81308544 38.44144376 -9.81194808 33.44709108 -9.80935287 28.45272827 C-9.80868337 26.04763789 -9.80951283 23.64254663 -9.81183243 21.23745728 C-9.81435759 17.88256446 -9.81052028 14.52773931 -9.80493164 11.17285156 C-9.80695587 10.16813812 -9.8089801 9.16342468 -9.81106567 8.12826538 C-9.80683594 6.76527817 -9.80683594 6.76527817 -9.80252075 5.37475586 C-9.80214373 4.58054733 -9.8017667 3.78633881 -9.80137825 2.96806335 C-9.47452149 -1.72521468 -3.56076878 0.0045804 0 0 Z " fill="#FEFEFD" transform="translate(83.675537109375,101.8388671875)"/>
<path d="M0 0 C6.09401801 5.89237771 9.814131 14.2306669 10.12025452 22.70330811 C10.12314147 24.0401599 10.12052223 25.37703059 10.11352539 26.71386719 C10.11367142 27.44596909 10.11381744 28.17807098 10.1139679 28.93235779 C10.11327276 31.34556062 10.10549908 33.7586857 10.09765625 36.171875 C10.09579065 37.84767617 10.09436742 39.52347788 10.09336853 41.19927979 C10.08955452 45.60513826 10.07973376 50.01096366 10.06866455 54.41680908 C10.05842643 58.91458692 10.05386576 63.41237011 10.04882812 67.91015625 C10.0381105 76.73178535 10.02104747 85.55338992 10 94.375 C6.62581286 95.19090057 3.25051419 96.0021087 -0.125 96.8125 C-1.07632813 97.04259766 -2.02765625 97.27269531 -3.0078125 97.50976562 C-25.09350117 102.80112854 -55.55214199 104.44749614 -75.6640625 92.1328125 C-82.50693742 86.98349191 -87.62379318 80.97963291 -89 72.375 C-90.04031579 61.78748233 -88.46573093 54.37751147 -81.75 46.125 C-70.87271663 34.51027369 -53.89870487 30.79770406 -38.49511719 30.25048828 C-30.32850812 30.12402812 -22.16542827 30.20602425 -14 30.375 C-14.28482368 28.95694169 -14.57818144 27.54059621 -14.875 26.125 C-15.03742188 25.33609375 -15.19984375 24.5471875 -15.3671875 23.734375 C-16.30914351 20.22239087 -17.10347259 17.97322243 -20.171875 15.92578125 C-21.02265625 15.51714844 -21.8734375 15.10851562 -22.75 14.6875 C-24.01070312 14.06294922 -24.01070312 14.06294922 -25.296875 13.42578125 C-42.21544009 6.8490558 -64.90202728 13.05748291 -82 16.375 C-82 9.775 -82 3.175 -82 -3.625 C-76.00516233 -5.62327922 -70.63790775 -7.2522016 -64.5 -8.25 C-63.75588867 -8.37479736 -63.01177734 -8.49959473 -62.24511719 -8.62817383 C-60.16496922 -8.97144836 -58.08337445 -9.30195871 -56 -9.625 C-55.12859375 -9.76035156 -54.2571875 -9.89570312 -53.359375 -10.03515625 C-35.95188514 -12.32391881 -14.22108736 -11.43309824 0 0 Z M-62.4375 57.9375 C-65.11241936 62.11037421 -65.49753448 65.48257763 -65 70.375 C-61.58229311 75.99767907 -57.19885065 78.39014634 -51 80.375 C-45.77653836 81.53238509 -40.63580682 81.55848241 -35.3125 81.5625 C-34.06049805 81.58086914 -34.06049805 81.58086914 -32.78320312 81.59960938 C-26.10469234 81.61498584 -20.79955719 80.61128313 -14 79.375 C-13.67 69.145 -13.34 58.915 -13 48.375 C-39.53207407 46.77042757 -39.53207407 46.77042757 -62.4375 57.9375 Z " fill="#4A4A4A" transform="translate(639,111.625)"/>
<path d="M0 0 C15.78095814 -0.4885088 30.67325153 3.19910221 43.33984375 12.91015625 C51.58982844 20.76430834 57.80623836 33.34108535 58.5793457 44.77880859 C58.94254669 62.36583954 59.0549064 77.33469193 48.40234375 92.16015625 C47.92410156 92.85625 47.44585938 93.55234375 46.953125 94.26953125 C40.50892006 102.64537445 29.38910749 108.64827725 19.1171875 110.7578125 C-1.42079779 112.982221 -20.00396153 111.87463074 -36.6171875 98.5390625 C-47.23705967 88.89094334 -51.59559742 74.13260436 -52.47265625 60.22265625 C-53.14105325 44.87046297 -50.76043044 29.23084374 -40.546875 17.15625 C-29.36578925 5.70628042 -15.77519575 0.97260605 0 0 Z M-16.59765625 26.16015625 C-24.43091039 33.81538189 -26.69919913 44.04611526 -26.84765625 54.72265625 C-26.73839265 66.21961508 -24.77805184 76.60243125 -16.7421875 85.12890625 C-9.57971309 91.88961711 -2.75024158 92.64913877 6.89453125 92.46484375 C14.04527897 91.84373203 19.32017939 89.72326798 24.27734375 84.47265625 C31.27235322 75.64640609 32.59705218 66.95524158 32.65234375 56.03515625 C32.67296875 55.04 32.69359375 54.04484375 32.71484375 53.01953125 C32.76888117 42.67136451 30.79723705 33.74076605 23.40234375 26.16015625 C12.45657128 16.33894944 -5.51612104 17.07734542 -16.59765625 26.16015625 Z " fill="#4B4B4B" transform="translate(717.59765625,100.83984375)"/>
<path d="M0 0 C24.2032559 -2.83348103 24.2032559 -2.83348103 31.55419922 1.50878906 C35.82843564 5.51342446 38.69105786 10.39279779 41.52490234 15.47558594 C43.95071632 19.62701204 46.92727261 23.33611616 49.875 27.125 C50.87581143 28.45838064 51.8735652 29.79406601 52.8671875 31.1328125 C53.57101562 32.07898438 54.27484375 33.02515625 55 34 C62.6347609 25.01198782 69.57746836 15.55123539 76.51708984 6.02368164 C77.0064502 5.3558667 77.49581055 4.68805176 78 4 C78.63796509 2.89338013 78.63796509 2.89338013 79.28881836 1.7644043 C81 0 81 0 83.91088867 -0.45410156 C85.0682251 -0.4331543 86.22556152 -0.41220703 87.41796875 -0.390625 C89.29838867 -0.37128906 89.29838867 -0.37128906 91.21679688 -0.3515625 C92.52712891 -0.31804687 93.83746094 -0.28453125 95.1875 -0.25 C96.5227601 -0.22993307 97.85804883 -0.21168262 99.19335938 -0.1953125 C102.46296146 -0.14809803 105.73112192 -0.08225184 109 0 C107.28203695 3.57956532 105.19866893 6.48713617 102.75 9.625 C102.31743896 10.18131104 101.88487793 10.73762207 101.43920898 11.31079102 C100.4822426 12.5408417 99.52374964 13.7697058 98.56396484 14.99755859 C96.9093391 17.11607878 95.26077597 19.23921149 93.61328125 21.36328125 C93.03118896 22.11311279 92.44909668 22.86294434 91.84936523 23.63549805 C90.65693084 25.17170024 89.46503724 26.70832236 88.27368164 28.24536133 C85.44617437 31.88582053 82.60150465 35.50787432 79.6953125 39.0859375 C79.18605225 39.71765869 78.67679199 40.34937988 78.15209961 41.00024414 C77.20485549 42.17233835 76.25038184 43.33864239 75.28735352 44.49780273 C71.80481273 48.76947877 71.80481273 48.76947877 71 54 C72.68161142 56.56015527 74.31879093 58.70750134 76.3125 61 C77.4321231 62.34019969 78.55059485 63.681362 79.66796875 65.0234375 C80.23177246 65.69213867 80.79557617 66.36083984 81.37646484 67.04980469 C83.7061687 69.84825197 85.92154292 72.72679121 88.125 75.625 C88.93608903 76.68497916 89.74728684 77.7448751 90.55859375 78.8046875 C90.95804199 79.32772461 91.35749023 79.85076172 91.76904297 80.38964844 C93.47530314 82.62179681 95.18738369 84.84944279 96.90039062 87.07641602 C97.74750157 88.17788519 98.59387599 89.27992127 99.43945312 90.38256836 C102.51757557 94.39213066 105.6501621 98.35584648 108.8203125 102.29296875 C110 104 110 104 110 106 C102.65724492 106.55502946 95.35331121 106.86800283 87.9921875 106.71484375 C86.78159668 106.69284912 85.57100586 106.67085449 84.32373047 106.64819336 C80.20300539 105.84457025 78.51569542 104.36010131 75.6875 101.3125 C74.82210179 99.60625388 73.96211541 97.89637118 73.16064453 96.15917969 C70.58656112 91.37053986 66.96240538 87.20965661 63.625 82.9375 C62.24156233 81.11375532 60.85871314 79.28956402 59.4765625 77.46484375 C57.45006912 74.79246369 55.43060893 72.3135659 53 70 C52.72994141 70.58015869 52.45988281 71.16031738 52.18164062 71.75805664 C50.99270332 74.01384409 49.67016717 75.87008497 48.09375 77.87109375 C47.51906982 78.60465088 46.94438965 79.33820801 46.35229492 80.09399414 C45.7410376 80.86735107 45.12978027 81.64070801 44.5 82.4375 C43.23535765 84.04922858 41.97103722 85.6612098 40.70703125 87.2734375 C40.08135254 88.06975586 39.45567383 88.86607422 38.81103516 89.68652344 C36.24740918 92.96138455 33.71504525 96.2597589 31.1875 99.5625 C27.11170213 104.88829787 27.11170213 104.88829787 26 106 C24.00035018 106.08758003 21.9976389 106.10696576 19.99609375 106.09765625 C18.17368164 106.09282227 18.17368164 106.09282227 16.31445312 106.08789062 C15.03505859 106.07951172 13.75566406 106.07113281 12.4375 106.0625 C11.15423828 106.05798828 9.87097656 106.05347656 8.54882812 106.04882812 C5.36583978 106.03699545 2.18294238 106.02051068 -1 106 C0.5911146 101.7463491 2.50968509 98.94453996 5.5 95.5 C9.46100077 90.86640352 13.25877456 86.14593353 16.95361328 81.29467773 C19.482526 77.97566394 22.03038182 74.67316495 24.6015625 71.38671875 C25.53790527 70.18909912 25.53790527 70.18909912 26.49316406 68.96728516 C27.72013698 67.39934493 28.94858292 65.83255595 30.17871094 64.26708984 C33.29795809 60.27548084 36.25857821 56.26068263 39 52 C38.39414062 51.21238281 37.78828125 50.42476562 37.1640625 49.61328125 C33.59635417 44.97526042 30.02864583 40.33723958 26.4609375 35.69921875 C26.05399658 35.17021973 25.64705566 34.6412207 25.2277832 34.09619141 C24.40330747 33.02432377 23.5789273 31.95238262 22.75463867 30.88037109 C20.66025451 28.15681317 18.56420741 25.43456573 16.46484375 22.71484375 C12.24439897 17.24467928 8.03967751 11.76278121 3.875 6.25 C3.12992187 5.26515625 2.38484375 4.2803125 1.6171875 3.265625 C0 1 0 1 0 0 Z " fill="#4B4B4B" transform="translate(380,104)"/>
<path d="M0 0 C8.58 0 17.16 0 26 0 C26 36.3 26 72.6 26 110 C17.75 110 9.5 110 1 110 C0 109 0 109 -0.12304783 107.17465878 C-0.12212604 106.37177709 -0.12120424 105.5688954 -0.12025452 104.74168396 C-0.12162918 103.8231665 -0.12300385 102.90464905 -0.12442017 101.95829773 C-0.12082489 100.94266251 -0.11722961 99.92702728 -0.11352539 98.88061523 C-0.11367142 97.81733002 -0.11381744 96.7540448 -0.1139679 95.65853882 C-0.11326825 92.12520342 -0.10547343 88.59192 -0.09765625 85.05859375 C-0.09579225 82.61621632 -0.09436827 80.17383851 -0.09336853 77.73146057 C-0.08954189 71.28865536 -0.07971037 64.84587252 -0.06866455 58.40307617 C-0.05845356 51.83447574 -0.05387158 45.2658717 -0.04882812 38.69726562 C-0.03808823 25.79816565 -0.02049025 12.89908818 0 0 Z " fill="#FEFDFB" transform="translate(218,102)"/>
<path d="M0 0 C8.25 0 16.5 0 25 0 C25 34.98 25 69.96 25 106 C16.75 106 8.5 106 0 106 C0 71.02 0 36.04 0 0 Z " fill="#4D4D4D" transform="translate(507,104)"/>
<path d="M0 0 C7.92 0 15.84 0 24 0 C24 34.98 24 69.96 24 106 C15.75 106 7.5 106 -1 106 C-1.02254844 92.32697144 -1.04091359 78.65395512 -1.05181217 64.98091221 C-1.05704164 58.63269424 -1.06414044 52.2844896 -1.07543945 45.9362793 C-1.08626606 39.81551418 -1.09227635 33.69476191 -1.09487724 27.57398796 C-1.0967319 25.23309057 -1.10035329 22.89219391 -1.10573006 20.55130196 C-1.11293748 17.28491798 -1.11399107 14.01858785 -1.11352539 10.75219727 C-1.11712067 9.773965 -1.12071594 8.79573273 -1.12442017 7.78785706 C-1.1230455 6.90299622 -1.12167084 6.01813538 -1.12025452 5.10646057 C-1.12117631 4.33307626 -1.1220981 3.55969194 -1.12304783 2.76287174 C-1 1 -1 1 0 0 Z " fill="#444444" transform="translate(965,104)"/>
<path d="M0 0 C8.91 0 17.82 0 27 0 C28.82556117 1.82556117 28.12772403 4.70538603 28.12939453 7.15625 C28.13254669 8.47431641 28.13569885 9.79238281 28.13894653 11.15039062 C28.13715675 12.60026075 28.1351058 14.05013058 28.1328125 15.5 C28.13348557 16.97591162 28.13445563 18.45182313 28.13571167 19.92773438 C28.13718848 23.02475029 28.13503464 26.12173742 28.13037109 29.21875 C28.1246738 33.19708549 28.1279529 37.17535352 28.13394356 41.15368652 C28.13754963 44.20247917 28.13641037 47.25125571 28.13381577 50.30004883 C28.13314662 51.76733406 28.13397447 53.23462074 28.13629532 54.7019043 C28.13882257 56.74918593 28.1342906 58.79647266 28.12939453 60.84375 C28.12859894 62.01099609 28.12780334 63.17824219 28.12698364 64.38085938 C28 67 28 67 27 68 C18.09 68 9.18 68 0 68 C0 45.56 0 23.12 0 0 Z " fill="#FEFEFD" transform="translate(122,144)"/>
<path d="M0 0 C1.32708733 0.00539291 1.32708733 0.00539291 2.6809845 0.01089478 C4.07108734 0.01067574 4.07108734 0.01067574 5.48927307 0.01045227 C8.56809285 0.01115178 11.64685295 0.01894595 14.72566223 0.02676392 C16.85415616 0.02862796 18.98265051 0.03005193 21.11114502 0.03105164 C26.72537919 0.03487789 32.33958766 0.04470909 37.95381165 0.05575562 C43.67788851 0.06596743 49.40196951 0.07054876 55.12605286 0.07559204 C66.36629855 0.08633126 77.60652513 0.10340896 88.84675598 0.12442017 C88.84675598 0.45442017 88.84675598 0.78442017 88.84675598 1.12442017 C87.16545845 1.13988136 87.16545845 1.13988136 85.45019531 1.15565491 C74.89959889 1.25330838 64.3490625 1.35603481 53.79856396 1.46375942 C48.37413769 1.51898097 42.94970603 1.57239982 37.52522278 1.62173462 C32.2926896 1.66938939 27.0602226 1.72173273 21.82776833 1.77736092 C19.82905533 1.7977794 17.83032419 1.81649332 15.83157921 1.83349419 C13.03733622 1.85754931 10.24321852 1.8876025 7.4490509 1.9190979 C6.20287994 1.92773109 6.20287994 1.92773109 4.93153381 1.9365387 C1.65561676 1.97865512 -1.02415522 2.08139057 -4.15324402 3.12442017 C-4.48324402 37.11442017 -4.81324402 71.10442017 -5.15324402 106.12442017 C2.43675598 106.12442017 10.02675598 106.12442017 17.84675598 106.12442017 C18.17675598 79.06442017 18.50675598 52.00442017 18.84675598 24.12442017 C19.17675598 24.12442017 19.50675598 24.12442017 19.84675598 24.12442017 C19.86987881 35.18976874 19.88767076 46.25511162 19.89856815 57.32047939 C19.90379711 62.45801583 19.91089499 67.59553579 19.92219543 72.73306274 C19.93302386 77.68673427 19.93903272 82.6403899 19.94163322 87.59407234 C19.94348756 89.48839633 19.94710832 91.3827194 19.95248604 93.27703667 C19.95969587 95.92076402 19.96074695 98.56442487 19.96028137 101.2081604 C19.96387665 101.9993779 19.96747192 102.7905954 19.97117615 103.60578918 C19.96080814 109.010368 19.96080814 109.010368 18.84675598 110.12442017 C17.00516575 110.22401637 15.15978631 110.25522427 13.31550598 110.25723267 C12.19531067 110.25852173 11.07511536 110.25981079 9.92097473 110.26113892 C8.74148254 110.25727173 7.56199036 110.25340454 6.34675598 110.24942017 C4.5775177 110.25522095 4.5775177 110.25522095 2.77253723 110.26113892 C1.65234192 110.25984985 0.53214661 110.25856079 -0.62199402 110.25723267 C-1.65775574 110.25610474 -2.69351746 110.25497681 -3.76066589 110.2538147 C-6.15324402 110.12442017 -6.15324402 110.12442017 -7.15324402 109.12442017 C-7.25086925 107.72263686 -7.2795606 106.31597564 -7.28022766 104.91079712 C-7.28304749 104.00213898 -7.28586731 103.09348083 -7.28877258 102.1572876 C-7.28674835 101.15257416 -7.28472412 100.14786072 -7.28263855 99.11270142 C-7.28439087 98.06077606 -7.28614319 97.00885071 -7.28794861 95.92504883 C-7.29236945 92.42898943 -7.28942831 88.93298013 -7.28605652 85.43692017 C-7.28672949 83.01935822 -7.28769946 80.60179633 -7.28895569 78.18423462 C-7.29043298 73.10992796 -7.28827711 68.03563886 -7.28361511 62.96133423 C-7.27791781 56.44057314 -7.28119665 49.9198532 -7.28718758 43.39909363 C-7.29079235 38.40473111 -7.28965499 33.41037843 -7.28705978 28.41601562 C-7.28639028 26.01092524 -7.28721974 23.60583398 -7.28953934 21.20074463 C-7.2920645 17.84585181 -7.28822719 14.49102666 -7.28263855 11.13613892 C-7.28466278 10.13142548 -7.28668701 9.12671204 -7.28877258 8.09155273 C-7.28454285 6.72856552 -7.28454285 6.72856552 -7.28022766 5.33804321 C-7.27985064 4.54383469 -7.27947361 3.74962616 -7.27908516 2.93135071 C-6.98577137 -1.28028974 -3.40687049 0.00584887 0 0 Z " fill="#FEDEBC" transform="translate(81.15324401855469,101.87557983398438)"/>
<path d="M0 0 C7.92 0 15.84 0 24 0 C24 34.98 24 69.96 24 106 C15.75 106 7.5 106 -1 106 C-1.02254844 92.32697144 -1.04091359 78.65395512 -1.05181217 64.98091221 C-1.05704164 58.63269424 -1.06414044 52.2844896 -1.07543945 45.9362793 C-1.08626606 39.81551418 -1.09227635 33.69476191 -1.09487724 27.57398796 C-1.0967319 25.23309057 -1.10035329 22.89219391 -1.10573006 20.55130196 C-1.11293748 17.28491798 -1.11399107 14.01858785 -1.11352539 10.75219727 C-1.11712067 9.773965 -1.12071594 8.79573273 -1.12442017 7.78785706 C-1.1230455 6.90299622 -1.12167084 6.01813538 -1.12025452 5.10646057 C-1.12117631 4.33307626 -1.1220981 3.55969194 -1.12304783 2.76287174 C-1 1 -1 1 0 0 Z M0 1 C0 35.32 0 69.64 0 105 C11.18835552 105.66069902 11.18835552 105.66069902 22 104 C22 70.01 22 36.02 22 1 C14.74 1 7.48 1 0 1 Z " fill="#6D6D6D" transform="translate(965,104)"/>
<path d="M0 0 C8.91 0 17.82 0 27 0 C28.82556117 1.82556117 28.12772403 4.70538603 28.12939453 7.15625 C28.13254669 8.47431641 28.13569885 9.79238281 28.13894653 11.15039062 C28.13715675 12.60026075 28.1351058 14.05013058 28.1328125 15.5 C28.13348557 16.97591162 28.13445563 18.45182313 28.13571167 19.92773438 C28.13718848 23.02475029 28.13503464 26.12173742 28.13037109 29.21875 C28.1246738 33.19708549 28.1279529 37.17535352 28.13394356 41.15368652 C28.13754963 44.20247917 28.13641037 47.25125571 28.13381577 50.30004883 C28.13314662 51.76733406 28.13397447 53.23462074 28.13629532 54.7019043 C28.13882257 56.74918593 28.1342906 58.79647266 28.12939453 60.84375 C28.12859894 62.01099609 28.12780334 63.17824219 28.12698364 64.38085938 C28 67 28 67 27 68 C18.09 68 9.18 68 0 68 C0 45.56 0 23.12 0 0 Z M1 4 C0.90608704 5.90243762 0.88256342 7.80838459 0.88647461 9.71313477 C0.88655014 10.9343251 0.88662567 12.15551544 0.88670349 13.41371155 C0.89181089 14.75627686 0.89702689 16.09884175 0.90234375 17.44140625 C0.90420801 18.80761158 0.90563187 20.17381757 0.90663147 21.5400238 C0.91045606 25.14201695 0.92028583 28.74397 0.93133545 32.34594727 C0.94155084 36.01903745 0.94612936 39.69213409 0.95117188 43.36523438 C0.96190816 50.57684123 0.97898386 57.788415 1 65 C4.55357365 65.61369201 7.91496047 66.12380463 11.5234375 66.09765625 C12.71259766 66.09282227 12.71259766 66.09282227 13.92578125 66.08789062 C15.13814453 66.07532227 15.13814453 66.07532227 16.375 66.0625 C17.20644531 66.05798828 18.03789062 66.05347656 18.89453125 66.04882812 C20.92971897 66.03713164 22.96486923 66.01919935 25 66 C26.35144654 63.29710692 26.11975165 61.19930194 26.11352539 58.17333984 C26.11341209 56.34166763 26.11341209 56.34166763 26.11329651 54.47299194 C26.10818952 53.13564005 26.10297352 51.79828857 26.09765625 50.4609375 C26.0957914 49.09616141 26.09436781 47.73138466 26.09336853 46.36660767 C26.08954863 42.77284907 26.07972283 39.17913083 26.06866455 35.58538818 C26.05843911 31.91891018 26.05386848 28.25242565 26.04882812 24.5859375 C26.0381001 17.39060659 26.02102999 10.19530895 26 3 C22.02084841 2.97113016 18.04172347 2.95324594 14.0625 2.9375 C12.92619141 2.92912109 11.78988281 2.92074219 10.61914062 2.91210938 C9.53955078 2.90888672 8.45996094 2.90566406 7.34765625 2.90234375 C6.34742432 2.89710693 5.34719238 2.89187012 4.31665039 2.88647461 C2.03792772 2.73818905 2.03792772 2.73818905 1 4 Z " fill="#FDE2C9" transform="translate(122,144)"/>
<path d="M0 0 C3.14598036 2.57398393 3.96046879 5.11770034 5 9 C5.17922355 11.85736743 5.26370754 14.61346471 5.24291992 17.46801758 C5.24481827 18.29634094 5.24671661 19.12466431 5.24867249 19.97808838 C5.25236037 22.70033401 5.24170812 25.42230958 5.23046875 28.14453125 C5.22927617 30.03928089 5.22882395 31.93403113 5.2290802 33.82878113 C5.22751901 37.79043299 5.2192541 41.75199402 5.20581055 45.71362305 C5.18876315 50.8027301 5.18499805 55.89173798 5.18575573 60.98087025 C5.18548454 64.88835097 5.1800126 68.79580983 5.17275429 72.70328331 C5.1695638 74.58085655 5.16759933 76.45843227 5.16686058 78.33600807 C5.16470431 80.95036726 5.15597737 83.56461883 5.14526367 86.17895508 C5.14594345 87.35164192 5.14594345 87.35164192 5.14663696 88.54801941 C5.11447968 93.88552032 5.11447968 93.88552032 4 95 C2.15840977 95.09959621 0.31303033 95.13080411 -1.53125 95.1328125 C-2.65144531 95.13410156 -3.77164063 95.13539063 -4.92578125 95.13671875 C-6.10527344 95.13285156 -7.28476563 95.12898438 -8.5 95.125 C-10.26923828 95.13080078 -10.26923828 95.13080078 -12.07421875 95.13671875 C-13.19441406 95.13542969 -14.31460938 95.13414062 -15.46875 95.1328125 C-16.50451172 95.13168457 -17.54027344 95.13055664 -18.60742188 95.12939453 C-21 95 -21 95 -22 94 C-22.09432985 91.79132169 -22.11742431 89.57958479 -22.11352539 87.36889648 C-22.11367142 86.67624695 -22.11381744 85.98359741 -22.1139679 85.2699585 C-22.11326874 82.97030554 -22.10547628 80.67073263 -22.09765625 78.37109375 C-22.09579208 76.78068588 -22.09436817 75.19027743 -22.09336853 73.59986877 C-22.08954329 69.4060407 -22.07971295 65.21224705 -22.06866455 61.01843262 C-22.05845057 56.74211086 -22.05387094 52.46578356 -22.04882812 48.18945312 C-22.03809069 39.79295292 -22.02101419 31.39648074 -22 23 C-21.67 23 -21.34 23 -21 23 C-21 46.1 -21 69.2 -21 93 C-13.08 93 -5.16 93 3 93 C3 64.62 3 36.24 3 7 C2.34 7 1.68 7 1 7 C0.67 4.69 0.34 2.38 0 0 Z " fill="#FEE4C3" transform="translate(192,117)"/>
<path d="M0 0 C8.9925 -0.04125 17.985 -0.0825 27.25 -0.125 C30.0849707 -0.14320801 32.91994141 -0.16141602 35.84082031 -0.18017578 C38.08658661 -0.18601673 40.33235503 -0.19111323 42.578125 -0.1953125 C43.74520996 -0.20554443 44.91229492 -0.21577637 46.11474609 -0.22631836 C47.78899658 -0.22668091 47.78899658 -0.22668091 49.49707031 -0.22705078 C50.46525696 -0.231492 51.4334436 -0.23593323 52.43096924 -0.24050903 C55 0 55 0 59 2 C40.19 2 21.38 2 2 2 C2 29.39 2 56.78 2 85 C1.34 85 0.68 85 0 85 C0 56.95 0 28.9 0 0 Z " fill="#E77121" transform="translate(101,125)"/>
<path d="M0 0 C0.33 0 0.66 0 1 0 C1 92.4 1 184.8 1 280 C0.67 280 0.34 280 0 280 C0 187.6 0 95.2 0 0 Z " fill="#E78247" transform="translate(10,17)"/>
<path d="M0 0 C92.07 0 184.14 0 279 0 C279 0.33 279 0.66 279 1 C186.93 1 94.86 1 0 1 C0 0.67 0 0.34 0 0 Z " fill="#F9670A" transform="translate(20,7)"/>
<path d="M0 0 C91.41 0 182.82 0 277 0 C277 0.33 277 0.66 277 1 C185.59 1 94.18 1 0 1 C0 0.67 0 0.34 0 0 Z " fill="#FE8E48" transform="translate(21,306)"/>
<path d="M0 0 C0.33 0 0.66 0 1 0 C1 91.08 1 182.16 1 276 C0.67 276 0.34 276 0 276 C0 184.92 0 93.84 0 0 Z " fill="#F9B284" transform="translate(308,19)"/>
<path d="M0 0 C0.95018005 0.00359528 1.90036011 0.00719055 2.8793335 0.01089478 C4.37184883 0.01067574 4.37184883 0.01067574 5.89451599 0.01045227 C9.20059348 0.01115186 12.5066154 0.01894637 15.81268311 0.02676392 C18.09811879 0.02862793 20.38355487 0.03005191 22.66899109 0.03105164 C28.69751073 0.03487809 34.72600644 0.04470947 40.7545166 0.05575562 C46.90085527 0.06596699 53.04719778 0.07054867 59.19354248 0.07559204 C71.26321447 0.08633162 83.33286868 0.10340957 95.40252686 0.12442017 C95.40252686 0.78442017 95.40252686 1.44442017 95.40252686 2.12442017 C96.39252686 2.61942017 96.39252686 2.61942017 97.40252686 3.12442017 C96.28112305 2.96176163 95.15971924 2.79910309 94.0043335 2.6315155 C89.24869922 2.04054249 84.5604828 1.99089541 79.77362061 2.01089478 C78.83099869 2.01077424 77.88837677 2.01065371 76.91719055 2.01052952 C73.8914446 2.01127088 70.86576166 2.01886347 67.84002686 2.02676392 C65.96177195 2.02823574 64.08351663 2.02925497 62.20526123 2.02981567 C55.27101015 2.03504065 48.33676787 2.04900192 41.40252686 2.06192017 C25.89252686 2.08254517 10.38252686 2.10317017 -5.59747314 2.12442017 C-5.92747314 37.43442017 -6.25747314 72.74442017 -6.59747314 109.12442017 C-6.92747314 109.12442017 -7.25747314 109.12442017 -7.59747314 109.12442017 C-7.62080353 95.0602436 -7.63838659 80.99607002 -7.64928532 66.93187809 C-7.65451485 60.40205784 -7.66161376 53.87225054 -7.6729126 47.34243774 C-7.68373899 41.04660857 -7.68974945 34.7507919 -7.69235039 28.45495415 C-7.69420509 26.04707073 -7.69782654 23.63918802 -7.7032032 21.23130989 C-7.71041034 17.8715273 -7.71146422 14.51179707 -7.71099854 11.15200806 C-7.71459381 10.14572357 -7.71818909 9.13943909 -7.72189331 8.10266113 C-7.72051865 7.19255783 -7.71914398 6.28245453 -7.71772766 5.34477234 C-7.71911035 4.15151132 -7.71911035 4.15151132 -7.72052097 2.93414402 C-7.42463542 -1.41758777 -3.47078449 0.00555033 0 0 Z " fill="#E36E24" transform="translate(80.59747314453125,100.87557983398438)"/>
<path d="M0 0 C31.35 0 62.7 0 95 0 C95 0.33 95 0.66 95 1 C93.31870247 1.0154612 93.31870247 1.0154612 91.60343933 1.03123474 C81.05284291 1.12888821 70.50230652 1.23161465 59.95180798 1.33933926 C54.52738171 1.39456081 49.10295005 1.44797966 43.6784668 1.49731445 C38.44593362 1.54496923 33.21346662 1.59731256 27.98101234 1.65294075 C25.98229935 1.67335923 23.98356821 1.69207316 21.98482323 1.70907402 C19.19058024 1.73312914 16.39646254 1.76318233 13.60229492 1.79467773 C12.35612396 1.80331093 12.35612396 1.80331093 11.08477783 1.81211853 C7.80886078 1.85423496 5.1290888 1.9569704 2 3 C1.67 36.99 1.34 70.98 1 106 C0.67 106 0.34 106 0 106 C0 71.02 0 36.04 0 0 Z " fill="#FEEAD7" transform="translate(75,102)"/>
<path d="M0 0 C1.32 0 2.64 0 4 0 C4 35.64 4 71.28 4 108 C-3.92 108 -11.84 108 -20 108 C-20 107.67 -20 107.34 -20 107 C-19.40461426 106.97494385 -18.80922852 106.9498877 -18.19580078 106.92407227 C-15.50530864 106.80822506 -12.8151766 106.68544804 -10.125 106.5625 C-9.18785156 106.52318359 -8.25070313 106.48386719 -7.28515625 106.44335938 C-6.38925781 106.40146484 -5.49335938 106.35957031 -4.5703125 106.31640625 C-3.74289551 106.27974854 -2.91547852 106.24309082 -2.06298828 106.20532227 C0.06179429 106.11761673 0.06179429 106.11761673 2 105 C2.33 70.68 2.66 36.36 3 1 C2.01 0.67 1.02 0.34 0 0 Z " fill="#FEF7E3" transform="translate(240,103)"/>
<path d="M0 0 C0.33 0 0.66 0 1 0 C1 34.65 1 69.3 1 105 C0.67 105 0.34 105 0 105 C0 70.35 0 35.7 0 0 Z " fill="#444444" transform="translate(505,105)"/>
<path d="M0 0 C0.33 0 0.66 0 1 0 C1 34.65 1 69.3 1 105 C0.67 105 0.34 105 0 105 C0 70.35 0 35.7 0 0 Z " fill="#6F6F6F" transform="translate(990,105)"/>
<path d="M0 0 C0.33 0 0.66 0 1 0 C1 32.34 1 64.68 1 98 C0.67 98 0.34 98 0 98 C0 65.66 0 33.32 0 0 Z " fill="#5A5A5A" transform="translate(791,112)"/>
<path d="M0 0 C0.99 0.495 0.99 0.495 2 1 C1.67 28.39 1.34 55.78 1 84 C0.67 84 0.34 84 0 84 C0 56.28 0 28.56 0 0 Z " fill="#9C9C9C" transform="translate(819,126)"/>
<path d="M0 0 C0.33 0 0.66 0 1 0 C1 26.73 1 53.46 1 81 C0.67 81 0.34 81 0 81 C0 54.27 0 27.54 0 0 Z " fill="#7B7B7B" transform="translate(945,129)"/>
<path d="M0 0 C0.33 0 0.66 0 1 0 C1 24.75 1 49.5 1 75 C0.67 75 0.34 75 0 75 C0 50.25 0 25.5 0 0 Z " fill="#767676" transform="translate(917,135)"/>
<path d="M0 0 C0.33 0 0.66 0 1 0 C1 24.42 1 48.84 1 74 C0.67 74 0.34 74 0 74 C0 49.58 0 25.16 0 0 Z " fill="#676767" transform="translate(854,136)"/>
<path d="M0 0 C0.33 0 0.66 0 1 0 C1 24.09 1 48.18 1 73 C0.67 73 0.34 73 0 73 C0 48.91 0 24.82 0 0 Z " fill="#464646" transform="translate(650,132)"/>
<path d="M0 0 C2.36515808 0.1932373 2.36515808 0.1932373 5.36515808 3.1932373 C-13.77484192 2.8632373 -32.91484192 2.5332373 -52.63484192 2.1932373 C-52.63484192 1.8632373 -52.63484192 1.5332373 -52.63484192 1.1932373 C-45.60564061 1.05011645 -38.57642371 0.90778148 -31.54719543 0.76599121 C-29.15624125 0.71766945 -26.76529069 0.66916821 -24.37434387 0.6204834 C-20.93644635 0.55051165 -17.49853631 0.4811867 -14.06062317 0.4119873 C-12.99274063 0.39011353 -11.92485809 0.36823975 -10.82461548 0.34570312 C-9.82395554 0.32568237 -8.82329559 0.30566162 -7.79231262 0.28503418 C-6.47660027 0.25838684 -6.47660027 0.25838684 -5.13430786 0.23120117 C-3.42133518 0.20518319 -1.7085815 0.12530607 0 0 Z " fill="#FEE9C2" transform="translate(154.6348419189453,122.8067626953125)"/>
<path d="M0 0 C0.66 0 1.32 0 2 0 C2 5.94 2 11.88 2 18 C3.32 18.33 4.64 18.66 6 19 C4.02 19.33 2.04 19.66 0 20 C0 13.4 0 6.8 0 0 Z " fill="#B2B2B2" transform="translate(557,108)"/>
<path d="M0 0 C9.57 0 19.14 0 29 0 C29 0.33 29 0.66 29 1 C19.43 1 9.86 1 0 1 C0 0.67 0 0.34 0 0 Z " fill="#4C4C4C" transform="translate(461,211)"/>
<path d="M0 0 C9.24 0 18.48 0 28 0 C28 0.33 28 0.66 28 1 C18.76 1 9.52 1 0 1 C0 0.67 0 0.34 0 0 Z " fill="#4A4A4A" transform="translate(592,213)"/>
<path d="M0 0 C9.24 0 18.48 0 28 0 C28 0.33 28 0.66 28 1 C18.76 1 9.52 1 0 1 C0 0.67 0 0.34 0 0 Z " fill="#4F4F4F" transform="translate(381,102)"/>
<path d="M0 0 C8.91 0 17.82 0 27 0 C27 0.33 27 0.66 27 1 C18.09 1 9.18 1 0 1 C0 0.67 0 0.34 0 0 Z " fill="#494949" transform="translate(379,211)"/>
<path d="M0 0 C8.58 0 17.16 0 26 0 C26 0.33 26 0.66 26 1 C17.42 1 8.84 1 0 1 C0 0.67 0 0.34 0 0 Z " fill="#4D4D4D" transform="translate(462,102)"/>
<path d="M0 0 C7.92 0 15.84 0 24 0 C24 0.33 24 0.66 24 1 C16.08 1 8.16 1 0 1 C0 0.67 0 0.34 0 0 Z " fill="#484848" transform="translate(965,211)"/>
<path d="M0 0 C7.92 0 15.84 0 24 0 C24 0.33 24 0.66 24 1 C16.08 1 8.16 1 0 1 C0 0.67 0 0.34 0 0 Z " fill="#474747" transform="translate(856,211)"/>
<path d="M0 0 C7.92 0 15.84 0 24 0 C24 0.33 24 0.66 24 1 C16.08 1 8.16 1 0 1 C0 0.67 0 0.34 0 0 Z " fill="#474747" transform="translate(793,211)"/>
<path d="M0 0 C7.92 0 15.84 0 24 0 C24 0.33 24 0.66 24 1 C16.08 1 8.16 1 0 1 C0 0.67 0 0.34 0 0 Z " fill="#464646" transform="translate(507,211)"/>
<path d="M0 0 C7.59 0 15.18 0 23 0 C23 0.33 23 0.66 23 1 C15.41 1 7.82 1 0 1 C0 0.67 0 0.34 0 0 Z " fill="#505050" transform="translate(709,213)"/>
<path d="M0 0 C7.59 0 15.18 0 23 0 C23 0.33 23 0.66 23 1 C15.41 1 7.82 1 0 1 C0 0.67 0 0.34 0 0 Z " fill="#454545" transform="translate(920,211)"/>
<path d="M0 0 C0.33 0 0.66 0 1 0 C1 7.59 1 15.18 1 23 C0.67 23 0.34 23 0 23 C0 15.41 0 7.82 0 0 Z " fill="#3D3D3D" transform="translate(777,145)"/>
<path d="M0 0 C7.59 0 15.18 0 23 0 C23 0.33 23 0.66 23 1 C15.41 1 7.82 1 0 1 C0 0.67 0 0.34 0 0 Z " fill="#4E4E4E" transform="translate(965,102)"/>
<path d="M0 0 C7.59 0 15.18 0 23 0 C23 0.33 23 0.66 23 1 C15.41 1 7.82 1 0 1 C0 0.67 0 0.34 0 0 Z " fill="#4E4E4E" transform="translate(508,102)"/>
<path d="M0 0 C6.27 0 12.54 0 19 0 C19 0.33 19 0.66 19 1 C12.73 1 6.46 1 0 1 C0 0.67 0 0.34 0 0 Z " fill="#4E4E4E" transform="translate(594,191)"/>
<path d="M0 0 C6.27 0 12.54 0 19 0 C19 0.33 19 0.66 19 1 C12.73 1 6.46 1 0 1 C0 0.67 0 0.34 0 0 Z " fill="#4B4B4B" transform="translate(605,161)"/>
<path d="M0 0 C0.66 0.33 1.32 0.66 2 1 C-1.01887244 4.48331435 -3.56909529 5.79157144 -8 7 C-5.42215154 4.35247996 -3.08351902 2.05567935 0 0 Z " fill="#808080" transform="translate(567,150)"/>
<path d="M0 0 C0.33 0.66 0.66 1.32 1 2 C-0.25 4.5625 -0.25 4.5625 -2 7 C-2.99 7.33 -3.98 7.66 -5 8 C-3.62845496 5.04590299 -2.01136276 2.55991624 0 0 Z " fill="#7D7D7D" transform="translate(418,158)"/>
<path d="M0 0 C0.66 0.33 1.32 0.66 2 1 C0.35 2.98 -1.3 4.96 -3 7 C-3.99 6.67 -4.98 6.34 -6 6 C-4.02 4.02 -2.04 2.04 0 0 Z " fill="#838383" transform="translate(682,113)"/>
<path d="M0 0 C2.64 0 5.28 0 8 0 C8 0.66 8 1.32 8 2 C8.66 2.33 9.32 2.66 10 3 C2.25 2.25 2.25 2.25 0 0 Z " fill="#EE792F" transform="translate(168,101)"/>
<path d="M0 0 C4.62 0 9.24 0 14 0 C14 0.33 14 0.66 14 1 C9.38 1 4.76 1 0 1 C0 0.67 0 0.34 0 0 Z " fill="#6C6C6C" transform="translate(714,191)"/>
<path d="M0 0 C3.96 0 7.92 0 12 0 C12 0.33 12 0.66 12 1 C8.04 1 4.08 1 0 1 C0 0.67 0 0.34 0 0 Z " fill="#636363" transform="translate(598,140)"/>
<path d="M0 0 C3.96 0 7.92 0 12 0 C12 0.33 12 0.66 12 1 C8.04 1 4.08 1 0 1 C0 0.67 0 0.34 0 0 Z " fill="#646464" transform="translate(894,124)"/>
<path d="M0 0 C0.33 0 0.66 0 1 0 C1 3.63 1 7.26 1 11 C0.67 11 0.34 11 0 11 C0 7.37 0 3.74 0 0 Z " fill="#777777" transform="translate(548,172)"/>
<path d="M0 0 C0.33 0 0.66 0 1 0 C1 3.3 1 6.6 1 10 C0.67 10 0.34 10 0 10 C0 6.7 0 3.4 0 0 Z " fill="#3E3E3E" transform="translate(692,151)"/>
<path d="M0 0 C2.97 0 5.94 0 9 0 C9 0.33 9 0.66 9 1 C6.03 1 3.06 1 0 1 C0 0.67 0 0.34 0 0 Z " fill="#707070" transform="translate(580,124)"/>
<path d="M0 0 C2.97 0 5.94 0 9 0 C9 0.33 9 0.66 9 1 C6.03 1 3.06 1 0 1 C0 0.67 0 0.34 0 0 Z " fill="#595959" transform="translate(583,100)"/>
<path d="M0 0 C2.64 0 5.28 0 8 0 C8 0.33 8 0.66 8 1 C5.36 1 2.72 1 0 1 C0 0.67 0 0.34 0 0 Z " fill="#363636" transform="translate(594,123)"/>
<path d="M0 0 C2.64 0 5.28 0 8 0 C8 0.33 8 0.66 8 1 C5.36 1 2.72 1 0 1 C0 0.67 0 0.34 0 0 Z " fill="#7C7C7C" transform="translate(712,122)"/>
<path d="M0 0 C2.64 0 5.28 0 8 0 C8 0.33 8 0.66 8 1 C5.36 1 2.72 1 0 1 C0 0.67 0 0.34 0 0 Z " fill="#5D5D5D" transform="translate(606,100)"/>
<path d="M0 0 C0.33 0 0.66 0 1 0 C1 2.31 1 4.62 1 7 C0.67 7 0.34 7 0 7 C0 4.69 0 2.38 0 0 Z " fill="#434343" transform="translate(575,175)"/>
<path d="M0 0 C2.31 0 4.62 0 7 0 C7 0.33 7 0.66 7 1 C4.69 1 2.38 1 0 1 C0 0.67 0 0.34 0 0 Z " fill="#686868" transform="translate(595,162)"/>
<path d="M0 0 C0.33 0 0.66 0 1 0 C1 2.31 1 4.62 1 7 C0.67 7 0.34 7 0 7 C0 4.69 0 2.38 0 0 Z " fill="#BABABA" transform="translate(663,152)"/>
<path d="M0 0 C2.31 0 4.62 0 7 0 C7 0.33 7 0.66 7 1 C4.69 1 2.38 1 0 1 C0 0.67 0 0.34 0 0 Z " fill="#5B5B5B" transform="translate(590,141)"/>
<path d="M0 0 C1.98 0.99 1.98 0.99 4 2 C3.67 2.66 3.34 3.32 3 4 C2.01 2.68 1.02 1.36 0 0 Z " fill="#7F7F7F" transform="translate(738,127)"/>
<path d="M0 0 C2.31 0 4.62 0 7 0 C7 0.33 7 0.66 7 1 C4.69 1 2.38 1 0 1 C0 0.67 0 0.34 0 0 Z " fill="#838383" transform="translate(722,122)"/>
<path d="M0 0 C2.31 0 4.62 0 7 0 C7 0.33 7 0.66 7 1 C4.69 1 2.38 1 0 1 C0 0.67 0 0.34 0 0 Z " fill="#616161" transform="translate(823,100)"/>
<path d="M0 0 C2.31 0 4.62 0 7 0 C7 0.33 7 0.66 7 1 C4.69 1 2.38 1 0 1 C0 0.67 0 0.34 0 0 Z " fill="#5F5F5F" transform="translate(727,100)"/>
<path d="M0 0 C2.31 0 4.62 0 7 0 C7 0.33 7 0.66 7 1 C4.69 1 2.38 1 0 1 C0 0.67 0 0.34 0 0 Z " fill="#515151" transform="translate(708,100)"/>
<path d="M0 0 C1.98 0 3.96 0 6 0 C6 0.33 6 0.66 6 1 C4.02 1 2.04 1 0 1 C0 0.67 0 0.34 0 0 Z " fill="#5D5D5D" transform="translate(622,212)"/>
<path d="M0 0 C1.98 0 3.96 0 6 0 C6 0.33 6 0.66 6 1 C4.02 1 2.04 1 0 1 C0 0.67 0 0.34 0 0 Z " fill="#5E5E5E" transform="translate(584,212)"/>
<path d="M0 0 C1.98 0 3.96 0 6 0 C6 0.33 6 0.66 6 1 C4.02 1 2.04 1 0 1 C0 0.67 0 0.34 0 0 Z " fill="#646464" transform="translate(614,190)"/>
<path d="M0 0 C0.33 0 0.66 0 1 0 C1 1.98 1 3.96 1 6 C0.67 6 0.34 6 0 6 C0 4.02 0 2.04 0 0 Z " fill="#5A595A" transform="translate(664,163)"/>
<path d="M0 0 C0.33 0 0.66 0 1 0 C1 1.98 1 3.96 1 6 C0.67 6 0.34 6 0 6 C0 4.02 0 2.04 0 0 Z " fill="#686868" transform="translate(693,163)"/>
<path d="M0 0 C0.33 0 0.66 0 1 0 C1 1.98 1 3.96 1 6 C0.67 6 0.34 6 0 6 C0 4.02 0 2.04 0 0 Z " fill="#696969" transform="translate(748,161)"/>
<path d="M0 0 C0.33 0 0.66 0 1 0 C1 1.98 1 3.96 1 6 C0.67 6 0.34 6 0 6 C0 4.02 0 2.04 0 0 Z " fill="#616161" transform="translate(748,145)"/>
<path d="M0 0 C0.33 0 0.66 0 1 0 C1 1.98 1 3.96 1 6 C0.67 6 0.34 6 0 6 C0 4.02 0 2.04 0 0 Z " fill="#575757" transform="translate(664,143)"/>
<path d="M0 0 C1.98 0 3.96 0 6 0 C6 0.33 6 0.66 6 1 C4.02 1 2.04 1 0 1 C0 0.67 0 0.34 0 0 Z " fill="#6D6D6D" transform="translate(826,124)"/>
<path d="M0 0 C1.98 0 3.96 0 6 0 C6 0.33 6 0.66 6 1 C4.02 1 2.04 1 0 1 C0 0.67 0 0.34 0 0 Z " fill="#6A6A6A" transform="translate(576,101)"/>
<path d="M0 0 C1.98 0 3.96 0 6 0 C6 0.33 6 0.66 6 1 C4.02 1 2.04 1 0 1 C0 0.67 0 0.34 0 0 Z " fill="#565656" transform="translate(911,100)"/>
<path d="M0 0 C1.98 0 3.96 0 6 0 C6 0.33 6 0.66 6 1 C4.02 1 2.04 1 0 1 C0 0.67 0 0.34 0 0 Z " fill="#5E5E5E" transform="translate(894,100)"/>
<path d="M0 0 C1.98 0 3.96 0 6 0 C6 0.33 6 0.66 6 1 C4.02 1 2.04 1 0 1 C0 0.67 0 0.34 0 0 Z " fill="#5A5A5A" transform="translate(841,100)"/>
<path d="M0 0 C1.65 0 3.3 0 5 0 C5 0.33 5 0.66 5 1 C3.35 1 1.7 1 0 1 C0 0.67 0 0.34 0 0 Z " fill="#646464" transform="translate(733,212)"/>
<path d="M0 0 C1.65 0 3.3 0 5 0 C5 0.33 5 0.66 5 1 C3.35 1 1.7 1 0 1 C0 0.67 0 0.34 0 0 Z " fill="#676767" transform="translate(629,211)"/>
<path d="M0 0 C0.33 0 0.66 0 1 0 C1 1.65 1 3.3 1 5 C0.67 5 0.34 5 0 5 C0 3.35 0 1.7 0 0 Z " fill="#747474" transform="translate(693,144)"/>
<path d="M0 0 C1.65 0 3.3 0 5 0 C5 0.33 5 0.66 5 1 C3.35 1 1.7 1 0 1 C0 0.67 0 0.34 0 0 Z " fill="#5A5A5A" transform="translate(573,125)"/>
<path d="M0 0 C1.65 0 3.3 0 5 0 C5 0.33 5 0.66 5 1 C3.35 1 1.7 1 0 1 C0 0.67 0 0.34 0 0 Z " fill="#7D7D7D" transform="translate(605,124)"/>
<path d="M0 0 C1.65 0 3.3 0 5 0 C5 0.33 5 0.66 5 1 C3.35 1 1.7 1 0 1 C0 0.67 0 0.34 0 0 Z " fill="#616161" transform="translate(571,102)"/>
<path d="M0 0 C4 1 4 1 4 1 Z " fill="#616161" transform="translate(704,212)"/>
<path d="M0 0 C4 1 4 1 4 1 Z " fill="#727272" transform="translate(579,211)"/>
<path d="M0 0 C4 1 4 1 4 1 Z " fill="#5A5A5A" transform="translate(634,210)"/>
<path d="M0 0 C4 1 4 1 4 1 Z " fill="#6A6A6A" transform="translate(575,210)"/>
<path d="M0 0 C4 1 4 1 4 1 Z " fill="#6B6B6B" transform="translate(589,190)"/>
<path d="M0 0 C1 4 1 4 1 4 Z " fill="#5B5B5B" transform="translate(665,170)"/>
<path d="M0 0 C1 4 1 4 1 4 Z " fill="#616161" transform="translate(776,169)"/>
<path d="M0 0 C1 4 1 4 1 4 Z " fill="#616161" transform="translate(747,168)"/>
<path d="M0 0 C4 1 4 1 4 1 Z " fill="#7D7D7D" transform="translate(591,163)"/>
<path d="M0 0 C1 4 1 4 1 4 Z " fill="#6C6C6C" transform="translate(776,139)"/>
<path d="M0 0 C4 1 4 1 4 1 Z " fill="#616161" transform="translate(585,142)"/>
<path d="M0 0 C1 4 1 4 1 4 Z " fill="#5B5B5B" transform="translate(665,138)"/>
<path d="M0 0 C1 4 1 4 1 4 Z " fill="#1C1C1C" transform="translate(623,137)"/>
<path d="M0 0 C1 4 1 4 1 4 Z " fill="#626262" transform="translate(649,127)"/>
<path d="M0 0 C4 1 4 1 4 1 Z " fill="#646464" transform="translate(559,128)"/>
<path d="M0 0 C4 1 4 1 4 1 Z " fill="#5C5C5C" transform="translate(563,127)"/>
<path d="M0 0 C4 1 4 1 4 1 Z " fill="#656565" transform="translate(568,126)"/>
<path d="M0 0 C4 1 4 1 4 1 Z " fill="#6D6D6D" transform="translate(822,125)"/>
<path d="M0 0 C4 1 4 1 4 1 Z " fill="#3B3B3B" transform="translate(835,123)"/>
<path d="M0 0 C4 1 4 1 4 1 Z " fill="#626262" transform="translate(813,102)"/>
<path d="M0 0 C4 1 4 1 4 1 Z " fill="#5B5A5B" transform="translate(889,101)"/>
<path d="M0 0 C4 1 4 1 4 1 Z " fill="#5F5F5F" transform="translate(848,101)"/>
<path d="M0 0 C4 1 4 1 4 1 Z " fill="#565656" transform="translate(818,101)"/>
<path d="M0 0 C4 1 4 1 4 1 Z " fill="#636363" transform="translate(735,101)"/>
<path d="M0 0 C4 1 4 1 4 1 Z " fill="#545454" transform="translate(703,101)"/>
<path d="M0 0 C4 1 4 1 4 1 Z " fill="#686868" transform="translate(616,101)"/>
<path d="M0 0 C3 1 3 1 3 1 Z " fill="#4E4E4E" transform="translate(738,211)"/>
<path d="M0 0 C3 1 3 1 3 1 Z " fill="#656565" transform="translate(700,211)"/>
<path d="M0 0 C3 1 3 1 3 1 Z " fill="#565656" transform="translate(697,210)"/>
<path d="M0 0 C3 1 3 1 3 1 Z " fill="#757575" transform="translate(639,209)"/>
<path d="M0 0 C3 1 3 1 3 1 Z " fill="#727272" transform="translate(572,209)"/>
<path d="M0 0 C3 1 3 1 3 1 Z " fill="#595959" transform="translate(642,208)"/>
<path d="M0 0 C3 1 3 1 3 1 Z " fill="#818181" transform="translate(728,190)"/>
<path d="M0 0 C3 1 3 1 3 1 Z " fill="#535353" transform="translate(710,190)"/>
<path d="M0 0 C3 1 3 1 3 1 Z " fill="#828282" transform="translate(621,189)"/>
<path d="M0 0 C3 1 3 1 3 1 Z " fill="#616161" transform="translate(585,189)"/>
<path d="" fill="#6F6F6F" transform="translate(0,0)"/>
<path d="" fill="#606060" transform="translate(0,0)"/>
<path d="" fill="#646464" transform="translate(0,0)"/>
<path d="" fill="#535353" transform="translate(0,0)"/>
<path d="" fill="#727272" transform="translate(0,0)"/>
<path d="M0 0 C0.33 0.66 0.66 1.32 1 2 C0.34 1.67 -0.32 1.34 -1 1 C-0.67 0.67 -0.34 0.34 0 0 Z " fill="#797979" transform="translate(434,175)"/>
<path d="" fill="#6A6A6A" transform="translate(0,0)"/>
<path d="" fill="#626262" transform="translate(0,0)"/>
<path d="" fill="#626262" transform="translate(0,0)"/>
<path d="" fill="#505050" transform="translate(0,0)"/>
<path d="" fill="#565656" transform="translate(0,0)"/>
<path d="M0 0 C3 1 3 1 3 1 Z " fill="#5A5A5A" transform="translate(587,164)"/>
<path d="" fill="#7F7F7F" transform="translate(0,0)"/>
<path d="M0 0 C3 1 3 1 3 1 Z " fill="#646464" transform="translate(574,145)"/>
<path d="M0 0 C3 1 3 1 3 1 Z " fill="#797979" transform="translate(577,144)"/>
<path d="M0 0 C3 1 3 1 3 1 Z " fill="#676767" transform="translate(581,143)"/>
<path d="" fill="#6A6A6A" transform="translate(0,0)"/>
<path d="" fill="#5F5F5F" transform="translate(0,0)"/>
<path d="" fill="#747474" transform="translate(0,0)"/>
<path d="" fill="#4C4C4C" transform="translate(0,0)"/>
<path d="" fill="#696969" transform="translate(0,0)"/>
<path d="" fill="#6B6B6B" transform="translate(0,0)"/>
<path d="" fill="#626262" transform="translate(0,0)"/>
<path d="" fill="#696969" transform="translate(0,0)"/>
<path d="M0 0 C3 1 3 1 3 1 Z " fill="#797979" transform="translate(890,125)"/>
<path d="" fill="#5D5D5D" transform="translate(0,0)"/>
<path d="M0 0 C3 1 3 1 3 1 Z " fill="#5E5E5E" transform="translate(611,125)"/>
<path d="M0 0 C3 1 3 1 3 1 Z " fill="#888888" transform="translate(841,124)"/>
<path d="M0 0 C3 1 3 1 3 1 Z " fill="#656565" transform="translate(709,123)"/>
<path d="M0 0 C3 1 3 1 3 1 Z " fill="#606060" transform="translate(803,105)"/>
<path d="M0 0 C3 1 3 1 3 1 Z " fill="#616161" transform="translate(559,105)"/>
<path d="M0 0 C3 1 3 1 3 1 Z " fill="#666666" transform="translate(806,104)"/>
<path d="M0 0 C3 1 3 1 3 1 Z " fill="#585858" transform="translate(563,104)"/>
<path d="M0 0 C3 1 3 1 3 1 Z " fill="#4E4E4E" transform="translate(810,103)"/>
<path d="M0 0 C3 1 3 1 3 1 Z " fill="#5C5C5C" transform="translate(696,103)"/>
<path d="M0 0 C3 1 3 1 3 1 Z " fill="#666666" transform="translate(567,103)"/>
<path d="M0 0 C3 1 3 1 3 1 Z " fill="#535353" transform="translate(921,102)"/>
<path d="M0 0 C3 1 3 1 3 1 Z " fill="#666666" transform="translate(885,102)"/>
<path d="M0 0 C3 1 3 1 3 1 Z " fill="#575757" transform="translate(852,102)"/>
<path d="M0 0 C3 1 3 1 3 1 Z " fill="#878787" transform="translate(740,102)"/>
<path d="M0 0 C3 1 3 1 3 1 Z " fill="#6C6C6C" transform="translate(699,102)"/>
<path d="M0 0 C3 1 3 1 3 1 Z " fill="#565656" transform="translate(621,102)"/>
<path d="M0 0 C3 1 3 1 3 1 Z " fill="#6B6B6B" transform="translate(918,101)"/>
<path d="" fill="#DC8B66" transform="translate(0,0)"/>
<path d="M0 0 C2 1 2 1 2 1 Z " fill="#F3AD77" transform="translate(299,305)"/>
<path d="M0 0 C2 1 2 1 2 1 Z " fill="#E18A4A" transform="translate(18,305)"/>
<path d="" fill="#D8AF89" transform="translate(0,0)"/>
<path d="" fill="#E16D3F" transform="translate(0,0)"/>
<path d="" fill="#E17A45" transform="translate(0,0)"/>
<path d="M0 0 C2 1 2 1 2 1 Z " fill="#676767" transform="translate(742,210)"/>
<path d="M0 0 C2 1 2 1 2 1 Z " fill="#7E7E7E" transform="translate(745,209)"/>
<path d="M0 0 C2 1 2 1 2 1 Z " fill="#494949" transform="translate(695,209)"/>
<path d="" fill="#3D3D3D" transform="translate(0,0)"/>
<path d="M0 0 C2 1 2 1 2 1 Z " fill="#434343" transform="translate(747,208)"/>
<path d="M0 0 C2 1 2 1 2 1 Z " fill="#A9A9A9" transform="translate(692,208)"/>
<path d="M0 0 C2 1 2 1 2 1 Z " fill="#696969" transform="translate(570,208)"/>
<path d="" fill="#919191" transform="translate(0,0)"/>
<path d="M0 0 C2 1 2 1 2 1 Z " fill="#464646" transform="translate(749,207)"/>
<path d="M0 0 C2 1 2 1 2 1 Z " fill="#7D7D7D" transform="translate(646,207)"/>
<path d="M0 0 C2 1 2 1 2 1 Z " fill="#3E3E3E" transform="translate(568,207)"/>
<path d="M0 0 C2 1 2 1 2 1 Z " fill="#666666" transform="translate(751,206)"/>
<path d="" fill="#6C6C6C" transform="translate(0,0)"/>
<path d="M0 0 C2 1 2 1 2 1 Z " fill="#535353" transform="translate(687,205)"/>
<path d="" fill="#8D8D8D" transform="translate(0,0)"/>
<path d="M0 0 C2 1 2 1 2 1 Z " fill="#8A8A8A" transform="translate(562,204)"/>
<path d="M0 0 C2 1 2 1 2 1 Z " fill="#595959" transform="translate(684,203)"/>
<path d="M0 0 C2 1 2 1 2 1 Z " fill="#6B6B6B" transform="translate(757,202)"/>
<path d="" fill="#636363" transform="translate(0,0)"/>
<path d="" fill="#676767" transform="translate(0,0)"/>
<path d="" fill="#878787" transform="translate(0,0)"/>
<path d="" fill="#5C5C5C" transform="translate(0,0)"/>
<path d="" fill="#767676" transform="translate(0,0)"/>
<path d="" fill="#7A7A7A" transform="translate(0,0)"/>
<path d="" fill="#6B6B6B" transform="translate(0,0)"/>
<path d="" fill="#666666" transform="translate(0,0)"/>
<path d="" fill="#818181" transform="translate(0,0)"/>
<path d="" fill="#6E6E6E" transform="translate(0,0)"/>
<path d="" fill="#797979" transform="translate(0,0)"/>
<path d="" fill="#515151" transform="translate(0,0)"/>
<path d="" fill="#595959" transform="translate(0,0)"/>
<path d="" fill="#999999" transform="translate(0,0)"/>
<path d="M0 0 C2 1 2 1 2 1 Z " fill="#6D6D6D" transform="translate(732,189)"/>
<path d="M0 0 C2 1 2 1 2 1 Z " fill="#8D8D8D" transform="translate(708,189)"/>
<path d="" fill="#818181" transform="translate(0,0)"/>
<path d="M0 0 C2 1 2 1 2 1 Z " fill="#797979" transform="translate(734,188)"/>
<path d="M0 0 C2 1 2 1 2 1 Z " fill="#8F8F8F" transform="translate(583,188)"/>
<path d="" fill="#676767" transform="translate(0,0)"/>
<path d="" fill="#686868" transform="translate(0,0)"/>
<path d="" fill="#656565" transform="translate(0,0)"/>
<path d="" fill="#6B6B6B" transform="translate(0,0)"/>
<path d="M0 0 C2 1 2 1 2 1 Z " fill="#505050" transform="translate(736,187)"/>
<path d="M0 0 C2 1 2 1 2 1 Z " fill="#6D6D6D" transform="translate(704,187)"/>
<path d="" fill="#565656" transform="translate(0,0)"/>
<path d="" fill="#656565" transform="translate(0,0)"/>
<path d="" fill="#868686" transform="translate(0,0)"/>
<path d="" fill="#626262" transform="translate(0,0)"/>
<path d="" fill="#676767" transform="translate(0,0)"/>
<path d="" fill="#777777" transform="translate(0,0)"/>
<path d="" fill="#585858" transform="translate(0,0)"/>
<path d="" fill="#555455" transform="translate(0,0)"/>
<path d="" fill="#5D5D5D" transform="translate(0,0)"/>
<path d="" fill="#545454" transform="translate(0,0)"/>
<path d="" fill="#5F5F5F" transform="translate(0,0)"/>
<path d="" fill="#7F7F7F" transform="translate(0,0)"/>
<path d="" fill="#646464" transform="translate(0,0)"/>
<path d="" fill="#6B6B6B" transform="translate(0,0)"/>
<path d="" fill="#6D6D6D" transform="translate(0,0)"/>
<path d="" fill="#858585" transform="translate(0,0)"/>
<path d="" fill="#6F6F6F" transform="translate(0,0)"/>
<path d="" fill="#626262" transform="translate(0,0)"/>
<path d="" fill="#505050" transform="translate(0,0)"/>
<path d="" fill="#6F6F6F" transform="translate(0,0)"/>
<path d="M0 0 C2 1 2 1 2 1 Z " fill="#676767" transform="translate(579,168)"/>
<path d="M0 0 C2 1 2 1 2 1 Z " fill="#464646" transform="translate(582,166)"/>
<path d="" fill="#929292" transform="translate(0,0)"/>
<path d="" fill="#747474" transform="translate(0,0)"/>
<path d="" fill="#8E8E8E" transform="translate(0,0)"/>
<path d="M0 0 C2 1 2 1 2 1 Z " fill="#8E8E8E" transform="translate(585,165)"/>
<path d="" fill="#7B7B7B" transform="translate(0,0)"/>
<path d="" fill="#838383" transform="translate(0,0)"/>
<path d="" fill="#525252" transform="translate(0,0)"/>
<path d="" fill="#6B6B6B" transform="translate(0,0)"/>
<path d="" fill="#848484" transform="translate(0,0)"/>
<path d="" fill="#797979" transform="translate(0,0)"/>
<path d="M0 0 C2 1 2 1 2 1 Z " fill="#808080" transform="translate(562,151)"/>
<path d="" fill="#6A6A6A" transform="translate(0,0)"/>
<path d="" fill="#676767" transform="translate(0,0)"/>
<path d="M0 0 C2 1 2 1 2 1 Z " fill="#939393" transform="translate(567,148)"/>
<path d="M0 0 C2 1 2 1 2 1 Z " fill="#9E9E9E" transform="translate(569,147)"/>
<path d="M0 0 C2 1 2 1 2 1 Z " fill="#515151" transform="translate(572,146)"/>
<path d="" fill="#646464" transform="translate(0,0)"/>
<path d="" fill="#7D7D7D" transform="translate(0,0)"/>
<path d="" fill="#686868" transform="translate(0,0)"/>
<path d="" fill="#5E5E5E" transform="translate(0,0)"/>
<path d="" fill="#7A7A7A" transform="translate(0,0)"/>
<path d="" fill="#727272" transform="translate(0,0)"/>
<path d="" fill="#737373" transform="translate(0,0)"/>
<path d="M0 0 C2 1 2 1 2 1 Z " fill="#6A6A6A" transform="translate(434,136)"/>
<path d="" fill="#6A6A6A" transform="translate(0,0)"/>
<path d="" fill="#707070" transform="translate(0,0)"/>
<path d="" fill="#828282" transform="translate(0,0)"/>
<path d="" fill="#575757" transform="translate(0,0)"/>
<path d="" fill="#767676" transform="translate(0,0)"/>
<path d="" fill="#707070" transform="translate(0,0)"/>
<path d="" fill="#7B7B7B" transform="translate(0,0)"/>
<path d="" fill="#565656" transform="translate(0,0)"/>
<path d="" fill="#7E7E7E" transform="translate(0,0)"/>
<path d="" fill="#676767" transform="translate(0,0)"/>
<path d="" fill="#747474" transform="translate(0,0)"/>
<path d="" fill="#696969" transform="translate(0,0)"/>
<path d="" fill="#9D9D9D" transform="translate(0,0)"/>
<path d="" fill="#939393" transform="translate(0,0)"/>
<path d="M0 0 C2 1 2 1 2 1 Z " fill="#5C5C5C" transform="translate(881,129)"/>
<path d="" fill="#484848" transform="translate(0,0)"/>
<path d="" fill="#929292" transform="translate(0,0)"/>
<path d="" fill="#6E6E6E" transform="translate(0,0)"/>
<path d="M0 0 C2 1 2 1 2 1 Z " fill="#8C8C8C" transform="translate(911,127)"/>
<path d="M0 0 C2 1 2 1 2 1 Z " fill="#9D9D9D" transform="translate(885,127)"/>
<path d="" fill="#464646" transform="translate(0,0)"/>
<path d="" fill="#828282" transform="translate(0,0)"/>
<path d="" fill="#7D7D7D" transform="translate(0,0)"/>
<path d="" fill="#6D6D6D" transform="translate(0,0)"/>
<path d="M0 0 C2 1 2 1 2 1 Z " fill="#6B6B6B" transform="translate(887,126)"/>
<path d="M0 0 C2 1 2 1 2 1 Z " fill="#5C5C5C" transform="translate(847,126)"/>
<path d="M0 0 C2 1 2 1 2 1 Z " fill="#5E5E5E" transform="translate(703,126)"/>
<path d="" fill="#808080" transform="translate(0,0)"/>
<path d="M0 0 C2 1 2 1 2 1 Z " fill="#868686" transform="translate(614,126)"/>
<path d="M0 0 C2 1 2 1 2 1 Z " fill="#6E6E6E" transform="translate(907,125)"/>
<path d="M0 0 C2 1 2 1 2 1 Z " fill="#6D6D6D" transform="translate(845,125)"/>
<path d="" fill="#555555" transform="translate(0,0)"/>
<path d="M0 0 C2 1 2 1 2 1 Z " fill="#5C5C5C" transform="translate(735,125)"/>
<path d="M0 0 C2 1 2 1 2 1 Z " fill="#9A9A9A" transform="translate(705,125)"/>
<path d="M0 0 C2 1 2 1 2 1 Z " fill="#4B4B4B" transform="translate(733,124)"/>
<path d="M0 0 C2 1 2 1 2 1 Z " fill="#818181" transform="translate(707,124)"/>
<path d="M0 0 C2 1 2 1 2 1 Z " fill="#858585" transform="translate(730,123)"/>
<path d="" fill="#525252" transform="translate(0,0)"/>
<path d="" fill="#434343" transform="translate(0,0)"/>
<path d="" fill="#6B6B6B" transform="translate(0,0)"/>
<path d="" fill="#6F6F6F" transform="translate(0,0)"/>
<path d="" fill="#4B4B4B" transform="translate(0,0)"/>
<path d="" fill="#666666" transform="translate(0,0)"/>
<path d="" fill="#6F6F6F" transform="translate(0,0)"/>
<path d="" fill="#888888" transform="translate(0,0)"/>
<path d="" fill="#565656" transform="translate(0,0)"/>
<path d="" fill="#6A6A6A" transform="translate(0,0)"/>
<path d="" fill="#565656" transform="translate(0,0)"/>
<path d="" fill="#727272" transform="translate(0,0)"/>
<path d="" fill="#8D8D8D" transform="translate(0,0)"/>
<path d="" fill="#747474" transform="translate(0,0)"/>
<path d="" fill="#6A6A6A" transform="translate(0,0)"/>
<path d="" fill="#5C5C5C" transform="translate(0,0)"/>
<path d="" fill="#656565" transform="translate(0,0)"/>
<path d="" fill="#767676" transform="translate(0,0)"/>
<path d="" fill="#545454" transform="translate(0,0)"/>
<path d="M0 0 C2 1 2 1 2 1 Z " fill="#373737" transform="translate(868,110)"/>
<path d="M0 0 C2 1 2 1 2 1 Z " fill="#888888" transform="translate(683,110)"/>
<path d="" fill="#676767" transform="translate(0,0)"/>
<path d="M0 0 C2 1 2 1 2 1 Z " fill="#434343" transform="translate(794,109)"/>
<path d="" fill="#676767" transform="translate(0,0)"/>
<path d="M0 0 C2 1 2 1 2 1 Z " fill="#8D8D8D" transform="translate(871,108)"/>
<path d="M0 0 C2 1 2 1 2 1 Z " fill="#535353" transform="translate(865,108)"/>
<path d="M0 0 C2 1 2 1 2 1 Z " fill="#545454" transform="translate(796,108)"/>
<path d="M0 0 C2 1 2 1 2 1 Z " fill="#777777" transform="translate(686,108)"/>
<path d="M0 0 C2 1 2 1 2 1 Z " fill="#5C5C5C" transform="translate(635,108)"/>
<path d="M0 0 C2 1 2 1 2 1 Z " fill="#696969" transform="translate(873,107)"/>
<path d="M0 0 C2 1 2 1 2 1 Z " fill="#7D7D7D" transform="translate(798,107)"/>
<path d="M0 0 C2 1 2 1 2 1 Z " fill="#585858" transform="translate(752,107)"/>
<path d="" fill="#6F6F6F" transform="translate(0,0)"/>
<path d="M0 0 C2 1 2 1 2 1 Z " fill="#5B5B5B" transform="translate(875,106)"/>
<path d="M0 0 C2 1 2 1 2 1 Z " fill="#686868" transform="translate(862,106)"/>
<path d="M0 0 C2 1 2 1 2 1 Z " fill="#3F3F3F" transform="translate(801,106)"/>
<path d="M0 0 C2 1 2 1 2 1 Z " fill="#585858" transform="translate(750,106)"/>
<path d="M0 0 C2 1 2 1 2 1 Z " fill="#888888" transform="translate(632,106)"/>
<path d="" fill="#7A7A7A" transform="translate(0,0)"/>
<path d="" fill="#676767" transform="translate(0,0)"/>
<path d="M0 0 C2 1 2 1 2 1 Z " fill="#515151" transform="translate(928,105)"/>
<path d="M0 0 C2 1 2 1 2 1 Z " fill="#7A7A7A" transform="translate(877,105)"/>
<path d="M0 0 C2 1 2 1 2 1 Z " fill="#575757" transform="translate(860,105)"/>
<path d="M0 0 C2 1 2 1 2 1 Z " fill="#454545" transform="translate(748,105)"/>
<path d="M0 0 C2 1 2 1 2 1 Z " fill="#818181" transform="translate(630,105)"/>
<path d="M0 0 C2 1 2 1 2 1 Z " fill="#444444" transform="translate(926,104)"/>
<path d="M0 0 C2 1 2 1 2 1 Z " fill="#3E3E3E" transform="translate(880,104)"/>
<path d="M0 0 C2 1 2 1 2 1 Z " fill="#696969" transform="translate(858,104)"/>
<path d="M0 0 C2 1 2 1 2 1 Z " fill="#7C7C7C" transform="translate(746,104)"/>
<path d="M0 0 C2 1 2 1 2 1 Z " fill="#494949" transform="translate(694,104)"/>
<path d="M0 0 C2 1 2 1 2 1 Z " fill="#969696" transform="translate(628,104)"/>
<path d="M0 0 C2 1 2 1 2 1 Z " fill="#515151" transform="translate(924,103)"/>
<path d="M0 0 C2 1 2 1 2 1 Z " fill="#868686" transform="translate(882,103)"/>
<path d="M0 0 C2 1 2 1 2 1 Z " fill="#898989" transform="translate(856,103)"/>
<path d="M0 0 C2 1 2 1 2 1 Z " fill="#575757" transform="translate(743,103)"/>
<path d="M0 0 C2 1 2 1 2 1 Z " fill="#767676" transform="translate(625,103)"/>
<path d="" fill="#DB5F2D" transform="translate(0,0)"/>
<path d="" fill="#C77E52" transform="translate(0,0)"/>
<path d="" fill="#D87A65" transform="translate(0,0)"/>
<path d="M0 0 C2 1 2 1 2 1 Z " fill="#CF855E" transform="translate(299,8)"/>
<path d="" fill="#F0975F" transform="translate(0,0)"/>
<path d="" fill="#F07013" transform="translate(0,0)"/>
<path d="" fill="#DF4F1C" transform="translate(0,0)"/>
<path d="" fill="#FFC19F" transform="translate(0,0)"/>
<path d="" fill="#D7420E" transform="translate(0,0)"/>
<path d="" fill="#FCB58D" transform="translate(0,0)"/>
<path d="" fill="#C74A07" transform="translate(0,0)"/>
<path d="" fill="#FCC198" transform="translate(0,0)"/>
<path d="" fill="#EE6B2C" transform="translate(0,0)"/>
<path d="" fill="#FFA371" transform="translate(0,0)"/>
<path d="" fill="#6D6D6D" transform="translate(0,0)"/>
<path d="" fill="#6D6D6D" transform="translate(0,0)"/>
<path d="" fill="#4B4B4B" transform="translate(0,0)"/>
<path d="" fill="#1C1C1C" transform="translate(0,0)"/>
<path d="" fill="#AFAFAF" transform="translate(0,0)"/>
<path d="" fill="#BFBFBF" transform="translate(0,0)"/>
<path d="" fill="#313131" transform="translate(0,0)"/>
<path d="" fill="#737373" transform="translate(0,0)"/>
<path d="" fill="#737373" transform="translate(0,0)"/>
<path d="" fill="#585858" transform="translate(0,0)"/>
<path d="" fill="#717171" transform="translate(0,0)"/>
<path d="" fill="#161616" transform="translate(0,0)"/>
<path d="" fill="#7D7D7D" transform="translate(0,0)"/>
<path d="" fill="#7D7D7D" transform="translate(0,0)"/>
<path d="" fill="#0D0D0D" transform="translate(0,0)"/>
<path d="" fill="#747474" transform="translate(0,0)"/>
<path d="" fill="#A1A1A1" transform="translate(0,0)"/>
<path d="" fill="#5B5B5B" transform="translate(0,0)"/>
<path d="" fill="#8B8B8B" transform="translate(0,0)"/>
<path d="" fill="#A9A9A9" transform="translate(0,0)"/>
<path d="" fill="#9B9B9B" transform="translate(0,0)"/>
<path d="" fill="#5F5F5F" transform="translate(0,0)"/>
<path d="" fill="#A7A6A7" transform="translate(0,0)"/>
<path d="" fill="#A8A8A8" transform="translate(0,0)"/>
<path d="" fill="#525152" transform="translate(0,0)"/>
<path d="" fill="#9C9C9C" transform="translate(0,0)"/>
<path d="" fill="#737373" transform="translate(0,0)"/>
<path d="" fill="#232323" transform="translate(0,0)"/>
<path d="" fill="#777777" transform="translate(0,0)"/>
<path d="" fill="#828282" transform="translate(0,0)"/>
<path d="" fill="#858585" transform="translate(0,0)"/>
<path d="" fill="#6B6B6B" transform="translate(0,0)"/>
<path d="" fill="#414141" transform="translate(0,0)"/>
<path d="" fill="#6B6B6B" transform="translate(0,0)"/>
<path d="" fill="#979797" transform="translate(0,0)"/>
<path d="" fill="#303030" transform="translate(0,0)"/>
<path d="" fill="#A7A6A7" transform="translate(0,0)"/>
<path d="" fill="#5A5A5A" transform="translate(0,0)"/>
<path d="" fill="#222222" transform="translate(0,0)"/>
<path d="" fill="#999999" transform="translate(0,0)"/>
<path d="" fill="#9B9B9B" transform="translate(0,0)"/>
<path d="" fill="#3A3A3A" transform="translate(0,0)"/>
<path d="" fill="#000000" transform="translate(0,0)"/>
<path d="" fill="#B2B2B2" transform="translate(0,0)"/>
<path d="" fill="#888888" transform="translate(0,0)"/>
<path d="" fill="#505050" transform="translate(0,0)"/>
<path d="" fill="#262626" transform="translate(0,0)"/>
<path d="" fill="#959595" transform="translate(0,0)"/>
<path d="" fill="#4D4D4D" transform="translate(0,0)"/>
<path d="" fill="#484848" transform="translate(0,0)"/>
<path d="" fill="#939393" transform="translate(0,0)"/>
<path d="" fill="#707070" transform="translate(0,0)"/>
<path d="" fill="#505050" transform="translate(0,0)"/>
<path d="" fill="#000000" transform="translate(0,0)"/>
<path d="" fill="#717171" transform="translate(0,0)"/>
<path d="" fill="#808080" transform="translate(0,0)"/>
<path d="" fill="#888888" transform="translate(0,0)"/>
<path d="" fill="#656565" transform="translate(0,0)"/>
<path d="" fill="#888888" transform="translate(0,0)"/>
<path d="" fill="#545454" transform="translate(0,0)"/>
<path d="" fill="#111111" transform="translate(0,0)"/>
<path d="" fill="#B3B3B3" transform="translate(0,0)"/>
<path d="" fill="#999999" transform="translate(0,0)"/>
<path d="" fill="#4C4C4C" transform="translate(0,0)"/>
<path d="" fill="#727272" transform="translate(0,0)"/>
<path d="" fill="#9D9D9D" transform="translate(0,0)"/>
<path d="" fill="#646464" transform="translate(0,0)"/>
<path d="" fill="#9D9D9D" transform="translate(0,0)"/>
<path d="" fill="#979797" transform="translate(0,0)"/>
<path d="" fill="#3B3B3B" transform="translate(0,0)"/>
<path d="" fill="#858585" transform="translate(0,0)"/>
<path d="" fill="#888888" transform="translate(0,0)"/>
<path d="" fill="#6B6B6B" transform="translate(0,0)"/>
<path d="" fill="#777777" transform="translate(0,0)"/>
<path d="" fill="#898989" transform="translate(0,0)"/>
<path d="" fill="#6A6A6A" transform="translate(0,0)"/>
<path d="" fill="#555555" transform="translate(0,0)"/>
<path d="" fill="#1E1E1E" transform="translate(0,0)"/>
<path d="" fill="#A4A4A4" transform="translate(0,0)"/>
<path d="" fill="#ADADAD" transform="translate(0,0)"/>
<path d="" fill="#010101" transform="translate(0,0)"/>
<path d="" fill="#616161" transform="translate(0,0)"/>
<path d="" fill="#747474" transform="translate(0,0)"/>
<path d="" fill="#BBBBBB" transform="translate(0,0)"/>
<path d="" fill="#BABABA" transform="translate(0,0)"/>
<path d="" fill="#9C9C9C" transform="translate(0,0)"/>
<path d="" fill="#666666" transform="translate(0,0)"/>
<path d="" fill="#696969" transform="translate(0,0)"/>
<path d="" fill="#999999" transform="translate(0,0)"/>
<path d="" fill="#787878" transform="translate(0,0)"/>
<path d="" fill="#636363" transform="translate(0,0)"/>
<path d="" fill="#939393" transform="translate(0,0)"/>
<path d="" fill="#9A9A9A" transform="translate(0,0)"/>
<path d="" fill="#6B6B6B" transform="translate(0,0)"/>
<path d="" fill="#696969" transform="translate(0,0)"/>
<path d="" fill="#979797" transform="translate(0,0)"/>
<path d="" fill="#808080" transform="translate(0,0)"/>
<path d="" fill="#1F1F1F" transform="translate(0,0)"/>
<path d="" fill="#7D7D7D" transform="translate(0,0)"/>
<path d="" fill="#686868" transform="translate(0,0)"/>
<path d="" fill="#5F5F5F" transform="translate(0,0)"/>
<path d="" fill="#868686" transform="translate(0,0)"/>
<path d="" fill="#656565" transform="translate(0,0)"/>
<path d="" fill="#727272" transform="translate(0,0)"/>
<path d="" fill="#A0A0A0" transform="translate(0,0)"/>
<path d="" fill="#5A5A5A" transform="translate(0,0)"/>
<path d="" fill="#9E9E9E" transform="translate(0,0)"/>
<path d="" fill="#8E8E8E" transform="translate(0,0)"/>
<path d="" fill="#646464" transform="translate(0,0)"/>
<path d="" fill="#959595" transform="translate(0,0)"/>
<path d="" fill="#9E9E9E" transform="translate(0,0)"/>
<path d="" fill="#7E7E7E" transform="translate(0,0)"/>
<path d="" fill="#545454" transform="translate(0,0)"/>
<path d="" fill="#A4A4A4" transform="translate(0,0)"/>
<path d="" fill="#7D7D7D" transform="translate(0,0)"/>
<path d="" fill="#929292" transform="translate(0,0)"/>
<path d="" fill="#484848" transform="translate(0,0)"/>
<path d="" fill="#373737" transform="translate(0,0)"/>
<path d="" fill="#8D8D8D" transform="translate(0,0)"/>
<path d="" fill="#6D6D6D" transform="translate(0,0)"/>
<path d="" fill="#BFBFBF" transform="translate(0,0)"/>
<path d="" fill="#656565" transform="translate(0,0)"/>
<path d="" fill="#3A3A3A" transform="translate(0,0)"/>
<path d="" fill="#949494" transform="translate(0,0)"/>
<path d="" fill="#909090" transform="translate(0,0)"/>
<path d="" fill="#737373" transform="translate(0,0)"/>
<path d="" fill="#727272" transform="translate(0,0)"/>
<path d="" fill="#6C6C6C" transform="translate(0,0)"/>
<path d="" fill="#565656" transform="translate(0,0)"/>
<path d="" fill="#9C9C9C" transform="translate(0,0)"/>
<path d="" fill="#4D4D4D" transform="translate(0,0)"/>
<path d="" fill="#7E7E7E" transform="translate(0,0)"/>
<path d="" fill="#6C6C6C" transform="translate(0,0)"/>
<path d="" fill="#4C4C4C" transform="translate(0,0)"/>
<path d="" fill="#888888" transform="translate(0,0)"/>
<path d="" fill="#9A9A9A" transform="translate(0,0)"/>
<path d="" fill="#888888" transform="translate(0,0)"/>
<path d="" fill="#A9A9A9" transform="translate(0,0)"/>
<path d="" fill="#636363" transform="translate(0,0)"/>
<path d="" fill="#808080" transform="translate(0,0)"/>
<path d="" fill="#4D4D4D" transform="translate(0,0)"/>
<path d="" fill="#A9A9A9" transform="translate(0,0)"/>
<path d="" fill="#B3B3B3" transform="translate(0,0)"/>
<path d="" fill="#808080" transform="translate(0,0)"/>
<path d="" fill="#8E8E8E" transform="translate(0,0)"/>
<path d="" fill="#363636" transform="translate(0,0)"/>
<path d="" fill="#6B6B6B" transform="translate(0,0)"/>
<path d="" fill="#1E1E1E" transform="translate(0,0)"/>
<path d="" fill="#BABABA" transform="translate(0,0)"/>
<path d="" fill="#929292" transform="translate(0,0)"/>
<path d="" fill="#969696" transform="translate(0,0)"/>
<path d="" fill="#828282" transform="translate(0,0)"/>
<path d="" fill="#696969" transform="translate(0,0)"/>
<path d="" fill="#5D5D5D" transform="translate(0,0)"/>
<path d="" fill="#9A9A9A" transform="translate(0,0)"/>
<path d="" fill="#BEBEBE" transform="translate(0,0)"/>
<path d="" fill="#626262" transform="translate(0,0)"/>
<path d="" fill="#9A9A9A" transform="translate(0,0)"/>
<path d="" fill="#747474" transform="translate(0,0)"/>
<path d="" fill="#646464" transform="translate(0,0)"/>
<path d="" fill="#B8B8B8" transform="translate(0,0)"/>
<path d="" fill="#616161" transform="translate(0,0)"/>
<path d="" fill="#8E8E8E" transform="translate(0,0)"/>
<path d="" fill="#9E9E9E" transform="translate(0,0)"/>
<path d="" fill="#4D4D4D" transform="translate(0,0)"/>
<path d="" fill="#626262" transform="translate(0,0)"/>
<path d="" fill="#7E7E7E" transform="translate(0,0)"/>
<path d="" fill="#1A1A1A" transform="translate(0,0)"/>
<path d="" fill="#4D4D4D" transform="translate(0,0)"/>
<path d="" fill="#010101" transform="translate(0,0)"/>
<path d="" fill="#010101" transform="translate(0,0)"/>
<path d="" fill="#010101" transform="translate(0,0)"/>
<path d="" fill="#B0B0B0" transform="translate(0,0)"/>
<path d="" fill="#1A1A1A" transform="translate(0,0)"/>
<path d="" fill="#646464" transform="translate(0,0)"/>
<path d="" fill="#A2A2A2" transform="translate(0,0)"/>
<path d="" fill="#717171" transform="translate(0,0)"/>
<path d="" fill="#6F6F6F" transform="translate(0,0)"/>
<path d="" fill="#A7A6A7" transform="translate(0,0)"/>
<path d="" fill="#969696" transform="translate(0,0)"/>
<path d="" fill="#999999" transform="translate(0,0)"/>
<path d="" fill="#646464" transform="translate(0,0)"/>
<path d="" fill="#464646" transform="translate(0,0)"/>
<path d="" fill="#666666" transform="translate(0,0)"/>
<path d="" fill="#6D6D6D" transform="translate(0,0)"/>
<path d="" fill="#888888" transform="translate(0,0)"/>
<path d="" fill="#9D9D9D" transform="translate(0,0)"/>
<path d="" fill="#B8B8B8" transform="translate(0,0)"/>
<path d="" fill="#414141" transform="translate(0,0)"/>
<path d="" fill="#2A2A2A" transform="translate(0,0)"/>
<path d="" fill="#7D7D7D" transform="translate(0,0)"/>
<path d="" fill="#7B7B7B" transform="translate(0,0)"/>
<path d="" fill="#9B9B9B" transform="translate(0,0)"/>
<path d="" fill="#A3A3A3" transform="translate(0,0)"/>
<path d="" fill="#565656" transform="translate(0,0)"/>
<path d="" fill="#6B6B6B" transform="translate(0,0)"/>
<path d="" fill="#949494" transform="translate(0,0)"/>
<path d="" fill="#898989" transform="translate(0,0)"/>
<path d="" fill="#B0B0B0" transform="translate(0,0)"/>
<path d="" fill="#535353" transform="translate(0,0)"/>
<path d="" fill="#8C8C8C" transform="translate(0,0)"/>
<path d="" fill="#414141" transform="translate(0,0)"/>
<path d="" fill="#8B8B8B" transform="translate(0,0)"/>
<path d="" fill="#868686" transform="translate(0,0)"/>
<path d="" fill="#939393" transform="translate(0,0)"/>
<path d="" fill="#8D8D8D" transform="translate(0,0)"/>
<path d="" fill="#B0B0B0" transform="translate(0,0)"/>
<path d="" fill="#6B6B6B" transform="translate(0,0)"/>
<path d="" fill="#A2A2A2" transform="translate(0,0)"/>
<path d="" fill="#656565" transform="translate(0,0)"/>
<path d="" fill="#616161" transform="translate(0,0)"/>
<path d="" fill="#929292" transform="translate(0,0)"/>
<path d="" fill="#868686" transform="translate(0,0)"/>
<path d="" fill="#A2A2A2" transform="translate(0,0)"/>
<path d="" fill="#3B3B3B" transform="translate(0,0)"/>
<path d="" fill="#909090" transform="translate(0,0)"/>
<path d="" fill="#5A5A5A" transform="translate(0,0)"/>
<path d="" fill="#565656" transform="translate(0,0)"/>
<path d="" fill="#4B4B4B" transform="translate(0,0)"/>
<path d="" fill="#6A6A6A" transform="translate(0,0)"/>
<path d="" fill="#B6B6B6" transform="translate(0,0)"/>
<path d="" fill="#C8C8C8" transform="translate(0,0)"/>
<path d="" fill="#777777" transform="translate(0,0)"/>
<path d="" fill="#9C9C9C" transform="translate(0,0)"/>
<path d="" fill="#8B8B8B" transform="translate(0,0)"/>
<path d="" fill="#979797" transform="translate(0,0)"/>
<path d="" fill="#787878" transform="translate(0,0)"/>
<path d="" fill="#6D6D6D" transform="translate(0,0)"/>
<path d="" fill="#6D6D6D" transform="translate(0,0)"/>
<path d="" fill="#6A6A6A" transform="translate(0,0)"/>
<path d="" fill="#959595" transform="translate(0,0)"/>
<path d="" fill="#A1A1A1" transform="translate(0,0)"/>
<path d="" fill="#6D6D6D" transform="translate(0,0)"/>
<path d="" fill="#5C5C5C" transform="translate(0,0)"/>
<path d="" fill="#656565" transform="translate(0,0)"/>
<path d="" fill="#454545" transform="translate(0,0)"/>
<path d="" fill="#646464" transform="translate(0,0)"/>
<path d="" fill="#808080" transform="translate(0,0)"/>
<path d="" fill="#808080" transform="translate(0,0)"/>
<path d="" fill="#666666" transform="translate(0,0)"/>
<path d="" fill="#7A7A7A" transform="translate(0,0)"/>
<path d="" fill="#ACACAC" transform="translate(0,0)"/>
<path d="" fill="#999999" transform="translate(0,0)"/>
<path d="" fill="#959595" transform="translate(0,0)"/>
<path d="" fill="#727272" transform="translate(0,0)"/>
<path d="" fill="#9C9C9C" transform="translate(0,0)"/>
<path d="" fill="#828282" transform="translate(0,0)"/>
<path d="" fill="#5F5F5F" transform="translate(0,0)"/>
<path d="" fill="#BDBDBD" transform="translate(0,0)"/>
<path d="" fill="#545454" transform="translate(0,0)"/>
<path d="" fill="#C4C4C4" transform="translate(0,0)"/>
<path d="" fill="#3F3F3F" transform="translate(0,0)"/>
<path d="" fill="#292929" transform="translate(0,0)"/>
<path d="" fill="#A3A3A3" transform="translate(0,0)"/>
<path d="" fill="#686868" transform="translate(0,0)"/>
<path d="" fill="#717171" transform="translate(0,0)"/>
<path d="" fill="#0F0F0F" transform="translate(0,0)"/>
<path d="" fill="#BABABA" transform="translate(0,0)"/>
<path d="" fill="#9C9C9C" transform="translate(0,0)"/>
<path d="" fill="#686868" transform="translate(0,0)"/>
<path d="" fill="#707070" transform="translate(0,0)"/>
<path d="" fill="#7B7B7B" transform="translate(0,0)"/>
<path d="" fill="#797979" transform="translate(0,0)"/>
<path d="" fill="#888888" transform="translate(0,0)"/>
<path d="" fill="#727272" transform="translate(0,0)"/>
<path d="" fill="#A0A0A0" transform="translate(0,0)"/>
<path d="" fill="#363636" transform="translate(0,0)"/>
<path d="" fill="#939393" transform="translate(0,0)"/>
<path d="" fill="#5D5D5D" transform="translate(0,0)"/>
<path d="" fill="#A5A5A5" transform="translate(0,0)"/>
<path d="" fill="#848484" transform="translate(0,0)"/>
<path d="" fill="#C4C4C4" transform="translate(0,0)"/>
<path d="" fill="#7F7F7F" transform="translate(0,0)"/>
<path d="" fill="#A0A0A0" transform="translate(0,0)"/>
<path d="" fill="#7E7E7E" transform="translate(0,0)"/>
<path d="" fill="#B2B2B2" transform="translate(0,0)"/>
<path d="" fill="#767676" transform="translate(0,0)"/>
<path d="" fill="#454545" transform="translate(0,0)"/>
<path d="" fill="#7D7D7D" transform="translate(0,0)"/>
<path d="" fill="#737373" transform="translate(0,0)"/>
<path d="" fill="#9D9D9D" transform="translate(0,0)"/>
<path d="" fill="#A5A5A5" transform="translate(0,0)"/>
<path d="" fill="#717171" transform="translate(0,0)"/>
<path d="" fill="#A1A1A1" transform="translate(0,0)"/>
<path d="" fill="#7B7B7B" transform="translate(0,0)"/>
<path d="" fill="#494949" transform="translate(0,0)"/>
<path d="" fill="#9B9B9B" transform="translate(0,0)"/>
<path d="" fill="#A5A5A5" transform="translate(0,0)"/>
<path d="" fill="#717171" transform="translate(0,0)"/>
<path d="" fill="#898989" transform="translate(0,0)"/>
<path d="" fill="#686868" transform="translate(0,0)"/>
<path d="" fill="#B1B1B1" transform="translate(0,0)"/>
<path d="" fill="#797979" transform="translate(0,0)"/>
<path d="" fill="#545454" transform="translate(0,0)"/>
<path d="" fill="#9B9B9B" transform="translate(0,0)"/>
<path d="" fill="#3D3D3D" transform="translate(0,0)"/>
<path d="" fill="#464646" transform="translate(0,0)"/>
<path d="" fill="#C5C5C5" transform="translate(0,0)"/>
<path d="" fill="#939393" transform="translate(0,0)"/>
<path d="" fill="#010101" transform="translate(0,0)"/>
<path d="" fill="#525152" transform="translate(0,0)"/>
<path d="" fill="#999999" transform="translate(0,0)"/>
<path d="" fill="#717171" transform="translate(0,0)"/>
<path d="" fill="#6F6F6F" transform="translate(0,0)"/>
<path d="" fill="#5B5B5B" transform="translate(0,0)"/>
<path d="" fill="#3E3E3E" transform="translate(0,0)"/>
<path d="" fill="#B3B3B3" transform="translate(0,0)"/>
<path d="" fill="#585858" transform="translate(0,0)"/>
<path d="" fill="#828282" transform="translate(0,0)"/>
<path d="" fill="#6C6C6C" transform="translate(0,0)"/>
<path d="" fill="#555555" transform="translate(0,0)"/>
<path d="" fill="#747474" transform="translate(0,0)"/>
<path d="" fill="#828282" transform="translate(0,0)"/>
<path d="" fill="#A8A8A8" transform="translate(0,0)"/>
<path d="" fill="#525152" transform="translate(0,0)"/>
<path d="" fill="#848484" transform="translate(0,0)"/>
<path d="" fill="#808080" transform="translate(0,0)"/>
<path d="" fill="#AAAAAA" transform="translate(0,0)"/>
<path d="" fill="#787878" transform="translate(0,0)"/>
<path d="" fill="#8D8D8D" transform="translate(0,0)"/>
<path d="" fill="#979797" transform="translate(0,0)"/>
<path d="" fill="#555555" transform="translate(0,0)"/>
<path d="" fill="#7D7D7D" transform="translate(0,0)"/>
<path d="" fill="#5B5B5B" transform="translate(0,0)"/>
<path d="" fill="#9D9D9D" transform="translate(0,0)"/>
<path d="" fill="#707070" transform="translate(0,0)"/>
<path d="" fill="#7D7D7D" transform="translate(0,0)"/>
<path d="" fill="#A4A4A4" transform="translate(0,0)"/>
<path d="" fill="#717171" transform="translate(0,0)"/>
<path d="" fill="#878787" transform="translate(0,0)"/>
<path d="" fill="#7A7A7A" transform="translate(0,0)"/>
<path d="" fill="#5F5F5F" transform="translate(0,0)"/>
<path d="" fill="#737373" transform="translate(0,0)"/>
<path d="" fill="#ACACAC" transform="translate(0,0)"/>
<path d="" fill="#3B3B3B" transform="translate(0,0)"/>
<path d="" fill="#797979" transform="translate(0,0)"/>
<path d="" fill="#828282" transform="translate(0,0)"/>
<path d="" fill="#7D7D7D" transform="translate(0,0)"/>
<path d="" fill="#B7B7B7" transform="translate(0,0)"/>
<path d="" fill="#929292" transform="translate(0,0)"/>
<path d="" fill="#868686" transform="translate(0,0)"/>
<path d="" fill="#333333" transform="translate(0,0)"/>
<path d="" fill="#787878" transform="translate(0,0)"/>
<path d="" fill="#2B2B2B" transform="translate(0,0)"/>
<path d="" fill="#E99367" transform="translate(0,0)"/>
<path d="" fill="#F5A675" transform="translate(0,0)"/>
<path d="" fill="#FFC4A7" transform="translate(0,0)"/>
<path d="" fill="#F19764" transform="translate(0,0)"/>
<path d="" fill="#FBDCC9" transform="translate(0,0)"/>
<path d="" fill="#EB9A6A" transform="translate(0,0)"/>
<path d="" fill="#CB6A2B" transform="translate(0,0)"/>
<path d="" fill="#FDB98C" transform="translate(0,0)"/>
<path d="" fill="#D99E77" transform="translate(0,0)"/>
</svg>
