<?xml version="1.0" encoding="UTF-8"?>
<!DOCTYPE svg PUBLIC "-//W3C//DTD SVG 1.1//EN" "http://www.w3.org/Graphics/SVG/1.1/DTD/svg11.dtd">
<svg xmlns="http://www.w3.org/2000/svg" version="1.1" width="900px" height="460px" style="shape-rendering:geometricPrecision; text-rendering:geometricPrecision; image-rendering:optimizeQuality; fill-rule:evenodd; clip-rule:evenodd" xmlns:xlink="http://www.w3.org/1999/xlink">
<g><path style="opacity:1" fill="#fefefe" d="M -0.5,-0.5 C 6.16667,-0.5 12.8333,-0.5 19.5,-0.5C 19.5,6.16667 19.5,12.8333 19.5,19.5C 12.8333,19.5 6.16667,19.5 -0.5,19.5C -0.5,12.8333 -0.5,6.16667 -0.5,-0.5 Z"/></g>
<g><path style="opacity:1" fill="#eeeeee" d="M 19.5,-0.5 C 26.1667,-0.5 32.8333,-0.5 39.5,-0.5C 39.5,6.16667 39.5,12.8333 39.5,19.5C 32.8333,19.5 26.1667,19.5 19.5,19.5C 19.5,12.8333 19.5,6.16667 19.5,-0.5 Z"/></g>
<g><path style="opacity:1" fill="#fefefe" d="M 39.5,-0.5 C 46.1667,-0.5 52.8333,-0.5 59.5,-0.5C 59.5,6.16667 59.5,12.8333 59.5,19.5C 52.8333,19.5 46.1667,19.5 39.5,19.5C 39.5,12.8333 39.5,6.16667 39.5,-0.5 Z"/></g>
<g><path style="opacity:1" fill="#eeeeee" d="M 59.5,-0.5 C 66.1667,-0.5 72.8333,-0.5 79.5,-0.5C 79.5,6.16667 79.5,12.8333 79.5,19.5C 72.8333,19.5 66.1667,19.5 59.5,19.5C 59.5,12.8333 59.5,6.16667 59.5,-0.5 Z"/></g>
<g><path style="opacity:1" fill="#fefefe" d="M 79.5,-0.5 C 86.1667,-0.5 92.8333,-0.5 99.5,-0.5C 99.5,6.16667 99.5,12.8333 99.5,19.5C 92.8333,19.5 86.1667,19.5 79.5,19.5C 79.5,12.8333 79.5,6.16667 79.5,-0.5 Z"/></g>
<g><path style="opacity:1" fill="#eeeeee" d="M 99.5,-0.5 C 106.167,-0.5 112.833,-0.5 119.5,-0.5C 119.5,6.16667 119.5,12.8333 119.5,19.5C 112.833,19.5 106.167,19.5 99.5,19.5C 99.5,12.8333 99.5,6.16667 99.5,-0.5 Z"/></g>
<g><path style="opacity:1" fill="#fefefe" d="M 119.5,-0.5 C 126.167,-0.5 132.833,-0.5 139.5,-0.5C 139.5,6.16667 139.5,12.8333 139.5,19.5C 132.833,19.5 126.167,19.5 119.5,19.5C 119.5,12.8333 119.5,6.16667 119.5,-0.5 Z"/></g>
<g><path style="opacity:1" fill="#eeeeee" d="M 139.5,-0.5 C 146.167,-0.5 152.833,-0.5 159.5,-0.5C 159.5,6.16667 159.5,12.8333 159.5,19.5C 152.833,19.5 146.167,19.5 139.5,19.5C 139.5,12.8333 139.5,6.16667 139.5,-0.5 Z"/></g>
<g><path style="opacity:1" fill="#fefefe" d="M 159.5,-0.5 C 166.167,-0.5 172.833,-0.5 179.5,-0.5C 179.5,6.16667 179.5,12.8333 179.5,19.5C 172.833,19.5 166.167,19.5 159.5,19.5C 159.5,12.8333 159.5,6.16667 159.5,-0.5 Z"/></g>
<g><path style="opacity:1" fill="#eeeeee" d="M 179.5,-0.5 C 186.167,-0.5 192.833,-0.5 199.5,-0.5C 199.5,6.16667 199.5,12.8333 199.5,19.5C 192.833,19.5 186.167,19.5 179.5,19.5C 179.5,12.8333 179.5,6.16667 179.5,-0.5 Z"/></g>
<g><path style="opacity:1" fill="#f6f6f6" d="M 199.5,-0.5 C 432.833,-0.5 666.167,-0.5 899.5,-0.5C 899.5,152.833 899.5,306.167 899.5,459.5C 766.167,459.5 632.833,459.5 499.5,459.5C 499.5,452.833 499.5,446.167 499.5,439.5C 499.5,432.833 499.5,426.167 499.5,419.5C 506.167,419.5 512.833,419.5 519.5,419.5C 519.5,413.167 519.5,406.833 519.5,400.5C 570.532,406.8 619.366,420.8 666,442.5C 666.5,381.501 666.667,320.501 666.5,259.5C 667.499,175.002 667.833,90.335 667.5,5.5C 522.167,5.5 376.833,5.5 231.5,5.5C 231.167,151.168 231.5,296.835 232.5,442.5C 233.107,442.376 233.44,442.043 233.5,441.5C 247.703,434.736 262.37,429.069 277.5,424.5C 279.442,429.056 280.108,434.056 279.5,439.5C 272.833,439.5 266.167,439.5 259.5,439.5C 259.5,446.167 259.5,452.833 259.5,459.5C 239.5,459.5 219.5,459.5 199.5,459.5C 199.5,452.833 199.5,446.167 199.5,439.5C 199.5,432.833 199.5,426.167 199.5,419.5C 199.5,412.833 199.5,406.167 199.5,399.5C 199.5,392.833 199.5,386.167 199.5,379.5C 199.5,372.833 199.5,366.167 199.5,359.5C 199.5,352.833 199.5,346.167 199.5,339.5C 199.5,332.833 199.5,326.167 199.5,319.5C 199.5,312.833 199.5,306.167 199.5,299.5C 199.5,292.833 199.5,286.167 199.5,279.5C 199.5,272.833 199.5,266.167 199.5,259.5C 199.5,252.833 199.5,246.167 199.5,239.5C 199.5,232.833 199.5,226.167 199.5,219.5C 199.5,212.833 199.5,206.167 199.5,199.5C 199.5,192.833 199.5,186.167 199.5,179.5C 199.5,172.833 199.5,166.167 199.5,159.5C 199.5,152.833 199.5,146.167 199.5,139.5C 199.5,132.833 199.5,126.167 199.5,119.5C 199.5,112.833 199.5,106.167 199.5,99.5C 199.5,92.8333 199.5,86.1667 199.5,79.5C 199.5,72.8333 199.5,66.1667 199.5,59.5C 199.5,52.8333 199.5,46.1667 199.5,39.5C 199.5,32.8333 199.5,26.1667 199.5,19.5C 199.5,12.8333 199.5,6.16667 199.5,-0.5 Z"/></g>
<g><path style="opacity:1" fill="#2448a4" d="M 666.5,259.5 C 666.667,320.501 666.5,381.501 666,442.5C 619.366,420.8 570.532,406.8 519.5,400.5C 436.837,388.433 356.17,396.433 277.5,424.5C 262.37,429.069 247.703,434.736 233.5,441.5C 232.5,296.668 232.167,151.668 232.5,6.5C 377.167,6.5 521.833,6.5 666.5,6.5C 666.5,90.8333 666.5,175.167 666.5,259.5 Z"/></g>
<g><path style="opacity:1" fill="#eeeeee" d="M -0.5,19.5 C 6.16667,19.5 12.8333,19.5 19.5,19.5C 19.5,26.1667 19.5,32.8333 19.5,39.5C 12.8333,39.5 6.16667,39.5 -0.5,39.5C -0.5,32.8333 -0.5,26.1667 -0.5,19.5 Z"/></g>
<g><path style="opacity:1" fill="#fefefe" d="M 19.5,19.5 C 26.1667,19.5 32.8333,19.5 39.5,19.5C 39.5,26.1667 39.5,32.8333 39.5,39.5C 32.8333,39.5 26.1667,39.5 19.5,39.5C 19.5,32.8333 19.5,26.1667 19.5,19.5 Z"/></g>
<g><path style="opacity:1" fill="#eeeeee" d="M 39.5,19.5 C 46.1667,19.5 52.8333,19.5 59.5,19.5C 59.5,26.1667 59.5,32.8333 59.5,39.5C 52.8333,39.5 46.1667,39.5 39.5,39.5C 39.5,32.8333 39.5,26.1667 39.5,19.5 Z"/></g>
<g><path style="opacity:1" fill="#fefefe" d="M 59.5,19.5 C 66.1667,19.5 72.8333,19.5 79.5,19.5C 79.5,26.1667 79.5,32.8333 79.5,39.5C 72.8333,39.5 66.1667,39.5 59.5,39.5C 59.5,32.8333 59.5,26.1667 59.5,19.5 Z"/></g>
<g><path style="opacity:1" fill="#eeeeee" d="M 79.5,19.5 C 86.1667,19.5 92.8333,19.5 99.5,19.5C 99.5,26.1667 99.5,32.8333 99.5,39.5C 92.8333,39.5 86.1667,39.5 79.5,39.5C 79.5,32.8333 79.5,26.1667 79.5,19.5 Z"/></g>
<g><path style="opacity:1" fill="#fefefe" d="M 99.5,19.5 C 106.167,19.5 112.833,19.5 119.5,19.5C 119.5,26.1667 119.5,32.8333 119.5,39.5C 112.833,39.5 106.167,39.5 99.5,39.5C 99.5,32.8333 99.5,26.1667 99.5,19.5 Z"/></g>
<g><path style="opacity:1" fill="#eeeeee" d="M 119.5,19.5 C 126.167,19.5 132.833,19.5 139.5,19.5C 139.5,26.1667 139.5,32.8333 139.5,39.5C 132.833,39.5 126.167,39.5 119.5,39.5C 119.5,32.8333 119.5,26.1667 119.5,19.5 Z"/></g>
<g><path style="opacity:1" fill="#fefefe" d="M 139.5,19.5 C 146.167,19.5 152.833,19.5 159.5,19.5C 159.5,26.1667 159.5,32.8333 159.5,39.5C 152.833,39.5 146.167,39.5 139.5,39.5C 139.5,32.8333 139.5,26.1667 139.5,19.5 Z"/></g>
<g><path style="opacity:1" fill="#eeeeee" d="M 159.5,19.5 C 166.167,19.5 172.833,19.5 179.5,19.5C 179.5,26.1667 179.5,32.8333 179.5,39.5C 172.833,39.5 166.167,39.5 159.5,39.5C 159.5,32.8333 159.5,26.1667 159.5,19.5 Z"/></g>
<g><path style="opacity:1" fill="#fefefe" d="M 179.5,19.5 C 186.167,19.5 192.833,19.5 199.5,19.5C 199.5,26.1667 199.5,32.8333 199.5,39.5C 192.833,39.5 186.167,39.5 179.5,39.5C 179.5,32.8333 179.5,26.1667 179.5,19.5 Z"/></g>
<g><path style="opacity:1" fill="#899bc9" d="M 666.5,259.5 C 666.5,175.167 666.5,90.8333 666.5,6.5C 521.833,6.5 377.167,6.5 232.5,6.5C 232.167,151.668 232.5,296.668 233.5,441.5C 233.44,442.043 233.107,442.376 232.5,442.5C 231.5,296.835 231.167,151.168 231.5,5.5C 376.833,5.5 522.167,5.5 667.5,5.5C 667.833,90.335 667.499,175.002 666.5,259.5 Z"/></g>
<g><path style="opacity:1" fill="#fefefe" d="M -0.5,39.5 C 6.16667,39.5 12.8333,39.5 19.5,39.5C 19.5,46.1667 19.5,52.8333 19.5,59.5C 12.8333,59.5 6.16667,59.5 -0.5,59.5C -0.5,52.8333 -0.5,46.1667 -0.5,39.5 Z"/></g>
<g><path style="opacity:1" fill="#eeeeee" d="M 19.5,39.5 C 26.1667,39.5 32.8333,39.5 39.5,39.5C 39.5,46.1667 39.5,52.8333 39.5,59.5C 32.8333,59.5 26.1667,59.5 19.5,59.5C 19.5,52.8333 19.5,46.1667 19.5,39.5 Z"/></g>
<g><path style="opacity:1" fill="#fefefe" d="M 39.5,39.5 C 46.1667,39.5 52.8333,39.5 59.5,39.5C 59.5,46.1667 59.5,52.8333 59.5,59.5C 52.8333,59.5 46.1667,59.5 39.5,59.5C 39.5,52.8333 39.5,46.1667 39.5,39.5 Z"/></g>
<g><path style="opacity:1" fill="#eeeeee" d="M 59.5,39.5 C 66.1667,39.5 72.8333,39.5 79.5,39.5C 79.5,46.1667 79.5,52.8333 79.5,59.5C 72.8333,59.5 66.1667,59.5 59.5,59.5C 59.5,52.8333 59.5,46.1667 59.5,39.5 Z"/></g>
<g><path style="opacity:1" fill="#fefefe" d="M 79.5,39.5 C 86.1667,39.5 92.8333,39.5 99.5,39.5C 99.5,46.1667 99.5,52.8333 99.5,59.5C 92.8333,59.5 86.1667,59.5 79.5,59.5C 79.5,52.8333 79.5,46.1667 79.5,39.5 Z"/></g>
<g><path style="opacity:1" fill="#eeeeee" d="M 99.5,39.5 C 106.167,39.5 112.833,39.5 119.5,39.5C 119.5,46.1667 119.5,52.8333 119.5,59.5C 112.833,59.5 106.167,59.5 99.5,59.5C 99.5,52.8333 99.5,46.1667 99.5,39.5 Z"/></g>
<g><path style="opacity:1" fill="#fefefe" d="M 119.5,39.5 C 126.167,39.5 132.833,39.5 139.5,39.5C 139.5,46.1667 139.5,52.8333 139.5,59.5C 132.833,59.5 126.167,59.5 119.5,59.5C 119.5,52.8333 119.5,46.1667 119.5,39.5 Z"/></g>
<g><path style="opacity:1" fill="#eeeeee" d="M 139.5,39.5 C 146.167,39.5 152.833,39.5 159.5,39.5C 159.5,46.1667 159.5,52.8333 159.5,59.5C 152.833,59.5 146.167,59.5 139.5,59.5C 139.5,52.8333 139.5,46.1667 139.5,39.5 Z"/></g>
<g><path style="opacity:1" fill="#fefefe" d="M 159.5,39.5 C 166.167,39.5 172.833,39.5 179.5,39.5C 179.5,46.1667 179.5,52.8333 179.5,59.5C 172.833,59.5 166.167,59.5 159.5,59.5C 159.5,52.8333 159.5,46.1667 159.5,39.5 Z"/></g>
<g><path style="opacity:1" fill="#eeeeee" d="M 179.5,39.5 C 186.167,39.5 192.833,39.5 199.5,39.5C 199.5,46.1667 199.5,52.8333 199.5,59.5C 192.833,59.5 186.167,59.5 179.5,59.5C 179.5,52.8333 179.5,46.1667 179.5,39.5 Z"/></g>
<g><path style="opacity:1" fill="#eeeeee" d="M -0.5,59.5 C 6.16667,59.5 12.8333,59.5 19.5,59.5C 19.5,66.1667 19.5,72.8333 19.5,79.5C 12.8333,79.5 6.16667,79.5 -0.5,79.5C -0.5,72.8333 -0.5,66.1667 -0.5,59.5 Z"/></g>
<g><path style="opacity:1" fill="#fefefe" d="M 19.5,59.5 C 26.1667,59.5 32.8333,59.5 39.5,59.5C 39.5,66.1667 39.5,72.8333 39.5,79.5C 32.8333,79.5 26.1667,79.5 19.5,79.5C 19.5,72.8333 19.5,66.1667 19.5,59.5 Z"/></g>
<g><path style="opacity:1" fill="#eeeeee" d="M 39.5,59.5 C 46.1667,59.5 52.8333,59.5 59.5,59.5C 59.5,66.1667 59.5,72.8333 59.5,79.5C 52.8333,79.5 46.1667,79.5 39.5,79.5C 39.5,72.8333 39.5,66.1667 39.5,59.5 Z"/></g>
<g><path style="opacity:1" fill="#fefefe" d="M 59.5,59.5 C 66.1667,59.5 72.8333,59.5 79.5,59.5C 79.5,66.1667 79.5,72.8333 79.5,79.5C 72.8333,79.5 66.1667,79.5 59.5,79.5C 59.5,72.8333 59.5,66.1667 59.5,59.5 Z"/></g>
<g><path style="opacity:1" fill="#eeeeee" d="M 79.5,59.5 C 86.1667,59.5 92.8333,59.5 99.5,59.5C 99.5,66.1667 99.5,72.8333 99.5,79.5C 92.8333,79.5 86.1667,79.5 79.5,79.5C 79.5,72.8333 79.5,66.1667 79.5,59.5 Z"/></g>
<g><path style="opacity:1" fill="#fefefe" d="M 99.5,59.5 C 106.167,59.5 112.833,59.5 119.5,59.5C 119.5,66.1667 119.5,72.8333 119.5,79.5C 112.833,79.5 106.167,79.5 99.5,79.5C 99.5,72.8333 99.5,66.1667 99.5,59.5 Z"/></g>
<g><path style="opacity:1" fill="#eeeeee" d="M 119.5,59.5 C 126.167,59.5 132.833,59.5 139.5,59.5C 139.5,66.1667 139.5,72.8333 139.5,79.5C 132.833,79.5 126.167,79.5 119.5,79.5C 119.5,72.8333 119.5,66.1667 119.5,59.5 Z"/></g>
<g><path style="opacity:1" fill="#fefefe" d="M 139.5,59.5 C 146.167,59.5 152.833,59.5 159.5,59.5C 159.5,66.1667 159.5,72.8333 159.5,79.5C 152.833,79.5 146.167,79.5 139.5,79.5C 139.5,72.8333 139.5,66.1667 139.5,59.5 Z"/></g>
<g><path style="opacity:1" fill="#eeeeee" d="M 159.5,59.5 C 166.167,59.5 172.833,59.5 179.5,59.5C 179.5,66.1667 179.5,72.8333 179.5,79.5C 172.833,79.5 166.167,79.5 159.5,79.5C 159.5,72.8333 159.5,66.1667 159.5,59.5 Z"/></g>
<g><path style="opacity:1" fill="#fefefe" d="M 179.5,59.5 C 186.167,59.5 192.833,59.5 199.5,59.5C 199.5,66.1667 199.5,72.8333 199.5,79.5C 192.833,79.5 186.167,79.5 179.5,79.5C 179.5,72.8333 179.5,66.1667 179.5,59.5 Z"/></g>
<g><path style="opacity:1" fill="#fefefe" d="M -0.5,79.5 C 6.16667,79.5 12.8333,79.5 19.5,79.5C 19.5,86.1667 19.5,92.8333 19.5,99.5C 12.8333,99.5 6.16667,99.5 -0.5,99.5C -0.5,92.8333 -0.5,86.1667 -0.5,79.5 Z"/></g>
<g><path style="opacity:1" fill="#eeeeee" d="M 19.5,79.5 C 26.1667,79.5 32.8333,79.5 39.5,79.5C 39.5,86.1667 39.5,92.8333 39.5,99.5C 32.8333,99.5 26.1667,99.5 19.5,99.5C 19.5,92.8333 19.5,86.1667 19.5,79.5 Z"/></g>
<g><path style="opacity:1" fill="#fefefe" d="M 39.5,79.5 C 46.1667,79.5 52.8333,79.5 59.5,79.5C 59.5,86.1667 59.5,92.8333 59.5,99.5C 52.8333,99.5 46.1667,99.5 39.5,99.5C 39.5,92.8333 39.5,86.1667 39.5,79.5 Z"/></g>
<g><path style="opacity:1" fill="#eeeeee" d="M 59.5,79.5 C 66.1667,79.5 72.8333,79.5 79.5,79.5C 79.5,86.1667 79.5,92.8333 79.5,99.5C 72.8333,99.5 66.1667,99.5 59.5,99.5C 59.5,92.8333 59.5,86.1667 59.5,79.5 Z"/></g>
<g><path style="opacity:1" fill="#fefefe" d="M 79.5,79.5 C 86.1667,79.5 92.8333,79.5 99.5,79.5C 99.5,86.1667 99.5,92.8333 99.5,99.5C 92.8333,99.5 86.1667,99.5 79.5,99.5C 79.5,92.8333 79.5,86.1667 79.5,79.5 Z"/></g>
<g><path style="opacity:1" fill="#eeeeee" d="M 99.5,79.5 C 106.167,79.5 112.833,79.5 119.5,79.5C 119.5,86.1667 119.5,92.8333 119.5,99.5C 112.833,99.5 106.167,99.5 99.5,99.5C 99.5,92.8333 99.5,86.1667 99.5,79.5 Z"/></g>
<g><path style="opacity:1" fill="#fefefe" d="M 119.5,79.5 C 126.167,79.5 132.833,79.5 139.5,79.5C 139.5,86.1667 139.5,92.8333 139.5,99.5C 132.833,99.5 126.167,99.5 119.5,99.5C 119.5,92.8333 119.5,86.1667 119.5,79.5 Z"/></g>
<g><path style="opacity:1" fill="#eeeeee" d="M 139.5,79.5 C 146.167,79.5 152.833,79.5 159.5,79.5C 159.5,86.1667 159.5,92.8333 159.5,99.5C 152.833,99.5 146.167,99.5 139.5,99.5C 139.5,92.8333 139.5,86.1667 139.5,79.5 Z"/></g>
<g><path style="opacity:1" fill="#fefefe" d="M 159.5,79.5 C 166.167,79.5 172.833,79.5 179.5,79.5C 179.5,86.1667 179.5,92.8333 179.5,99.5C 172.833,99.5 166.167,99.5 159.5,99.5C 159.5,92.8333 159.5,86.1667 159.5,79.5 Z"/></g>
<g><path style="opacity:1" fill="#eeeeee" d="M 179.5,79.5 C 186.167,79.5 192.833,79.5 199.5,79.5C 199.5,86.1667 199.5,92.8333 199.5,99.5C 192.833,99.5 186.167,99.5 179.5,99.5C 179.5,92.8333 179.5,86.1667 179.5,79.5 Z"/></g>
<g><path style="opacity:1" fill="#eeeeee" d="M -0.5,99.5 C 6.16667,99.5 12.8333,99.5 19.5,99.5C 19.5,106.167 19.5,112.833 19.5,119.5C 12.8333,119.5 6.16667,119.5 -0.5,119.5C -0.5,112.833 -0.5,106.167 -0.5,99.5 Z"/></g>
<g><path style="opacity:1" fill="#fefefe" d="M 19.5,99.5 C 26.1667,99.5 32.8333,99.5 39.5,99.5C 39.5,106.167 39.5,112.833 39.5,119.5C 32.8333,119.5 26.1667,119.5 19.5,119.5C 19.5,112.833 19.5,106.167 19.5,99.5 Z"/></g>
<g><path style="opacity:1" fill="#eeeeee" d="M 39.5,99.5 C 46.1667,99.5 52.8333,99.5 59.5,99.5C 59.5,106.167 59.5,112.833 59.5,119.5C 52.8333,119.5 46.1667,119.5 39.5,119.5C 39.5,112.833 39.5,106.167 39.5,99.5 Z"/></g>
<g><path style="opacity:1" fill="#fefefe" d="M 59.5,99.5 C 66.1667,99.5 72.8333,99.5 79.5,99.5C 79.5,106.167 79.5,112.833 79.5,119.5C 72.8333,119.5 66.1667,119.5 59.5,119.5C 59.5,112.833 59.5,106.167 59.5,99.5 Z"/></g>
<g><path style="opacity:1" fill="#eeeeee" d="M 79.5,99.5 C 86.1667,99.5 92.8333,99.5 99.5,99.5C 99.5,106.167 99.5,112.833 99.5,119.5C 92.8333,119.5 86.1667,119.5 79.5,119.5C 79.5,112.833 79.5,106.167 79.5,99.5 Z"/></g>
<g><path style="opacity:1" fill="#fefefe" d="M 99.5,99.5 C 106.167,99.5 112.833,99.5 119.5,99.5C 119.5,106.167 119.5,112.833 119.5,119.5C 112.833,119.5 106.167,119.5 99.5,119.5C 99.5,112.833 99.5,106.167 99.5,99.5 Z"/></g>
<g><path style="opacity:1" fill="#eeeeee" d="M 119.5,99.5 C 126.167,99.5 132.833,99.5 139.5,99.5C 139.5,106.167 139.5,112.833 139.5,119.5C 132.833,119.5 126.167,119.5 119.5,119.5C 119.5,112.833 119.5,106.167 119.5,99.5 Z"/></g>
<g><path style="opacity:1" fill="#fefefe" d="M 139.5,99.5 C 146.167,99.5 152.833,99.5 159.5,99.5C 159.5,106.167 159.5,112.833 159.5,119.5C 152.833,119.5 146.167,119.5 139.5,119.5C 139.5,112.833 139.5,106.167 139.5,99.5 Z"/></g>
<g><path style="opacity:1" fill="#eeeeee" d="M 159.5,99.5 C 166.167,99.5 172.833,99.5 179.5,99.5C 179.5,106.167 179.5,112.833 179.5,119.5C 172.833,119.5 166.167,119.5 159.5,119.5C 159.5,112.833 159.5,106.167 159.5,99.5 Z"/></g>
<g><path style="opacity:1" fill="#fefefe" d="M 179.5,99.5 C 186.167,99.5 192.833,99.5 199.5,99.5C 199.5,106.167 199.5,112.833 199.5,119.5C 192.833,119.5 186.167,119.5 179.5,119.5C 179.5,112.833 179.5,106.167 179.5,99.5 Z"/></g>
<g><path style="opacity:1" fill="#fefefe" d="M -0.5,119.5 C 6.16667,119.5 12.8333,119.5 19.5,119.5C 19.5,126.167 19.5,132.833 19.5,139.5C 12.8333,139.5 6.16667,139.5 -0.5,139.5C -0.5,132.833 -0.5,126.167 -0.5,119.5 Z"/></g>
<g><path style="opacity:1" fill="#eeeeee" d="M 19.5,119.5 C 26.1667,119.5 32.8333,119.5 39.5,119.5C 39.5,126.167 39.5,132.833 39.5,139.5C 32.8333,139.5 26.1667,139.5 19.5,139.5C 19.5,132.833 19.5,126.167 19.5,119.5 Z"/></g>
<g><path style="opacity:1" fill="#fefefe" d="M 39.5,119.5 C 46.1667,119.5 52.8333,119.5 59.5,119.5C 59.5,126.167 59.5,132.833 59.5,139.5C 52.8333,139.5 46.1667,139.5 39.5,139.5C 39.5,132.833 39.5,126.167 39.5,119.5 Z"/></g>
<g><path style="opacity:1" fill="#eeeeee" d="M 59.5,119.5 C 66.1667,119.5 72.8333,119.5 79.5,119.5C 79.5,126.167 79.5,132.833 79.5,139.5C 72.8333,139.5 66.1667,139.5 59.5,139.5C 59.5,132.833 59.5,126.167 59.5,119.5 Z"/></g>
<g><path style="opacity:1" fill="#fefefe" d="M 79.5,119.5 C 86.1667,119.5 92.8333,119.5 99.5,119.5C 99.5,126.167 99.5,132.833 99.5,139.5C 92.8333,139.5 86.1667,139.5 79.5,139.5C 79.5,132.833 79.5,126.167 79.5,119.5 Z"/></g>
<g><path style="opacity:1" fill="#eeeeee" d="M 99.5,119.5 C 106.167,119.5 112.833,119.5 119.5,119.5C 119.5,126.167 119.5,132.833 119.5,139.5C 112.833,139.5 106.167,139.5 99.5,139.5C 99.5,132.833 99.5,126.167 99.5,119.5 Z"/></g>
<g><path style="opacity:1" fill="#fefefe" d="M 119.5,119.5 C 126.167,119.5 132.833,119.5 139.5,119.5C 139.5,126.167 139.5,132.833 139.5,139.5C 132.833,139.5 126.167,139.5 119.5,139.5C 119.5,132.833 119.5,126.167 119.5,119.5 Z"/></g>
<g><path style="opacity:1" fill="#eeeeee" d="M 139.5,119.5 C 146.167,119.5 152.833,119.5 159.5,119.5C 159.5,126.167 159.5,132.833 159.5,139.5C 152.833,139.5 146.167,139.5 139.5,139.5C 139.5,132.833 139.5,126.167 139.5,119.5 Z"/></g>
<g><path style="opacity:1" fill="#fefefe" d="M 159.5,119.5 C 166.167,119.5 172.833,119.5 179.5,119.5C 179.5,126.167 179.5,132.833 179.5,139.5C 172.833,139.5 166.167,139.5 159.5,139.5C 159.5,132.833 159.5,126.167 159.5,119.5 Z"/></g>
<g><path style="opacity:1" fill="#eeeeee" d="M 179.5,119.5 C 186.167,119.5 192.833,119.5 199.5,119.5C 199.5,126.167 199.5,132.833 199.5,139.5C 192.833,139.5 186.167,139.5 179.5,139.5C 179.5,132.833 179.5,126.167 179.5,119.5 Z"/></g>
<g><path style="opacity:1" fill="#8094c8" d="M 254.5,129.5 C 279.661,128.502 304.995,128.169 330.5,128.5C 330.737,129.791 330.404,130.791 329.5,131.5C 304.856,129.509 279.856,128.843 254.5,129.5 Z"/></g>
<g><path style="opacity:1" fill="#8ea1ce" d="M 417.5,129.5 C 391.167,129.5 364.833,129.5 338.5,129.5C 338.5,132.5 338.5,135.5 338.5,138.5C 337.521,135.375 337.187,132.042 337.5,128.5C 364.339,128.169 391.005,128.502 417.5,129.5 Z"/></g>
<g><path style="opacity:1" fill="#8497cb" d="M 473.5,139.5 C 474.209,138.596 475.209,138.263 476.5,138.5C 476.5,135.5 476.5,132.5 476.5,129.5C 460.167,129.5 443.833,129.5 427.5,129.5C 427.5,132.5 427.5,135.5 427.5,138.5C 429.415,138.216 431.081,138.549 432.5,139.5C 431.167,139.5 429.833,139.5 428.5,139.5C 426.586,136.316 425.92,132.649 426.5,128.5C 443.5,128.5 460.5,128.5 477.5,128.5C 477.5,132.167 477.5,135.833 477.5,139.5C 476.167,139.5 474.833,139.5 473.5,139.5 Z"/></g>
<g><path style="opacity:1" fill="#8a9cce" d="M 489.5,129.5 C 513.328,128.502 537.328,128.169 561.5,128.5C 561.828,139.014 561.494,149.347 560.5,159.5C 560.5,149.5 560.5,139.5 560.5,129.5C 536.833,129.5 513.167,129.5 489.5,129.5 Z"/></g>
<g><path style="opacity:1" fill="#fcfcfd" d="M 254.5,129.5 C 279.856,128.843 304.856,129.509 329.5,131.5C 327.462,144.912 322.629,157.245 315,168.5C 306.849,178.14 299.182,188.14 292,198.5C 289.306,202.879 287.473,207.546 286.5,212.5C 303.901,216.403 314.234,209.736 317.5,192.5C 320.833,192.5 324.167,192.5 327.5,192.5C 327.5,202.5 327.5,212.5 327.5,222.5C 301.833,222.5 276.167,222.5 250.5,222.5C 250.426,214.546 251.926,206.88 255,199.5C 258.582,191.997 262.915,184.997 268,178.5C 279.902,167.117 288.735,153.784 294.5,138.5C 282.443,136.616 272.943,140.616 266,150.5C 264.855,153.432 264.022,156.432 263.5,159.5C 260.5,159.5 257.5,159.5 254.5,159.5C 254.5,149.5 254.5,139.5 254.5,129.5 Z"/></g>
<g><path style="opacity:1" fill="#fbfcfd" d="M 417.5,129.5 C 417.5,139.5 417.5,149.5 417.5,159.5C 414.167,159.5 410.833,159.5 407.5,159.5C 404.189,143.215 394.189,136.215 377.5,138.5C 377.5,149.167 377.5,159.833 377.5,170.5C 386.167,171.833 389.833,168.167 388.5,159.5C 392.167,159.5 395.833,159.5 399.5,159.5C 399.5,170.5 399.5,181.5 399.5,192.5C 395.833,192.5 392.167,192.5 388.5,192.5C 389.833,183.833 386.167,180.167 377.5,181.5C 377.5,191.833 377.5,202.167 377.5,212.5C 393.682,215.75 403.682,209.417 407.5,193.5C 410.768,192.513 414.102,192.18 417.5,192.5C 417.5,202.5 417.5,212.5 417.5,222.5C 391.167,222.5 364.833,222.5 338.5,222.5C 338.5,219.167 338.5,215.833 338.5,212.5C 341.01,212.946 343.01,212.28 344.5,210.5C 345.458,210.047 346.292,209.381 347,208.5C 347.667,186.833 347.667,165.167 347,143.5C 346.292,142.619 345.458,141.953 344.5,141.5C 342.751,140.015 340.751,139.015 338.5,138.5C 338.5,135.5 338.5,132.5 338.5,129.5C 364.833,129.5 391.167,129.5 417.5,129.5 Z"/></g>
<g><path style="opacity:1" fill="#fdfdfd" d="M 473.5,139.5 C 471.284,140.203 469.451,141.536 468,143.5C 467.333,164.833 467.333,186.167 468,207.5C 469.701,211.875 472.867,213.542 477.5,212.5C 477.5,214.167 477.5,215.833 477.5,217.5C 477.5,219.167 477.5,220.833 477.5,222.5C 460.833,222.5 444.167,222.5 427.5,222.5C 427.5,219.167 427.5,215.833 427.5,212.5C 429.735,212.795 431.735,212.461 433.5,211.5C 434.794,210.71 435.961,209.71 437,208.5C 437.667,186.833 437.667,165.167 437,143.5C 435.629,141.959 434.129,140.625 432.5,139.5C 431.081,138.549 429.415,138.216 427.5,138.5C 427.5,135.5 427.5,132.5 427.5,129.5C 443.833,129.5 460.167,129.5 476.5,129.5C 476.5,132.5 476.5,135.5 476.5,138.5C 475.209,138.263 474.209,138.596 473.5,139.5 Z"/></g>
<g><path style="opacity:1" fill="#fcfcfd" d="M 489.5,129.5 C 513.167,129.5 536.833,129.5 560.5,129.5C 560.5,139.5 560.5,149.5 560.5,159.5C 557.5,159.5 554.5,159.5 551.5,159.5C 550.733,148.069 544.733,141.402 533.5,139.5C 529.366,138.515 525.032,138.182 520.5,138.5C 520.263,139.791 520.596,140.791 521.5,141.5C 523.268,147.702 526.101,153.369 530,158.5C 539.39,168.955 548.056,179.955 556,191.5C 562.073,200.306 564.073,209.973 562,220.5C 561.5,221 561,221.5 560.5,222C 536.502,222.5 512.502,222.667 488.5,222.5C 488.5,212.5 488.5,202.5 488.5,192.5C 491.833,192.5 495.167,192.5 498.5,192.5C 501.258,210.356 511.591,216.856 529.5,212C 527.361,205.887 524.527,200.053 521,194.5C 514.055,184.287 506.389,174.621 498,165.5C 491.981,157.126 488.481,147.792 487.5,137.5C 487.289,134.514 487.956,131.847 489.5,129.5 Z"/></g>
<g><path style="opacity:1" fill="#fcfcfd" d="M 618.5,139.5 C 613.985,138.188 609.318,138.188 604.5,139.5C 604.624,140.107 604.957,140.44 605.5,140.5C 606.769,145.043 608.603,149.376 611,153.5C 617.905,163.742 625.572,173.409 634,182.5C 641.116,191.526 645.282,201.693 646.5,213C 646.739,216.472 646.073,219.639 644.5,222.5C 620.5,222.5 596.5,222.5 572.5,222.5C 572.5,212.5 572.5,202.5 572.5,192.5C 575.833,192.5 579.167,192.5 582.5,192.5C 585.611,210.234 595.944,216.568 613.5,211.5C 610.034,202.88 605.534,194.88 600,187.5C 589.029,176.202 580.029,163.535 573,149.5C 571.442,143.167 571.276,136.834 572.5,130.5C 596.824,129.5 621.158,129.167 645.5,129.5C 645.5,139.5 645.5,149.5 645.5,159.5C 642.167,159.5 638.833,159.5 635.5,159.5C 634.488,148.775 628.821,142.108 618.5,139.5 Z"/></g>
<g><path style="opacity:1" fill="#788dc6" d="M 533.5,139.5 C 529.029,138.911 525.029,139.577 521.5,141.5C 520.596,140.791 520.263,139.791 520.5,138.5C 525.032,138.182 529.366,138.515 533.5,139.5 Z"/></g>
<g><path style="opacity:1" fill="#8296cb" d="M 618.5,139.5 C 613.968,139.182 609.634,139.515 605.5,140.5C 604.957,140.44 604.624,140.107 604.5,139.5C 609.318,138.188 613.985,138.188 618.5,139.5 Z"/></g>
<g><path style="opacity:1" fill="#eeeeee" d="M -0.5,139.5 C 6.16667,139.5 12.8333,139.5 19.5,139.5C 19.5,146.167 19.5,152.833 19.5,159.5C 12.8333,159.5 6.16667,159.5 -0.5,159.5C -0.5,152.833 -0.5,146.167 -0.5,139.5 Z"/></g>
<g><path style="opacity:1" fill="#fefefe" d="M 19.5,139.5 C 26.1667,139.5 32.8333,139.5 39.5,139.5C 39.5,146.167 39.5,152.833 39.5,159.5C 32.8333,159.5 26.1667,159.5 19.5,159.5C 19.5,152.833 19.5,146.167 19.5,139.5 Z"/></g>
<g><path style="opacity:1" fill="#eeeeee" d="M 39.5,139.5 C 46.1667,139.5 52.8333,139.5 59.5,139.5C 59.5,146.167 59.5,152.833 59.5,159.5C 52.8333,159.5 46.1667,159.5 39.5,159.5C 39.5,152.833 39.5,146.167 39.5,139.5 Z"/></g>
<g><path style="opacity:1" fill="#fefefe" d="M 59.5,139.5 C 66.1667,139.5 72.8333,139.5 79.5,139.5C 79.5,146.167 79.5,152.833 79.5,159.5C 72.8333,159.5 66.1667,159.5 59.5,159.5C 59.5,152.833 59.5,146.167 59.5,139.5 Z"/></g>
<g><path style="opacity:1" fill="#eeeeee" d="M 79.5,139.5 C 86.1667,139.5 92.8333,139.5 99.5,139.5C 99.5,146.167 99.5,152.833 99.5,159.5C 92.8333,159.5 86.1667,159.5 79.5,159.5C 79.5,152.833 79.5,146.167 79.5,139.5 Z"/></g>
<g><path style="opacity:1" fill="#fefefe" d="M 99.5,139.5 C 106.167,139.5 112.833,139.5 119.5,139.5C 119.5,146.167 119.5,152.833 119.5,159.5C 112.833,159.5 106.167,159.5 99.5,159.5C 99.5,152.833 99.5,146.167 99.5,139.5 Z"/></g>
<g><path style="opacity:1" fill="#eeeeee" d="M 119.5,139.5 C 126.167,139.5 132.833,139.5 139.5,139.5C 139.5,146.167 139.5,152.833 139.5,159.5C 132.833,159.5 126.167,159.5 119.5,159.5C 119.5,152.833 119.5,146.167 119.5,139.5 Z"/></g>
<g><path style="opacity:1" fill="#fefefe" d="M 139.5,139.5 C 146.167,139.5 152.833,139.5 159.5,139.5C 159.5,146.167 159.5,152.833 159.5,159.5C 152.833,159.5 146.167,159.5 139.5,159.5C 139.5,152.833 139.5,146.167 139.5,139.5 Z"/></g>
<g><path style="opacity:1" fill="#eeeeee" d="M 159.5,139.5 C 166.167,139.5 172.833,139.5 179.5,139.5C 179.5,146.167 179.5,152.833 179.5,159.5C 172.833,159.5 166.167,159.5 159.5,159.5C 159.5,152.833 159.5,146.167 159.5,139.5 Z"/></g>
<g><path style="opacity:1" fill="#fefefe" d="M 179.5,139.5 C 186.167,139.5 192.833,139.5 199.5,139.5C 199.5,146.167 199.5,152.833 199.5,159.5C 192.833,159.5 186.167,159.5 179.5,159.5C 179.5,152.833 179.5,146.167 179.5,139.5 Z"/></g>
<g><path style="opacity:1" fill="#2e439f" d="M 428.5,139.5 C 429.833,139.5 431.167,139.5 432.5,139.5C 434.129,140.625 435.629,141.959 437,143.5C 437.667,165.167 437.667,186.833 437,208.5C 435.961,209.71 434.794,210.71 433.5,211.5C 433.062,211.565 432.728,211.399 432.5,211C 433.333,210.167 434.167,209.333 435,208.5C 435.667,186.833 435.667,165.167 435,143.5C 433.208,141.372 431.042,140.039 428.5,139.5 Z"/></g>
<g><path style="opacity:1" fill="#2b43a1" d="M 344.5,141.5 C 345.458,141.953 346.292,142.619 347,143.5C 347.667,165.167 347.667,186.833 347,208.5C 346.292,209.381 345.458,210.047 344.5,210.5C 345.833,187.5 345.833,164.5 344.5,141.5 Z"/></g>
<g><path style="opacity:1" fill="#fefefe" d="M -0.5,159.5 C 6.16667,159.5 12.8333,159.5 19.5,159.5C 19.5,166.167 19.5,172.833 19.5,179.5C 12.8333,179.5 6.16667,179.5 -0.5,179.5C -0.5,172.833 -0.5,166.167 -0.5,159.5 Z"/></g>
<g><path style="opacity:1" fill="#eeeeee" d="M 19.5,159.5 C 26.1667,159.5 32.8333,159.5 39.5,159.5C 39.5,166.167 39.5,172.833 39.5,179.5C 32.8333,179.5 26.1667,179.5 19.5,179.5C 19.5,172.833 19.5,166.167 19.5,159.5 Z"/></g>
<g><path style="opacity:1" fill="#fefefe" d="M 39.5,159.5 C 46.1667,159.5 52.8333,159.5 59.5,159.5C 59.5,166.167 59.5,172.833 59.5,179.5C 52.8333,179.5 46.1667,179.5 39.5,179.5C 39.5,172.833 39.5,166.167 39.5,159.5 Z"/></g>
<g><path style="opacity:1" fill="#eeeeee" d="M 59.5,159.5 C 66.1667,159.5 72.8333,159.5 79.5,159.5C 79.5,166.167 79.5,172.833 79.5,179.5C 72.8333,179.5 66.1667,179.5 59.5,179.5C 59.5,172.833 59.5,166.167 59.5,159.5 Z"/></g>
<g><path style="opacity:1" fill="#fefefe" d="M 79.5,159.5 C 86.1667,159.5 92.8333,159.5 99.5,159.5C 99.5,166.167 99.5,172.833 99.5,179.5C 92.8333,179.5 86.1667,179.5 79.5,179.5C 79.5,172.833 79.5,166.167 79.5,159.5 Z"/></g>
<g><path style="opacity:1" fill="#eeeeee" d="M 99.5,159.5 C 106.167,159.5 112.833,159.5 119.5,159.5C 119.5,166.167 119.5,172.833 119.5,179.5C 112.833,179.5 106.167,179.5 99.5,179.5C 99.5,172.833 99.5,166.167 99.5,159.5 Z"/></g>
<g><path style="opacity:1" fill="#fefefe" d="M 119.5,159.5 C 126.167,159.5 132.833,159.5 139.5,159.5C 139.5,166.167 139.5,172.833 139.5,179.5C 132.833,179.5 126.167,179.5 119.5,179.5C 119.5,172.833 119.5,166.167 119.5,159.5 Z"/></g>
<g><path style="opacity:1" fill="#eeeeee" d="M 139.5,159.5 C 146.167,159.5 152.833,159.5 159.5,159.5C 159.5,166.167 159.5,172.833 159.5,179.5C 152.833,179.5 146.167,179.5 139.5,179.5C 139.5,172.833 139.5,166.167 139.5,159.5 Z"/></g>
<g><path style="opacity:1" fill="#fefefe" d="M 159.5,159.5 C 166.167,159.5 172.833,159.5 179.5,159.5C 179.5,166.167 179.5,172.833 179.5,179.5C 172.833,179.5 166.167,179.5 159.5,179.5C 159.5,172.833 159.5,166.167 159.5,159.5 Z"/></g>
<g><path style="opacity:1" fill="#eeeeee" d="M 179.5,159.5 C 186.167,159.5 192.833,159.5 199.5,159.5C 199.5,166.167 199.5,172.833 199.5,179.5C 192.833,179.5 186.167,179.5 179.5,179.5C 179.5,172.833 179.5,166.167 179.5,159.5 Z"/></g>
<g><path style="opacity:1" fill="#eeeeee" d="M -0.5,179.5 C 6.16667,179.5 12.8333,179.5 19.5,179.5C 19.5,186.167 19.5,192.833 19.5,199.5C 12.8333,199.5 6.16667,199.5 -0.5,199.5C -0.5,192.833 -0.5,186.167 -0.5,179.5 Z"/></g>
<g><path style="opacity:1" fill="#fefefe" d="M 19.5,179.5 C 26.1667,179.5 32.8333,179.5 39.5,179.5C 39.5,186.167 39.5,192.833 39.5,199.5C 32.8333,199.5 26.1667,199.5 19.5,199.5C 19.5,192.833 19.5,186.167 19.5,179.5 Z"/></g>
<g><path style="opacity:1" fill="#eeeeee" d="M 39.5,179.5 C 46.1667,179.5 52.8333,179.5 59.5,179.5C 59.5,186.167 59.5,192.833 59.5,199.5C 52.8333,199.5 46.1667,199.5 39.5,199.5C 39.5,192.833 39.5,186.167 39.5,179.5 Z"/></g>
<g><path style="opacity:1" fill="#fefefe" d="M 59.5,179.5 C 66.1667,179.5 72.8333,179.5 79.5,179.5C 79.5,186.167 79.5,192.833 79.5,199.5C 72.8333,199.5 66.1667,199.5 59.5,199.5C 59.5,192.833 59.5,186.167 59.5,179.5 Z"/></g>
<g><path style="opacity:1" fill="#eeeeee" d="M 79.5,179.5 C 86.1667,179.5 92.8333,179.5 99.5,179.5C 99.5,186.167 99.5,192.833 99.5,199.5C 92.8333,199.5 86.1667,199.5 79.5,199.5C 79.5,192.833 79.5,186.167 79.5,179.5 Z"/></g>
<g><path style="opacity:1" fill="#fefefe" d="M 99.5,179.5 C 106.167,179.5 112.833,179.5 119.5,179.5C 119.5,186.167 119.5,192.833 119.5,199.5C 112.833,199.5 106.167,199.5 99.5,199.5C 99.5,192.833 99.5,186.167 99.5,179.5 Z"/></g>
<g><path style="opacity:1" fill="#eeeeee" d="M 119.5,179.5 C 126.167,179.5 132.833,179.5 139.5,179.5C 139.5,186.167 139.5,192.833 139.5,199.5C 132.833,199.5 126.167,199.5 119.5,199.5C 119.5,192.833 119.5,186.167 119.5,179.5 Z"/></g>
<g><path style="opacity:1" fill="#fefefe" d="M 139.5,179.5 C 146.167,179.5 152.833,179.5 159.5,179.5C 159.5,186.167 159.5,192.833 159.5,199.5C 152.833,199.5 146.167,199.5 139.5,199.5C 139.5,192.833 139.5,186.167 139.5,179.5 Z"/></g>
<g><path style="opacity:1" fill="#eeeeee" d="M 159.5,179.5 C 166.167,179.5 172.833,179.5 179.5,179.5C 179.5,186.167 179.5,192.833 179.5,199.5C 172.833,199.5 166.167,199.5 159.5,199.5C 159.5,192.833 159.5,186.167 159.5,179.5 Z"/></g>
<g><path style="opacity:1" fill="#fefefe" d="M 179.5,179.5 C 186.167,179.5 192.833,179.5 199.5,179.5C 199.5,186.167 199.5,192.833 199.5,199.5C 192.833,199.5 186.167,199.5 179.5,199.5C 179.5,192.833 179.5,186.167 179.5,179.5 Z"/></g>
<g><path style="opacity:1" fill="#fefefe" d="M -0.5,199.5 C 6.16667,199.5 12.8333,199.5 19.5,199.5C 19.5,206.167 19.5,212.833 19.5,219.5C 12.8333,219.5 6.16667,219.5 -0.5,219.5C -0.5,212.833 -0.5,206.167 -0.5,199.5 Z"/></g>
<g><path style="opacity:1" fill="#eeeeee" d="M 19.5,199.5 C 26.1667,199.5 32.8333,199.5 39.5,199.5C 39.5,206.167 39.5,212.833 39.5,219.5C 32.8333,219.5 26.1667,219.5 19.5,219.5C 19.5,212.833 19.5,206.167 19.5,199.5 Z"/></g>
<g><path style="opacity:1" fill="#fefefe" d="M 39.5,199.5 C 46.1667,199.5 52.8333,199.5 59.5,199.5C 59.5,206.167 59.5,212.833 59.5,219.5C 52.8333,219.5 46.1667,219.5 39.5,219.5C 39.5,212.833 39.5,206.167 39.5,199.5 Z"/></g>
<g><path style="opacity:1" fill="#eeeeee" d="M 59.5,199.5 C 66.1667,199.5 72.8333,199.5 79.5,199.5C 79.5,206.167 79.5,212.833 79.5,219.5C 72.8333,219.5 66.1667,219.5 59.5,219.5C 59.5,212.833 59.5,206.167 59.5,199.5 Z"/></g>
<g><path style="opacity:1" fill="#fefefe" d="M 79.5,199.5 C 86.1667,199.5 92.8333,199.5 99.5,199.5C 99.5,206.167 99.5,212.833 99.5,219.5C 92.8333,219.5 86.1667,219.5 79.5,219.5C 79.5,212.833 79.5,206.167 79.5,199.5 Z"/></g>
<g><path style="opacity:1" fill="#eeeeee" d="M 99.5,199.5 C 106.167,199.5 112.833,199.5 119.5,199.5C 119.5,206.167 119.5,212.833 119.5,219.5C 112.833,219.5 106.167,219.5 99.5,219.5C 99.5,212.833 99.5,206.167 99.5,199.5 Z"/></g>
<g><path style="opacity:1" fill="#fefefe" d="M 119.5,199.5 C 126.167,199.5 132.833,199.5 139.5,199.5C 139.5,206.167 139.5,212.833 139.5,219.5C 132.833,219.5 126.167,219.5 119.5,219.5C 119.5,212.833 119.5,206.167 119.5,199.5 Z"/></g>
<g><path style="opacity:1" fill="#eeeeee" d="M 139.5,199.5 C 146.167,199.5 152.833,199.5 159.5,199.5C 159.5,206.167 159.5,212.833 159.5,219.5C 152.833,219.5 146.167,219.5 139.5,219.5C 139.5,212.833 139.5,206.167 139.5,199.5 Z"/></g>
<g><path style="opacity:1" fill="#fefefe" d="M 159.5,199.5 C 166.167,199.5 172.833,199.5 179.5,199.5C 179.5,206.167 179.5,212.833 179.5,219.5C 172.833,219.5 166.167,219.5 159.5,219.5C 159.5,212.833 159.5,206.167 159.5,199.5 Z"/></g>
<g><path style="opacity:1" fill="#eeeeee" d="M 179.5,199.5 C 186.167,199.5 192.833,199.5 199.5,199.5C 199.5,206.167 199.5,212.833 199.5,219.5C 192.833,219.5 186.167,219.5 179.5,219.5C 179.5,212.833 179.5,206.167 179.5,199.5 Z"/></g>
<g><path style="opacity:1" fill="#eeeeee" d="M -0.5,219.5 C 6.16667,219.5 12.8333,219.5 19.5,219.5C 19.5,226.167 19.5,232.833 19.5,239.5C 12.8333,239.5 6.16667,239.5 -0.5,239.5C -0.5,232.833 -0.5,226.167 -0.5,219.5 Z"/></g>
<g><path style="opacity:1" fill="#fefefe" d="M 19.5,219.5 C 26.1667,219.5 32.8333,219.5 39.5,219.5C 39.5,226.167 39.5,232.833 39.5,239.5C 32.8333,239.5 26.1667,239.5 19.5,239.5C 19.5,232.833 19.5,226.167 19.5,219.5 Z"/></g>
<g><path style="opacity:1" fill="#eeeeee" d="M 39.5,219.5 C 46.1667,219.5 52.8333,219.5 59.5,219.5C 59.5,226.167 59.5,232.833 59.5,239.5C 52.8333,239.5 46.1667,239.5 39.5,239.5C 39.5,232.833 39.5,226.167 39.5,219.5 Z"/></g>
<g><path style="opacity:1" fill="#fefefe" d="M 59.5,219.5 C 66.1667,219.5 72.8333,219.5 79.5,219.5C 79.5,226.167 79.5,232.833 79.5,239.5C 72.8333,239.5 66.1667,239.5 59.5,239.5C 59.5,232.833 59.5,226.167 59.5,219.5 Z"/></g>
<g><path style="opacity:1" fill="#eeeeee" d="M 79.5,219.5 C 86.1667,219.5 92.8333,219.5 99.5,219.5C 99.5,226.167 99.5,232.833 99.5,239.5C 92.8333,239.5 86.1667,239.5 79.5,239.5C 79.5,232.833 79.5,226.167 79.5,219.5 Z"/></g>
<g><path style="opacity:1" fill="#fefefe" d="M 99.5,219.5 C 106.167,219.5 112.833,219.5 119.5,219.5C 119.5,226.167 119.5,232.833 119.5,239.5C 112.833,239.5 106.167,239.5 99.5,239.5C 99.5,232.833 99.5,226.167 99.5,219.5 Z"/></g>
<g><path style="opacity:1" fill="#eeeeee" d="M 119.5,219.5 C 126.167,219.5 132.833,219.5 139.5,219.5C 139.5,226.167 139.5,232.833 139.5,239.5C 132.833,239.5 126.167,239.5 119.5,239.5C 119.5,232.833 119.5,226.167 119.5,219.5 Z"/></g>
<g><path style="opacity:1" fill="#fefefe" d="M 139.5,219.5 C 146.167,219.5 152.833,219.5 159.5,219.5C 159.5,226.167 159.5,232.833 159.5,239.5C 152.833,239.5 146.167,239.5 139.5,239.5C 139.5,232.833 139.5,226.167 139.5,219.5 Z"/></g>
<g><path style="opacity:1" fill="#eeeeee" d="M 159.5,219.5 C 166.167,219.5 172.833,219.5 179.5,219.5C 179.5,226.167 179.5,232.833 179.5,239.5C 172.833,239.5 166.167,239.5 159.5,239.5C 159.5,232.833 159.5,226.167 159.5,219.5 Z"/></g>
<g><path style="opacity:1" fill="#fefefe" d="M 179.5,219.5 C 186.167,219.5 192.833,219.5 199.5,219.5C 199.5,226.167 199.5,232.833 199.5,239.5C 192.833,239.5 186.167,239.5 179.5,239.5C 179.5,232.833 179.5,226.167 179.5,219.5 Z"/></g>
<g><path style="opacity:1" fill="#8599ce" d="M 572.5,192.5 C 572.5,202.5 572.5,212.5 572.5,222.5C 596.5,222.5 620.5,222.5 644.5,222.5C 620.339,223.498 596.006,223.831 571.5,223.5C 571.172,212.986 571.506,202.653 572.5,192.5 Z"/></g>
<g><path style="opacity:1" fill="#042d92" d="M 477.5,217.5 C 478.239,217.369 478.906,217.536 479.5,218C 478.577,220.041 478.244,222.208 478.5,224.5C 461.497,224.667 444.497,224.5 427.5,224C 444.338,223.832 461.005,223.332 477.5,222.5C 477.5,220.833 477.5,219.167 477.5,217.5 Z"/></g>
<g><path style="opacity:1" fill="#fefefe" d="M -0.5,239.5 C 6.16667,239.5 12.8333,239.5 19.5,239.5C 19.5,246.167 19.5,252.833 19.5,259.5C 12.8333,259.5 6.16667,259.5 -0.5,259.5C -0.5,252.833 -0.5,246.167 -0.5,239.5 Z"/></g>
<g><path style="opacity:1" fill="#eeeeee" d="M 19.5,239.5 C 26.1667,239.5 32.8333,239.5 39.5,239.5C 39.5,246.167 39.5,252.833 39.5,259.5C 32.8333,259.5 26.1667,259.5 19.5,259.5C 19.5,252.833 19.5,246.167 19.5,239.5 Z"/></g>
<g><path style="opacity:1" fill="#fefefe" d="M 39.5,239.5 C 46.1667,239.5 52.8333,239.5 59.5,239.5C 59.5,246.167 59.5,252.833 59.5,259.5C 52.8333,259.5 46.1667,259.5 39.5,259.5C 39.5,252.833 39.5,246.167 39.5,239.5 Z"/></g>
<g><path style="opacity:1" fill="#eeeeee" d="M 59.5,239.5 C 66.1667,239.5 72.8333,239.5 79.5,239.5C 79.5,246.167 79.5,252.833 79.5,259.5C 72.8333,259.5 66.1667,259.5 59.5,259.5C 59.5,252.833 59.5,246.167 59.5,239.5 Z"/></g>
<g><path style="opacity:1" fill="#fefefe" d="M 79.5,239.5 C 86.1667,239.5 92.8333,239.5 99.5,239.5C 99.5,246.167 99.5,252.833 99.5,259.5C 92.8333,259.5 86.1667,259.5 79.5,259.5C 79.5,252.833 79.5,246.167 79.5,239.5 Z"/></g>
<g><path style="opacity:1" fill="#eeeeee" d="M 99.5,239.5 C 106.167,239.5 112.833,239.5 119.5,239.5C 119.5,246.167 119.5,252.833 119.5,259.5C 112.833,259.5 106.167,259.5 99.5,259.5C 99.5,252.833 99.5,246.167 99.5,239.5 Z"/></g>
<g><path style="opacity:1" fill="#fefefe" d="M 119.5,239.5 C 126.167,239.5 132.833,239.5 139.5,239.5C 139.5,246.167 139.5,252.833 139.5,259.5C 132.833,259.5 126.167,259.5 119.5,259.5C 119.5,252.833 119.5,246.167 119.5,239.5 Z"/></g>
<g><path style="opacity:1" fill="#eeeeee" d="M 139.5,239.5 C 146.167,239.5 152.833,239.5 159.5,239.5C 159.5,246.167 159.5,252.833 159.5,259.5C 152.833,259.5 146.167,259.5 139.5,259.5C 139.5,252.833 139.5,246.167 139.5,239.5 Z"/></g>
<g><path style="opacity:1" fill="#fefefe" d="M 159.5,239.5 C 166.167,239.5 172.833,239.5 179.5,239.5C 179.5,246.167 179.5,252.833 179.5,259.5C 172.833,259.5 166.167,259.5 159.5,259.5C 159.5,252.833 159.5,246.167 159.5,239.5 Z"/></g>
<g><path style="opacity:1" fill="#eeeeee" d="M 179.5,239.5 C 186.167,239.5 192.833,239.5 199.5,239.5C 199.5,246.167 199.5,252.833 199.5,259.5C 192.833,259.5 186.167,259.5 179.5,259.5C 179.5,252.833 179.5,246.167 179.5,239.5 Z"/></g>
<g><path style="opacity:1" fill="#eeeeee" d="M -0.5,259.5 C 6.16667,259.5 12.8333,259.5 19.5,259.5C 19.5,266.167 19.5,272.833 19.5,279.5C 12.8333,279.5 6.16667,279.5 -0.5,279.5C -0.5,272.833 -0.5,266.167 -0.5,259.5 Z"/></g>
<g><path style="opacity:1" fill="#fefefe" d="M 19.5,259.5 C 26.1667,259.5 32.8333,259.5 39.5,259.5C 39.5,266.167 39.5,272.833 39.5,279.5C 32.8333,279.5 26.1667,279.5 19.5,279.5C 19.5,272.833 19.5,266.167 19.5,259.5 Z"/></g>
<g><path style="opacity:1" fill="#eeeeee" d="M 39.5,259.5 C 46.1667,259.5 52.8333,259.5 59.5,259.5C 59.5,266.167 59.5,272.833 59.5,279.5C 52.8333,279.5 46.1667,279.5 39.5,279.5C 39.5,272.833 39.5,266.167 39.5,259.5 Z"/></g>
<g><path style="opacity:1" fill="#fefefe" d="M 59.5,259.5 C 66.1667,259.5 72.8333,259.5 79.5,259.5C 79.5,266.167 79.5,272.833 79.5,279.5C 72.8333,279.5 66.1667,279.5 59.5,279.5C 59.5,272.833 59.5,266.167 59.5,259.5 Z"/></g>
<g><path style="opacity:1" fill="#eeeeee" d="M 79.5,259.5 C 86.1667,259.5 92.8333,259.5 99.5,259.5C 99.5,266.167 99.5,272.833 99.5,279.5C 92.8333,279.5 86.1667,279.5 79.5,279.5C 79.5,272.833 79.5,266.167 79.5,259.5 Z"/></g>
<g><path style="opacity:1" fill="#fefefe" d="M 99.5,259.5 C 106.167,259.5 112.833,259.5 119.5,259.5C 119.5,266.167 119.5,272.833 119.5,279.5C 112.833,279.5 106.167,279.5 99.5,279.5C 99.5,272.833 99.5,266.167 99.5,259.5 Z"/></g>
<g><path style="opacity:1" fill="#eeeeee" d="M 119.5,259.5 C 126.167,259.5 132.833,259.5 139.5,259.5C 139.5,266.167 139.5,272.833 139.5,279.5C 132.833,279.5 126.167,279.5 119.5,279.5C 119.5,272.833 119.5,266.167 119.5,259.5 Z"/></g>
<g><path style="opacity:1" fill="#fefefe" d="M 139.5,259.5 C 146.167,259.5 152.833,259.5 159.5,259.5C 159.5,266.167 159.5,272.833 159.5,279.5C 152.833,279.5 146.167,279.5 139.5,279.5C 139.5,272.833 139.5,266.167 139.5,259.5 Z"/></g>
<g><path style="opacity:1" fill="#eeeeee" d="M 159.5,259.5 C 166.167,259.5 172.833,259.5 179.5,259.5C 179.5,266.167 179.5,272.833 179.5,279.5C 172.833,279.5 166.167,279.5 159.5,279.5C 159.5,272.833 159.5,266.167 159.5,259.5 Z"/></g>
<g><path style="opacity:1" fill="#fefefe" d="M 179.5,259.5 C 186.167,259.5 192.833,259.5 199.5,259.5C 199.5,266.167 199.5,272.833 199.5,279.5C 192.833,279.5 186.167,279.5 179.5,279.5C 179.5,272.833 179.5,266.167 179.5,259.5 Z"/></g>
<g><path style="opacity:1" fill="#fefefe" d="M -0.5,279.5 C 6.16667,279.5 12.8333,279.5 19.5,279.5C 19.5,286.167 19.5,292.833 19.5,299.5C 12.8333,299.5 6.16667,299.5 -0.5,299.5C -0.5,292.833 -0.5,286.167 -0.5,279.5 Z"/></g>
<g><path style="opacity:1" fill="#eeeeee" d="M 19.5,279.5 C 26.1667,279.5 32.8333,279.5 39.5,279.5C 39.5,286.167 39.5,292.833 39.5,299.5C 32.8333,299.5 26.1667,299.5 19.5,299.5C 19.5,292.833 19.5,286.167 19.5,279.5 Z"/></g>
<g><path style="opacity:1" fill="#fefefe" d="M 39.5,279.5 C 46.1667,279.5 52.8333,279.5 59.5,279.5C 59.5,286.167 59.5,292.833 59.5,299.5C 52.8333,299.5 46.1667,299.5 39.5,299.5C 39.5,292.833 39.5,286.167 39.5,279.5 Z"/></g>
<g><path style="opacity:1" fill="#eeeeee" d="M 59.5,279.5 C 66.1667,279.5 72.8333,279.5 79.5,279.5C 79.5,286.167 79.5,292.833 79.5,299.5C 72.8333,299.5 66.1667,299.5 59.5,299.5C 59.5,292.833 59.5,286.167 59.5,279.5 Z"/></g>
<g><path style="opacity:1" fill="#fefefe" d="M 79.5,279.5 C 86.1667,279.5 92.8333,279.5 99.5,279.5C 99.5,286.167 99.5,292.833 99.5,299.5C 92.8333,299.5 86.1667,299.5 79.5,299.5C 79.5,292.833 79.5,286.167 79.5,279.5 Z"/></g>
<g><path style="opacity:1" fill="#eeeeee" d="M 99.5,279.5 C 106.167,279.5 112.833,279.5 119.5,279.5C 119.5,286.167 119.5,292.833 119.5,299.5C 112.833,299.5 106.167,299.5 99.5,299.5C 99.5,292.833 99.5,286.167 99.5,279.5 Z"/></g>
<g><path style="opacity:1" fill="#fefefe" d="M 119.5,279.5 C 126.167,279.5 132.833,279.5 139.5,279.5C 139.5,286.167 139.5,292.833 139.5,299.5C 132.833,299.5 126.167,299.5 119.5,299.5C 119.5,292.833 119.5,286.167 119.5,279.5 Z"/></g>
<g><path style="opacity:1" fill="#eeeeee" d="M 139.5,279.5 C 146.167,279.5 152.833,279.5 159.5,279.5C 159.5,286.167 159.5,292.833 159.5,299.5C 152.833,299.5 146.167,299.5 139.5,299.5C 139.5,292.833 139.5,286.167 139.5,279.5 Z"/></g>
<g><path style="opacity:1" fill="#fefefe" d="M 159.5,279.5 C 166.167,279.5 172.833,279.5 179.5,279.5C 179.5,286.167 179.5,292.833 179.5,299.5C 172.833,299.5 166.167,299.5 159.5,299.5C 159.5,292.833 159.5,286.167 159.5,279.5 Z"/></g>
<g><path style="opacity:1" fill="#eeeeee" d="M 179.5,279.5 C 186.167,279.5 192.833,279.5 199.5,279.5C 199.5,286.167 199.5,292.833 199.5,299.5C 192.833,299.5 186.167,299.5 179.5,299.5C 179.5,292.833 179.5,286.167 179.5,279.5 Z"/></g>
<g><path style="opacity:1" fill="#eeeeee" d="M -0.5,299.5 C 6.16667,299.5 12.8333,299.5 19.5,299.5C 19.5,306.167 19.5,312.833 19.5,319.5C 12.8333,319.5 6.16667,319.5 -0.5,319.5C -0.5,312.833 -0.5,306.167 -0.5,299.5 Z"/></g>
<g><path style="opacity:1" fill="#fefefe" d="M 19.5,299.5 C 26.1667,299.5 32.8333,299.5 39.5,299.5C 39.5,306.167 39.5,312.833 39.5,319.5C 32.8333,319.5 26.1667,319.5 19.5,319.5C 19.5,312.833 19.5,306.167 19.5,299.5 Z"/></g>
<g><path style="opacity:1" fill="#eeeeee" d="M 39.5,299.5 C 46.1667,299.5 52.8333,299.5 59.5,299.5C 59.5,306.167 59.5,312.833 59.5,319.5C 52.8333,319.5 46.1667,319.5 39.5,319.5C 39.5,312.833 39.5,306.167 39.5,299.5 Z"/></g>
<g><path style="opacity:1" fill="#fefefe" d="M 59.5,299.5 C 66.1667,299.5 72.8333,299.5 79.5,299.5C 79.5,306.167 79.5,312.833 79.5,319.5C 72.8333,319.5 66.1667,319.5 59.5,319.5C 59.5,312.833 59.5,306.167 59.5,299.5 Z"/></g>
<g><path style="opacity:1" fill="#eeeeee" d="M 79.5,299.5 C 86.1667,299.5 92.8333,299.5 99.5,299.5C 99.5,306.167 99.5,312.833 99.5,319.5C 92.8333,319.5 86.1667,319.5 79.5,319.5C 79.5,312.833 79.5,306.167 79.5,299.5 Z"/></g>
<g><path style="opacity:1" fill="#fefefe" d="M 99.5,299.5 C 106.167,299.5 112.833,299.5 119.5,299.5C 119.5,306.167 119.5,312.833 119.5,319.5C 112.833,319.5 106.167,319.5 99.5,319.5C 99.5,312.833 99.5,306.167 99.5,299.5 Z"/></g>
<g><path style="opacity:1" fill="#eeeeee" d="M 119.5,299.5 C 126.167,299.5 132.833,299.5 139.5,299.5C 139.5,306.167 139.5,312.833 139.5,319.5C 132.833,319.5 126.167,319.5 119.5,319.5C 119.5,312.833 119.5,306.167 119.5,299.5 Z"/></g>
<g><path style="opacity:1" fill="#fefefe" d="M 139.5,299.5 C 146.167,299.5 152.833,299.5 159.5,299.5C 159.5,306.167 159.5,312.833 159.5,319.5C 152.833,319.5 146.167,319.5 139.5,319.5C 139.5,312.833 139.5,306.167 139.5,299.5 Z"/></g>
<g><path style="opacity:1" fill="#eeeeee" d="M 159.5,299.5 C 166.167,299.5 172.833,299.5 179.5,299.5C 179.5,306.167 179.5,312.833 179.5,319.5C 172.833,319.5 166.167,319.5 159.5,319.5C 159.5,312.833 159.5,306.167 159.5,299.5 Z"/></g>
<g><path style="opacity:1" fill="#fefefe" d="M 179.5,299.5 C 186.167,299.5 192.833,299.5 199.5,299.5C 199.5,306.167 199.5,312.833 199.5,319.5C 192.833,319.5 186.167,319.5 179.5,319.5C 179.5,312.833 179.5,306.167 179.5,299.5 Z"/></g>
<g><path style="opacity:1" fill="#fefefe" d="M -0.5,319.5 C 6.16667,319.5 12.8333,319.5 19.5,319.5C 19.5,326.167 19.5,332.833 19.5,339.5C 12.8333,339.5 6.16667,339.5 -0.5,339.5C -0.5,332.833 -0.5,326.167 -0.5,319.5 Z"/></g>
<g><path style="opacity:1" fill="#eeeeee" d="M 19.5,319.5 C 26.1667,319.5 32.8333,319.5 39.5,319.5C 39.5,326.167 39.5,332.833 39.5,339.5C 32.8333,339.5 26.1667,339.5 19.5,339.5C 19.5,332.833 19.5,326.167 19.5,319.5 Z"/></g>
<g><path style="opacity:1" fill="#fefefe" d="M 39.5,319.5 C 46.1667,319.5 52.8333,319.5 59.5,319.5C 59.5,326.167 59.5,332.833 59.5,339.5C 52.8333,339.5 46.1667,339.5 39.5,339.5C 39.5,332.833 39.5,326.167 39.5,319.5 Z"/></g>
<g><path style="opacity:1" fill="#eeeeee" d="M 59.5,319.5 C 66.1667,319.5 72.8333,319.5 79.5,319.5C 79.5,326.167 79.5,332.833 79.5,339.5C 72.8333,339.5 66.1667,339.5 59.5,339.5C 59.5,332.833 59.5,326.167 59.5,319.5 Z"/></g>
<g><path style="opacity:1" fill="#fefefe" d="M 79.5,319.5 C 86.1667,319.5 92.8333,319.5 99.5,319.5C 99.5,326.167 99.5,332.833 99.5,339.5C 92.8333,339.5 86.1667,339.5 79.5,339.5C 79.5,332.833 79.5,326.167 79.5,319.5 Z"/></g>
<g><path style="opacity:1" fill="#eeeeee" d="M 99.5,319.5 C 106.167,319.5 112.833,319.5 119.5,319.5C 119.5,326.167 119.5,332.833 119.5,339.5C 112.833,339.5 106.167,339.5 99.5,339.5C 99.5,332.833 99.5,326.167 99.5,319.5 Z"/></g>
<g><path style="opacity:1" fill="#fefefe" d="M 119.5,319.5 C 126.167,319.5 132.833,319.5 139.5,319.5C 139.5,326.167 139.5,332.833 139.5,339.5C 132.833,339.5 126.167,339.5 119.5,339.5C 119.5,332.833 119.5,326.167 119.5,319.5 Z"/></g>
<g><path style="opacity:1" fill="#eeeeee" d="M 139.5,319.5 C 146.167,319.5 152.833,319.5 159.5,319.5C 159.5,326.167 159.5,332.833 159.5,339.5C 152.833,339.5 146.167,339.5 139.5,339.5C 139.5,332.833 139.5,326.167 139.5,319.5 Z"/></g>
<g><path style="opacity:1" fill="#fefefe" d="M 159.5,319.5 C 166.167,319.5 172.833,319.5 179.5,319.5C 179.5,326.167 179.5,332.833 179.5,339.5C 172.833,339.5 166.167,339.5 159.5,339.5C 159.5,332.833 159.5,326.167 159.5,319.5 Z"/></g>
<g><path style="opacity:1" fill="#eeeeee" d="M 179.5,319.5 C 186.167,319.5 192.833,319.5 199.5,319.5C 199.5,326.167 199.5,332.833 199.5,339.5C 192.833,339.5 186.167,339.5 179.5,339.5C 179.5,332.833 179.5,326.167 179.5,319.5 Z"/></g>
<g><path style="opacity:1" fill="#eeeeee" d="M -0.5,339.5 C 6.16667,339.5 12.8333,339.5 19.5,339.5C 19.5,346.167 19.5,352.833 19.5,359.5C 12.8333,359.5 6.16667,359.5 -0.5,359.5C -0.5,352.833 -0.5,346.167 -0.5,339.5 Z"/></g>
<g><path style="opacity:1" fill="#fefefe" d="M 19.5,339.5 C 26.1667,339.5 32.8333,339.5 39.5,339.5C 39.5,346.167 39.5,352.833 39.5,359.5C 32.8333,359.5 26.1667,359.5 19.5,359.5C 19.5,352.833 19.5,346.167 19.5,339.5 Z"/></g>
<g><path style="opacity:1" fill="#eeeeee" d="M 39.5,339.5 C 46.1667,339.5 52.8333,339.5 59.5,339.5C 59.5,346.167 59.5,352.833 59.5,359.5C 52.8333,359.5 46.1667,359.5 39.5,359.5C 39.5,352.833 39.5,346.167 39.5,339.5 Z"/></g>
<g><path style="opacity:1" fill="#fefefe" d="M 59.5,339.5 C 66.1667,339.5 72.8333,339.5 79.5,339.5C 79.5,346.167 79.5,352.833 79.5,359.5C 72.8333,359.5 66.1667,359.5 59.5,359.5C 59.5,352.833 59.5,346.167 59.5,339.5 Z"/></g>
<g><path style="opacity:1" fill="#eeeeee" d="M 79.5,339.5 C 86.1667,339.5 92.8333,339.5 99.5,339.5C 99.5,346.167 99.5,352.833 99.5,359.5C 92.8333,359.5 86.1667,359.5 79.5,359.5C 79.5,352.833 79.5,346.167 79.5,339.5 Z"/></g>
<g><path style="opacity:1" fill="#fefefe" d="M 99.5,339.5 C 106.167,339.5 112.833,339.5 119.5,339.5C 119.5,346.167 119.5,352.833 119.5,359.5C 112.833,359.5 106.167,359.5 99.5,359.5C 99.5,352.833 99.5,346.167 99.5,339.5 Z"/></g>
<g><path style="opacity:1" fill="#eeeeee" d="M 119.5,339.5 C 126.167,339.5 132.833,339.5 139.5,339.5C 139.5,346.167 139.5,352.833 139.5,359.5C 132.833,359.5 126.167,359.5 119.5,359.5C 119.5,352.833 119.5,346.167 119.5,339.5 Z"/></g>
<g><path style="opacity:1" fill="#fefefe" d="M 139.5,339.5 C 146.167,339.5 152.833,339.5 159.5,339.5C 159.5,346.167 159.5,352.833 159.5,359.5C 152.833,359.5 146.167,359.5 139.5,359.5C 139.5,352.833 139.5,346.167 139.5,339.5 Z"/></g>
<g><path style="opacity:1" fill="#eeeeee" d="M 159.5,339.5 C 166.167,339.5 172.833,339.5 179.5,339.5C 179.5,346.167 179.5,352.833 179.5,359.5C 172.833,359.5 166.167,359.5 159.5,359.5C 159.5,352.833 159.5,346.167 159.5,339.5 Z"/></g>
<g><path style="opacity:1" fill="#fefefe" d="M 179.5,339.5 C 186.167,339.5 192.833,339.5 199.5,339.5C 199.5,346.167 199.5,352.833 199.5,359.5C 192.833,359.5 186.167,359.5 179.5,359.5C 179.5,352.833 179.5,346.167 179.5,339.5 Z"/></g>
<g><path style="opacity:1" fill="#fefefe" d="M -0.5,359.5 C 6.16667,359.5 12.8333,359.5 19.5,359.5C 19.5,366.167 19.5,372.833 19.5,379.5C 12.8333,379.5 6.16667,379.5 -0.5,379.5C -0.5,372.833 -0.5,366.167 -0.5,359.5 Z"/></g>
<g><path style="opacity:1" fill="#eeeeee" d="M 19.5,359.5 C 26.1667,359.5 32.8333,359.5 39.5,359.5C 39.5,366.167 39.5,372.833 39.5,379.5C 32.8333,379.5 26.1667,379.5 19.5,379.5C 19.5,372.833 19.5,366.167 19.5,359.5 Z"/></g>
<g><path style="opacity:1" fill="#fefefe" d="M 39.5,359.5 C 46.1667,359.5 52.8333,359.5 59.5,359.5C 59.5,366.167 59.5,372.833 59.5,379.5C 52.8333,379.5 46.1667,379.5 39.5,379.5C 39.5,372.833 39.5,366.167 39.5,359.5 Z"/></g>
<g><path style="opacity:1" fill="#eeeeee" d="M 59.5,359.5 C 66.1667,359.5 72.8333,359.5 79.5,359.5C 79.5,366.167 79.5,372.833 79.5,379.5C 72.8333,379.5 66.1667,379.5 59.5,379.5C 59.5,372.833 59.5,366.167 59.5,359.5 Z"/></g>
<g><path style="opacity:1" fill="#fefefe" d="M 79.5,359.5 C 86.1667,359.5 92.8333,359.5 99.5,359.5C 99.5,366.167 99.5,372.833 99.5,379.5C 92.8333,379.5 86.1667,379.5 79.5,379.5C 79.5,372.833 79.5,366.167 79.5,359.5 Z"/></g>
<g><path style="opacity:1" fill="#eeeeee" d="M 99.5,359.5 C 106.167,359.5 112.833,359.5 119.5,359.5C 119.5,366.167 119.5,372.833 119.5,379.5C 112.833,379.5 106.167,379.5 99.5,379.5C 99.5,372.833 99.5,366.167 99.5,359.5 Z"/></g>
<g><path style="opacity:1" fill="#fefefe" d="M 119.5,359.5 C 126.167,359.5 132.833,359.5 139.5,359.5C 139.5,366.167 139.5,372.833 139.5,379.5C 132.833,379.5 126.167,379.5 119.5,379.5C 119.5,372.833 119.5,366.167 119.5,359.5 Z"/></g>
<g><path style="opacity:1" fill="#eeeeee" d="M 139.5,359.5 C 146.167,359.5 152.833,359.5 159.5,359.5C 159.5,366.167 159.5,372.833 159.5,379.5C 152.833,379.5 146.167,379.5 139.5,379.5C 139.5,372.833 139.5,366.167 139.5,359.5 Z"/></g>
<g><path style="opacity:1" fill="#fefefe" d="M 159.5,359.5 C 166.167,359.5 172.833,359.5 179.5,359.5C 179.5,366.167 179.5,372.833 179.5,379.5C 172.833,379.5 166.167,379.5 159.5,379.5C 159.5,372.833 159.5,366.167 159.5,359.5 Z"/></g>
<g><path style="opacity:1" fill="#eeeeee" d="M 179.5,359.5 C 186.167,359.5 192.833,359.5 199.5,359.5C 199.5,366.167 199.5,372.833 199.5,379.5C 192.833,379.5 186.167,379.5 179.5,379.5C 179.5,372.833 179.5,366.167 179.5,359.5 Z"/></g>
<g><path style="opacity:1" fill="#eeeeee" d="M -0.5,379.5 C 6.16667,379.5 12.8333,379.5 19.5,379.5C 19.5,386.167 19.5,392.833 19.5,399.5C 12.8333,399.5 6.16667,399.5 -0.5,399.5C -0.5,392.833 -0.5,386.167 -0.5,379.5 Z"/></g>
<g><path style="opacity:1" fill="#fefefe" d="M 19.5,379.5 C 26.1667,379.5 32.8333,379.5 39.5,379.5C 39.5,386.167 39.5,392.833 39.5,399.5C 32.8333,399.5 26.1667,399.5 19.5,399.5C 19.5,392.833 19.5,386.167 19.5,379.5 Z"/></g>
<g><path style="opacity:1" fill="#eeeeee" d="M 39.5,379.5 C 46.1667,379.5 52.8333,379.5 59.5,379.5C 59.5,386.167 59.5,392.833 59.5,399.5C 52.8333,399.5 46.1667,399.5 39.5,399.5C 39.5,392.833 39.5,386.167 39.5,379.5 Z"/></g>
<g><path style="opacity:1" fill="#fefefe" d="M 59.5,379.5 C 66.1667,379.5 72.8333,379.5 79.5,379.5C 79.5,386.167 79.5,392.833 79.5,399.5C 72.8333,399.5 66.1667,399.5 59.5,399.5C 59.5,392.833 59.5,386.167 59.5,379.5 Z"/></g>
<g><path style="opacity:1" fill="#eeeeee" d="M 79.5,379.5 C 86.1667,379.5 92.8333,379.5 99.5,379.5C 99.5,386.167 99.5,392.833 99.5,399.5C 92.8333,399.5 86.1667,399.5 79.5,399.5C 79.5,392.833 79.5,386.167 79.5,379.5 Z"/></g>
<g><path style="opacity:1" fill="#fefefe" d="M 99.5,379.5 C 106.167,379.5 112.833,379.5 119.5,379.5C 119.5,386.167 119.5,392.833 119.5,399.5C 112.833,399.5 106.167,399.5 99.5,399.5C 99.5,392.833 99.5,386.167 99.5,379.5 Z"/></g>
<g><path style="opacity:1" fill="#eeeeee" d="M 119.5,379.5 C 126.167,379.5 132.833,379.5 139.5,379.5C 139.5,386.167 139.5,392.833 139.5,399.5C 132.833,399.5 126.167,399.5 119.5,399.5C 119.5,392.833 119.5,386.167 119.5,379.5 Z"/></g>
<g><path style="opacity:1" fill="#fefefe" d="M 139.5,379.5 C 146.167,379.5 152.833,379.5 159.5,379.5C 159.5,386.167 159.5,392.833 159.5,399.5C 152.833,399.5 146.167,399.5 139.5,399.5C 139.5,392.833 139.5,386.167 139.5,379.5 Z"/></g>
<g><path style="opacity:1" fill="#eeeeee" d="M 159.5,379.5 C 166.167,379.5 172.833,379.5 179.5,379.5C 179.5,386.167 179.5,392.833 179.5,399.5C 172.833,399.5 166.167,399.5 159.5,399.5C 159.5,392.833 159.5,386.167 159.5,379.5 Z"/></g>
<g><path style="opacity:1" fill="#fefefe" d="M 179.5,379.5 C 186.167,379.5 192.833,379.5 199.5,379.5C 199.5,386.167 199.5,392.833 199.5,399.5C 192.833,399.5 186.167,399.5 179.5,399.5C 179.5,392.833 179.5,386.167 179.5,379.5 Z"/></g>
<g><path style="opacity:1" fill="#fefefe" d="M -0.5,399.5 C 6.16667,399.5 12.8333,399.5 19.5,399.5C 19.5,406.167 19.5,412.833 19.5,419.5C 12.8333,419.5 6.16667,419.5 -0.5,419.5C -0.5,412.833 -0.5,406.167 -0.5,399.5 Z"/></g>
<g><path style="opacity:1" fill="#eeeeee" d="M 19.5,399.5 C 26.1667,399.5 32.8333,399.5 39.5,399.5C 39.5,406.167 39.5,412.833 39.5,419.5C 32.8333,419.5 26.1667,419.5 19.5,419.5C 19.5,412.833 19.5,406.167 19.5,399.5 Z"/></g>
<g><path style="opacity:1" fill="#fefefe" d="M 39.5,399.5 C 46.1667,399.5 52.8333,399.5 59.5,399.5C 59.5,406.167 59.5,412.833 59.5,419.5C 52.8333,419.5 46.1667,419.5 39.5,419.5C 39.5,412.833 39.5,406.167 39.5,399.5 Z"/></g>
<g><path style="opacity:1" fill="#eeeeee" d="M 59.5,399.5 C 66.1667,399.5 72.8333,399.5 79.5,399.5C 79.5,406.167 79.5,412.833 79.5,419.5C 72.8333,419.5 66.1667,419.5 59.5,419.5C 59.5,412.833 59.5,406.167 59.5,399.5 Z"/></g>
<g><path style="opacity:1" fill="#fefefe" d="M 79.5,399.5 C 86.1667,399.5 92.8333,399.5 99.5,399.5C 99.5,406.167 99.5,412.833 99.5,419.5C 92.8333,419.5 86.1667,419.5 79.5,419.5C 79.5,412.833 79.5,406.167 79.5,399.5 Z"/></g>
<g><path style="opacity:1" fill="#eeeeee" d="M 99.5,399.5 C 106.167,399.5 112.833,399.5 119.5,399.5C 119.5,406.167 119.5,412.833 119.5,419.5C 112.833,419.5 106.167,419.5 99.5,419.5C 99.5,412.833 99.5,406.167 99.5,399.5 Z"/></g>
<g><path style="opacity:1" fill="#fefefe" d="M 119.5,399.5 C 126.167,399.5 132.833,399.5 139.5,399.5C 139.5,406.167 139.5,412.833 139.5,419.5C 132.833,419.5 126.167,419.5 119.5,419.5C 119.5,412.833 119.5,406.167 119.5,399.5 Z"/></g>
<g><path style="opacity:1" fill="#eeeeee" d="M 139.5,399.5 C 146.167,399.5 152.833,399.5 159.5,399.5C 159.5,406.167 159.5,412.833 159.5,419.5C 152.833,419.5 146.167,419.5 139.5,419.5C 139.5,412.833 139.5,406.167 139.5,399.5 Z"/></g>
<g><path style="opacity:1" fill="#fefefe" d="M 159.5,399.5 C 166.167,399.5 172.833,399.5 179.5,399.5C 179.5,406.167 179.5,412.833 179.5,419.5C 172.833,419.5 166.167,419.5 159.5,419.5C 159.5,412.833 159.5,406.167 159.5,399.5 Z"/></g>
<g><path style="opacity:1" fill="#eeeeee" d="M 179.5,399.5 C 186.167,399.5 192.833,399.5 199.5,399.5C 199.5,406.167 199.5,412.833 199.5,419.5C 192.833,419.5 186.167,419.5 179.5,419.5C 179.5,412.833 179.5,406.167 179.5,399.5 Z"/></g>
<g><path style="opacity:1" fill="#eeeeee" d="M -0.5,419.5 C 6.16667,419.5 12.8333,419.5 19.5,419.5C 19.5,426.167 19.5,432.833 19.5,439.5C 12.8333,439.5 6.16667,439.5 -0.5,439.5C -0.5,432.833 -0.5,426.167 -0.5,419.5 Z"/></g>
<g><path style="opacity:1" fill="#fefefe" d="M 19.5,419.5 C 26.1667,419.5 32.8333,419.5 39.5,419.5C 39.5,426.167 39.5,432.833 39.5,439.5C 32.8333,439.5 26.1667,439.5 19.5,439.5C 19.5,432.833 19.5,426.167 19.5,419.5 Z"/></g>
<g><path style="opacity:1" fill="#eeeeee" d="M 39.5,419.5 C 46.1667,419.5 52.8333,419.5 59.5,419.5C 59.5,426.167 59.5,432.833 59.5,439.5C 52.8333,439.5 46.1667,439.5 39.5,439.5C 39.5,432.833 39.5,426.167 39.5,419.5 Z"/></g>
<g><path style="opacity:1" fill="#fefefe" d="M 59.5,419.5 C 66.1667,419.5 72.8333,419.5 79.5,419.5C 79.5,426.167 79.5,432.833 79.5,439.5C 72.8333,439.5 66.1667,439.5 59.5,439.5C 59.5,432.833 59.5,426.167 59.5,419.5 Z"/></g>
<g><path style="opacity:1" fill="#eeeeee" d="M 79.5,419.5 C 86.1667,419.5 92.8333,419.5 99.5,419.5C 99.5,426.167 99.5,432.833 99.5,439.5C 92.8333,439.5 86.1667,439.5 79.5,439.5C 79.5,432.833 79.5,426.167 79.5,419.5 Z"/></g>
<g><path style="opacity:1" fill="#fefefe" d="M 99.5,419.5 C 106.167,419.5 112.833,419.5 119.5,419.5C 119.5,426.167 119.5,432.833 119.5,439.5C 112.833,439.5 106.167,439.5 99.5,439.5C 99.5,432.833 99.5,426.167 99.5,419.5 Z"/></g>
<g><path style="opacity:1" fill="#eeeeee" d="M 119.5,419.5 C 126.167,419.5 132.833,419.5 139.5,419.5C 139.5,426.167 139.5,432.833 139.5,439.5C 132.833,439.5 126.167,439.5 119.5,439.5C 119.5,432.833 119.5,426.167 119.5,419.5 Z"/></g>
<g><path style="opacity:1" fill="#fefefe" d="M 139.5,419.5 C 146.167,419.5 152.833,419.5 159.5,419.5C 159.5,426.167 159.5,432.833 159.5,439.5C 152.833,439.5 146.167,439.5 139.5,439.5C 139.5,432.833 139.5,426.167 139.5,419.5 Z"/></g>
<g><path style="opacity:1" fill="#eeeeee" d="M 159.5,419.5 C 166.167,419.5 172.833,419.5 179.5,419.5C 179.5,426.167 179.5,432.833 179.5,439.5C 172.833,439.5 166.167,439.5 159.5,439.5C 159.5,432.833 159.5,426.167 159.5,419.5 Z"/></g>
<g><path style="opacity:1" fill="#fefefe" d="M 179.5,419.5 C 186.167,419.5 192.833,419.5 199.5,419.5C 199.5,426.167 199.5,432.833 199.5,439.5C 192.833,439.5 186.167,439.5 179.5,439.5C 179.5,432.833 179.5,426.167 179.5,419.5 Z"/></g>
<g><path style="opacity:1" fill="#f0f0f0" d="M 519.5,400.5 C 519.5,406.833 519.5,413.167 519.5,419.5C 512.833,419.5 506.167,419.5 499.5,419.5C 499.5,412.833 499.5,406.167 499.5,399.5C 492.833,399.5 486.167,399.5 479.5,399.5C 479.5,406.167 479.5,412.833 479.5,419.5C 472.833,419.5 466.167,419.5 459.5,419.5C 459.5,412.833 459.5,406.167 459.5,399.5C 452.833,399.5 446.167,399.5 439.5,399.5C 439.5,406.167 439.5,412.833 439.5,419.5C 432.833,419.5 426.167,419.5 419.5,419.5C 419.5,412.833 419.5,406.167 419.5,399.5C 412.833,399.5 406.167,399.5 399.5,399.5C 399.5,406.167 399.5,412.833 399.5,419.5C 392.833,419.5 386.167,419.5 379.5,419.5C 379.5,426.167 379.5,432.833 379.5,439.5C 372.833,439.5 366.167,439.5 359.5,439.5C 359.5,432.833 359.5,426.167 359.5,419.5C 352.833,419.5 346.167,419.5 339.5,419.5C 339.5,426.167 339.5,432.833 339.5,439.5C 332.833,439.5 326.167,439.5 319.5,439.5C 319.5,432.833 319.5,426.167 319.5,419.5C 313.158,419.334 306.825,419.5 300.5,420C 299.522,426.41 299.189,432.91 299.5,439.5C 292.833,439.5 286.167,439.5 279.5,439.5C 280.108,434.056 279.442,429.056 277.5,424.5C 356.17,396.433 436.837,388.433 519.5,400.5 Z"/></g>
<g><path style="opacity:1" fill="#fefefe" d="M 359.5,439.5 C 352.833,439.5 346.167,439.5 339.5,439.5C 339.5,432.833 339.5,426.167 339.5,419.5C 346.167,419.5 352.833,419.5 359.5,419.5C 359.5,426.167 359.5,432.833 359.5,439.5 Z"/></g>
<g><path style="opacity:1" fill="#fefefe" d="M 319.5,439.5 C 312.833,439.5 306.167,439.5 299.5,439.5C 299.189,432.91 299.522,426.41 300.5,420C 306.825,419.5 313.158,419.334 319.5,419.5C 319.5,426.167 319.5,432.833 319.5,439.5 Z"/></g>
<g><path style="opacity:1" fill="#fefefe" d="M 499.5,419.5 C 492.833,419.5 486.167,419.5 479.5,419.5C 479.5,412.833 479.5,406.167 479.5,399.5C 486.167,399.5 492.833,399.5 499.5,399.5C 499.5,406.167 499.5,412.833 499.5,419.5 Z"/></g>
<g><path style="opacity:1" fill="#fefefe" d="M 459.5,419.5 C 452.833,419.5 446.167,419.5 439.5,419.5C 439.5,412.833 439.5,406.167 439.5,399.5C 446.167,399.5 452.833,399.5 459.5,399.5C 459.5,406.167 459.5,412.833 459.5,419.5 Z"/></g>
<g><path style="opacity:1" fill="#fefefe" d="M 419.5,419.5 C 412.833,419.5 406.167,419.5 399.5,419.5C 399.5,412.833 399.5,406.167 399.5,399.5C 406.167,399.5 412.833,399.5 419.5,399.5C 419.5,406.167 419.5,412.833 419.5,419.5 Z"/></g>
<g><path style="opacity:1" fill="#fefefe" d="M 399.5,419.5 C 399.5,426.167 399.5,432.833 399.5,439.5C 392.833,439.5 386.167,439.5 379.5,439.5C 379.5,432.833 379.5,426.167 379.5,419.5C 386.167,419.5 392.833,419.5 399.5,419.5 Z"/></g>
<g><path style="opacity:1" fill="#eeeeee" d="M 399.5,419.5 C 406.167,419.5 412.833,419.5 419.5,419.5C 419.5,426.167 419.5,432.833 419.5,439.5C 412.833,439.5 406.167,439.5 399.5,439.5C 399.5,432.833 399.5,426.167 399.5,419.5 Z"/></g>
<g><path style="opacity:1" fill="#fefefe" d="M 419.5,419.5 C 426.167,419.5 432.833,419.5 439.5,419.5C 439.5,426.167 439.5,432.833 439.5,439.5C 432.833,439.5 426.167,439.5 419.5,439.5C 419.5,432.833 419.5,426.167 419.5,419.5 Z"/></g>
<g><path style="opacity:1" fill="#eeeeee" d="M 439.5,419.5 C 446.167,419.5 452.833,419.5 459.5,419.5C 459.5,426.167 459.5,432.833 459.5,439.5C 452.833,439.5 446.167,439.5 439.5,439.5C 439.5,432.833 439.5,426.167 439.5,419.5 Z"/></g>
<g><path style="opacity:1" fill="#fefefe" d="M 459.5,419.5 C 466.167,419.5 472.833,419.5 479.5,419.5C 479.5,426.167 479.5,432.833 479.5,439.5C 472.833,439.5 466.167,439.5 459.5,439.5C 459.5,432.833 459.5,426.167 459.5,419.5 Z"/></g>
<g><path style="opacity:1" fill="#eeeeee" d="M 479.5,419.5 C 486.167,419.5 492.833,419.5 499.5,419.5C 499.5,426.167 499.5,432.833 499.5,439.5C 492.833,439.5 486.167,439.5 479.5,439.5C 479.5,432.833 479.5,426.167 479.5,419.5 Z"/></g>
<g><path style="opacity:1" fill="#fefefe" d="M -0.5,439.5 C 6.16667,439.5 12.8333,439.5 19.5,439.5C 19.5,446.167 19.5,452.833 19.5,459.5C 12.8333,459.5 6.16667,459.5 -0.5,459.5C -0.5,452.833 -0.5,446.167 -0.5,439.5 Z"/></g>
<g><path style="opacity:1" fill="#eeeeee" d="M 19.5,439.5 C 26.1667,439.5 32.8333,439.5 39.5,439.5C 39.5,446.167 39.5,452.833 39.5,459.5C 32.8333,459.5 26.1667,459.5 19.5,459.5C 19.5,452.833 19.5,446.167 19.5,439.5 Z"/></g>
<g><path style="opacity:1" fill="#fefefe" d="M 39.5,439.5 C 46.1667,439.5 52.8333,439.5 59.5,439.5C 59.5,446.167 59.5,452.833 59.5,459.5C 52.8333,459.5 46.1667,459.5 39.5,459.5C 39.5,452.833 39.5,446.167 39.5,439.5 Z"/></g>
<g><path style="opacity:1" fill="#eeeeee" d="M 59.5,439.5 C 66.1667,439.5 72.8333,439.5 79.5,439.5C 79.5,446.167 79.5,452.833 79.5,459.5C 72.8333,459.5 66.1667,459.5 59.5,459.5C 59.5,452.833 59.5,446.167 59.5,439.5 Z"/></g>
<g><path style="opacity:1" fill="#fefefe" d="M 79.5,439.5 C 86.1667,439.5 92.8333,439.5 99.5,439.5C 99.5,446.167 99.5,452.833 99.5,459.5C 92.8333,459.5 86.1667,459.5 79.5,459.5C 79.5,452.833 79.5,446.167 79.5,439.5 Z"/></g>
<g><path style="opacity:1" fill="#eeeeee" d="M 99.5,439.5 C 106.167,439.5 112.833,439.5 119.5,439.5C 119.5,446.167 119.5,452.833 119.5,459.5C 112.833,459.5 106.167,459.5 99.5,459.5C 99.5,452.833 99.5,446.167 99.5,439.5 Z"/></g>
<g><path style="opacity:1" fill="#fefefe" d="M 119.5,439.5 C 126.167,439.5 132.833,439.5 139.5,439.5C 139.5,446.167 139.5,452.833 139.5,459.5C 132.833,459.5 126.167,459.5 119.5,459.5C 119.5,452.833 119.5,446.167 119.5,439.5 Z"/></g>
<g><path style="opacity:1" fill="#eeeeee" d="M 139.5,439.5 C 146.167,439.5 152.833,439.5 159.5,439.5C 159.5,446.167 159.5,452.833 159.5,459.5C 152.833,459.5 146.167,459.5 139.5,459.5C 139.5,452.833 139.5,446.167 139.5,439.5 Z"/></g>
<g><path style="opacity:1" fill="#fefefe" d="M 159.5,439.5 C 166.167,439.5 172.833,439.5 179.5,439.5C 179.5,446.167 179.5,452.833 179.5,459.5C 172.833,459.5 166.167,459.5 159.5,459.5C 159.5,452.833 159.5,446.167 159.5,439.5 Z"/></g>
<g><path style="opacity:1" fill="#eeeeee" d="M 179.5,439.5 C 186.167,439.5 192.833,439.5 199.5,439.5C 199.5,446.167 199.5,452.833 199.5,459.5C 192.833,459.5 186.167,459.5 179.5,459.5C 179.5,452.833 179.5,446.167 179.5,439.5 Z"/></g>
<g><path style="opacity:1" fill="#eeeeee" d="M 279.5,439.5 C 279.5,446.167 279.5,452.833 279.5,459.5C 272.833,459.5 266.167,459.5 259.5,459.5C 259.5,452.833 259.5,446.167 259.5,439.5C 266.167,439.5 272.833,439.5 279.5,439.5 Z"/></g>
<g><path style="opacity:1" fill="#fefefe" d="M 279.5,439.5 C 286.167,439.5 292.833,439.5 299.5,439.5C 299.5,446.167 299.5,452.833 299.5,459.5C 292.833,459.5 286.167,459.5 279.5,459.5C 279.5,452.833 279.5,446.167 279.5,439.5 Z"/></g>
<g><path style="opacity:1" fill="#eeeeee" d="M 299.5,439.5 C 306.167,439.5 312.833,439.5 319.5,439.5C 319.5,446.167 319.5,452.833 319.5,459.5C 312.833,459.5 306.167,459.5 299.5,459.5C 299.5,452.833 299.5,446.167 299.5,439.5 Z"/></g>
<g><path style="opacity:1" fill="#fefefe" d="M 319.5,439.5 C 326.167,439.5 332.833,439.5 339.5,439.5C 339.5,446.167 339.5,452.833 339.5,459.5C 332.833,459.5 326.167,459.5 319.5,459.5C 319.5,452.833 319.5,446.167 319.5,439.5 Z"/></g>
<g><path style="opacity:1" fill="#eeeeee" d="M 339.5,439.5 C 346.167,439.5 352.833,439.5 359.5,439.5C 359.5,446.167 359.5,452.833 359.5,459.5C 352.833,459.5 346.167,459.5 339.5,459.5C 339.5,452.833 339.5,446.167 339.5,439.5 Z"/></g>
<g><path style="opacity:1" fill="#fefefe" d="M 359.5,439.5 C 366.167,439.5 372.833,439.5 379.5,439.5C 379.5,446.167 379.5,452.833 379.5,459.5C 372.833,459.5 366.167,459.5 359.5,459.5C 359.5,452.833 359.5,446.167 359.5,439.5 Z"/></g>
<g><path style="opacity:1" fill="#eeeeee" d="M 379.5,439.5 C 386.167,439.5 392.833,439.5 399.5,439.5C 399.5,446.167 399.5,452.833 399.5,459.5C 392.833,459.5 386.167,459.5 379.5,459.5C 379.5,452.833 379.5,446.167 379.5,439.5 Z"/></g>
<g><path style="opacity:1" fill="#fefefe" d="M 399.5,439.5 C 406.167,439.5 412.833,439.5 419.5,439.5C 419.5,446.167 419.5,452.833 419.5,459.5C 412.833,459.5 406.167,459.5 399.5,459.5C 399.5,452.833 399.5,446.167 399.5,439.5 Z"/></g>
<g><path style="opacity:1" fill="#eeeeee" d="M 419.5,439.5 C 426.167,439.5 432.833,439.5 439.5,439.5C 439.5,446.167 439.5,452.833 439.5,459.5C 432.833,459.5 426.167,459.5 419.5,459.5C 419.5,452.833 419.5,446.167 419.5,439.5 Z"/></g>
<g><path style="opacity:1" fill="#fefefe" d="M 439.5,439.5 C 446.167,439.5 452.833,439.5 459.5,439.5C 459.5,446.167 459.5,452.833 459.5,459.5C 452.833,459.5 446.167,459.5 439.5,459.5C 439.5,452.833 439.5,446.167 439.5,439.5 Z"/></g>
<g><path style="opacity:1" fill="#eeeeee" d="M 459.5,439.5 C 466.167,439.5 472.833,439.5 479.5,439.5C 479.5,446.167 479.5,452.833 479.5,459.5C 472.833,459.5 466.167,459.5 459.5,459.5C 459.5,452.833 459.5,446.167 459.5,439.5 Z"/></g>
<g><path style="opacity:1" fill="#fefefe" d="M 479.5,439.5 C 486.167,439.5 492.833,439.5 499.5,439.5C 499.5,446.167 499.5,452.833 499.5,459.5C 492.833,459.5 486.167,459.5 479.5,459.5C 479.5,452.833 479.5,446.167 479.5,439.5 Z"/></g>
</svg>
